SplineFontDB: 3.2
FontName: SpaceMono-Bold
FullName: Space Mono Bold
FamilyName: Space Mono
Weight: Bold
Copyright: Copyright 2016 Google Inc. All Rights Reserved.
Version: 1.000;PS 1.000;hotconv 1.0.81;makeotf.lib2.5.63406
ItalicAngle: 0
UnderlinePosition: -100
UnderlineWidth: 50
Ascent: 800
Descent: 200
InvalidEm: 0
sfntRevision: 0x00010000
LayerCount: 2
Layer: 0 1 "Back" 1
Layer: 1 1 "Fore" 0
XUID: [1021 226 -1497385041 11028408]
StyleMap: 0x0020
FSType: 0
OS2Version: 3
OS2_WeightWidthSlopeOnly: 0
OS2_UseTypoMetrics: 0
CreationTime: 1464282422
ModificationTime: 1620304418
PfmFamily: 17
TTFWeight: 700
TTFWidth: 5
LineGap: 0
VLineGap: 0
Panose: 2 0 8 9 3 0 0 2 0 4
OS2TypoAscent: 1120
OS2TypoAOffset: 0
OS2TypoDescent: -361
OS2TypoDOffset: 0
OS2TypoLinegap: 0
OS2WinAscent: 1120
OS2WinAOffset: 0
OS2WinDescent: 361
OS2WinDOffset: 0
HheadAscent: 1120
HheadAOffset: 0
HheadDescent: -361
HheadDOffset: 0
OS2SubXSize: 650
OS2SubYSize: 600
OS2SubXOff: 0
OS2SubYOff: 75
OS2SupXSize: 650
OS2SupYSize: 600
OS2SupXOff: 0
OS2SupYOff: 350
OS2StrikeYSize: 50
OS2StrikeYPos: 297
OS2CapHeight: 700
OS2XHeight: 496
OS2Vendor: 'CF  '
OS2CodePages: 20000193.00000000
OS2UnicodeRanges: 20000007.00000001.00000000.00000000
Lookup: 1 0 0 "'aalt' Access All Alternates in Latin lookup 0" { "'aalt' Access All Alternates in Latin lookup 0 subtable"  } ['aalt' ('DFLT' <'dflt' > 'latn' <'CAT ' 'MOL ' 'NLD ' 'ROM ' 'dflt' > ) ]
Lookup: 3 0 0 "'aalt' Access All Alternates in Latin lookup 1" { "'aalt' Access All Alternates in Latin lookup 1 subtable"  } ['aalt' ('DFLT' <'dflt' > 'latn' <'CAT ' 'MOL ' 'NLD ' 'ROM ' 'dflt' > ) ]
Lookup: 1 0 0 "'ss01' Style Set 1 in Latin lookup 2" { "'ss01' Style Set 1 in Latin lookup 2 subtable"  } ['ss01' ('DFLT' <'dflt' > 'latn' <'CAT ' 'MOL ' 'NLD ' 'ROM ' 'dflt' > ) ]
Lookup: 1 0 0 "'ss02' Style Set 2 in Latin lookup 3" { "'ss02' Style Set 2 in Latin lookup 3 subtable"  } ['ss02' ('DFLT' <'dflt' > 'latn' <'CAT ' 'MOL ' 'NLD ' 'ROM ' 'dflt' > ) ]

StartChar: A
Encoding: 65 65 4
Width: 612
Flags: W
LayerCount: 2
Fore
SplineSet
425 150 m 1,0,-1
 187 150 l 1,1,-1
 153 0 l 1,2,-1
 15 0 l 1,3,-1
 182 700 l 1,4,-1
 430 700 l 1,5,-1
 597 0 l 1,6,-1
 459 0 l 1,7,-1
 425 150 l 1,0,-1
215 276 m 1,8,-1
 396 276 l 1,9,-1
 315 634 l 1,10,-1
 297 634 l 1,11,-1
 215 276 l 1,8,-1
EndSplineSet
EndChar

StartChar: B
Encoding: 66 66 5
Width: 612
Flags: W
LayerCount: 2
Fore
SplineSet
46 126 m 1,0,-1
 112 126 l 1,1,-1
 112 574 l 1,2,-1
 46 574 l 1,3,-1
 46 700 l 1,4,-1
 353 700 l 2,5,6
 403 700 403 700 441.5 686 c 128,-1,7
 480 672 480 672 506.5 648 c 128,-1,8
 533 624 533 624 546.5 590.5 c 128,-1,9
 560 557 560 557 560 518 c 2,10,-1
 560 506 l 2,11,12
 560 446 560 446 526.5 410 c 128,-1,13
 493 374 493 374 442 360 c 1,14,-1
 442 342 l 1,15,16
 493 328 493 328 526.5 291.5 c 128,-1,17
 560 255 560 255 560 195 c 2,18,-1
 560 183 l 2,19,20
 560 144 560 144 546.5 110.5 c 128,-1,21
 533 77 533 77 506.5 52.5 c 128,-1,22
 480 28 480 28 441.5 14 c 128,-1,23
 403 0 403 0 353 0 c 2,24,-1
 46 0 l 1,25,-1
 46 126 l 1,0,-1
244 126 m 1,26,-1
 340 126 l 2,27,28
 382 126 382 126 408 144 c 128,-1,29
 434 162 434 162 434 204 c 2,30,-1
 434 210 l 2,31,32
 434 252 434 252 408 270 c 128,-1,33
 382 288 382 288 340 288 c 2,34,-1
 244 288 l 1,35,-1
 244 126 l 1,26,-1
244 414 m 1,36,-1
 340 414 l 2,37,38
 382 414 382 414 408 431.5 c 128,-1,39
 434 449 434 449 434 491 c 2,40,-1
 434 497 l 2,41,42
 434 539 434 539 408 556.5 c 128,-1,43
 382 574 382 574 340 574 c 2,44,-1
 244 574 l 1,45,-1
 244 414 l 1,36,-1
EndSplineSet
Substitution2: "'ss01' Style Set 1 in Latin lookup 2 subtable" B.alt
Substitution2: "'aalt' Access All Alternates in Latin lookup 0 subtable" B.alt
EndChar

StartChar: C
Encoding: 67 67 6
Width: 612
Flags: W
LayerCount: 2
Fore
SplineSet
308 106 m 0,0,1
 346 106 346 106 370.5 117.5 c 128,-1,2
 395 129 395 129 408.5 148.5 c 128,-1,3
 422 168 422 168 427 193.5 c 128,-1,4
 432 219 432 219 432 246 c 2,5,-1
 432 264 l 1,6,-1
 564 264 l 1,7,-1
 564 246 l 2,8,9
 564 121 564 121 498.5 53.5 c 128,-1,10
 433 -14 433 -14 308 -14 c 0,11,12
 188 -14 188 -14 118 59 c 128,-1,13
 48 132 48 132 48 272 c 2,14,-1
 48 428 l 2,15,16
 48 495 48 495 66 548.5 c 128,-1,17
 84 602 84 602 118 638.5 c 128,-1,18
 152 675 152 675 200 694.5 c 128,-1,19
 248 714 248 714 308 714 c 0,20,21
 370 714 370 714 418 696 c 128,-1,22
 466 678 466 678 498.5 644 c 128,-1,23
 531 610 531 610 547.5 562 c 128,-1,24
 564 514 564 514 564 454 c 2,25,-1
 564 436 l 1,26,-1
 432 436 l 1,27,-1
 432 454 l 2,28,29
 432 479 432 479 426 504 c 128,-1,30
 420 529 420 529 406 549 c 128,-1,31
 392 569 392 569 368 581.5 c 128,-1,32
 344 594 344 594 308 594 c 0,33,34
 275 594 275 594 251 581.5 c 128,-1,35
 227 569 227 569 211 547.5 c 128,-1,36
 195 526 195 526 187.5 497.5 c 128,-1,37
 180 469 180 469 180 438 c 2,38,-1
 180 262 l 2,39,40
 180 228 180 228 187 199.5 c 128,-1,41
 194 171 194 171 209 150 c 128,-1,42
 224 129 224 129 248.5 117.5 c 128,-1,43
 273 106 273 106 308 106 c 0,0,1
EndSplineSet
EndChar

StartChar: D
Encoding: 68 68 7
Width: 612
Flags: W
LayerCount: 2
Fore
SplineSet
46 700 m 1,0,-1
 300 700 l 2,1,2
 430 700 430 700 493 639.5 c 128,-1,3
 556 579 556 579 556 452 c 2,4,-1
 556 248 l 2,5,6
 556 121 556 121 493 60.5 c 128,-1,7
 430 0 430 0 300 0 c 2,8,-1
 46 0 l 1,9,-1
 46 127 l 1,10,-1
 112 127 l 1,11,-1
 112 574 l 1,12,-1
 46 574 l 1,13,-1
 46 700 l 1,0,-1
300 126 m 2,14,15
 369 126 369 126 396.5 158.5 c 128,-1,16
 424 191 424 191 424 260 c 2,17,-1
 424 452 l 2,18,19
 424 512 424 512 396.5 543 c 128,-1,20
 369 574 369 574 300 574 c 2,21,-1
 244 574 l 1,22,-1
 244 126 l 1,23,-1
 300 126 l 2,14,15
EndSplineSet
Substitution2: "'ss01' Style Set 1 in Latin lookup 2 subtable" D.alt
Substitution2: "'aalt' Access All Alternates in Latin lookup 0 subtable" D.alt
EndChar

StartChar: E
Encoding: 69 69 8
Width: 612
Flags: W
LayerCount: 2
Fore
SplineSet
82 700 m 1,0,-1
 524 700 l 1,1,-1
 524 574 l 1,2,-1
 214 574 l 1,3,-1
 214 414 l 1,4,-1
 512 414 l 1,5,-1
 512 288 l 1,6,-1
 214 288 l 1,7,-1
 214 126 l 1,8,-1
 536 126 l 1,9,-1
 536 0 l 1,10,-1
 82 0 l 1,11,-1
 82 700 l 1,0,-1
EndSplineSet
EndChar

StartChar: F
Encoding: 70 70 9
Width: 612
Flags: W
LayerCount: 2
Fore
SplineSet
88 700 m 1,0,-1
 536 700 l 1,1,-1
 536 574 l 1,2,-1
 220 574 l 1,3,-1
 220 414 l 1,4,-1
 530 414 l 1,5,-1
 530 288 l 1,6,-1
 220 288 l 1,7,-1
 220 0 l 1,8,-1
 88 0 l 1,9,-1
 88 700 l 1,0,-1
EndSplineSet
EndChar

StartChar: G
Encoding: 71 71 10
Width: 612
Flags: W
LayerCount: 2
Fore
SplineSet
260 354 m 1,0,-1
 560 354 l 1,1,-1
 560 0 l 1,2,-1
 440 0 l 1,3,-1
 440 78 l 1,4,-1
 422 78 l 1,5,6
 410 39 410 39 376 12.5 c 128,-1,7
 342 -14 342 -14 274 -14 c 0,8,9
 226 -14 226 -14 184 4 c 128,-1,10
 142 22 142 22 111 57.5 c 128,-1,11
 80 93 80 93 62 145.5 c 128,-1,12
 44 198 44 198 44 268 c 2,13,-1
 44 432 l 2,14,15
 44 500 44 500 63.5 552.5 c 128,-1,16
 83 605 83 605 117.5 641 c 128,-1,17
 152 677 152 677 200 695.5 c 128,-1,18
 248 714 248 714 306 714 c 0,19,20
 366 714 366 714 413 694.5 c 128,-1,21
 460 675 460 675 493 640.5 c 128,-1,22
 526 606 526 606 543 559.5 c 128,-1,23
 560 513 560 513 560 460 c 2,24,-1
 560 448 l 1,25,-1
 428 448 l 1,26,-1
 428 460 l 2,27,28
 428 523 428 523 395.5 555.5 c 128,-1,29
 363 588 363 588 304 588 c 0,30,31
 248 588 248 588 212 550.5 c 128,-1,32
 176 513 176 513 176 422 c 2,33,-1
 176 274 l 2,34,35
 176 112 176 112 308 112 c 0,36,37
 367 112 367 112 397.5 143.5 c 128,-1,38
 428 175 428 175 428 228 c 1,39,-1
 260 228 l 1,40,-1
 260 354 l 1,0,-1
EndSplineSet
EndChar

StartChar: H
Encoding: 72 72 11
Width: 612
Flags: W
LayerCount: 2
Fore
SplineSet
61 700 m 1,0,-1
 193 700 l 1,1,-1
 193 414 l 1,2,-1
 419 414 l 1,3,-1
 419 700 l 1,4,-1
 551 700 l 1,5,-1
 551 0 l 1,6,-1
 419 0 l 1,7,-1
 419 288 l 1,8,-1
 193 288 l 1,9,-1
 193 0 l 1,10,-1
 61 0 l 1,11,-1
 61 700 l 1,0,-1
EndSplineSet
EndChar

StartChar: I
Encoding: 73 73 12
Width: 612
Flags: W
LayerCount: 2
Fore
SplineSet
72 700 m 1,0,-1
 540 700 l 1,1,-1
 540 574 l 1,2,-1
 372 574 l 1,3,-1
 372 126 l 1,4,-1
 540 126 l 1,5,-1
 540 0 l 1,6,-1
 72 0 l 1,7,-1
 72 126 l 1,8,-1
 240 126 l 1,9,-1
 240 574 l 1,10,-1
 72 574 l 1,11,-1
 72 700 l 1,0,-1
EndSplineSet
EndChar

StartChar: J
Encoding: 74 74 13
Width: 612
Flags: W
LayerCount: 2
Fore
SplineSet
517 210 m 2,0,1
 517 101 517 101 458 43.5 c 128,-1,2
 399 -14 399 -14 296 -14 c 0,3,4
 243 -14 243 -14 200 0.5 c 128,-1,5
 157 15 157 15 126 43.5 c 128,-1,6
 95 72 95 72 78 113.5 c 128,-1,7
 61 155 61 155 61 210 c 2,8,-1
 61 276 l 1,9,-1
 193 276 l 1,10,-1
 193 210 l 2,11,12
 193 163 193 163 219 136.5 c 128,-1,13
 245 110 245 110 292 110 c 0,14,15
 336 110 336 110 360.5 136 c 128,-1,16
 385 162 385 162 385 210 c 2,17,-1
 385 576 l 1,18,-1
 313 576 l 1,19,-1
 313 700 l 1,20,-1
 577 700 l 1,21,-1
 577 576 l 1,22,-1
 517 576 l 1,23,-1
 517 210 l 2,0,1
EndSplineSet
Substitution2: "'ss01' Style Set 1 in Latin lookup 2 subtable" J.alt
Substitution2: "'aalt' Access All Alternates in Latin lookup 0 subtable" J.alt
EndChar

StartChar: K
Encoding: 75 75 14
Width: 612
Flags: W
LayerCount: 2
Fore
SplineSet
209 0 m 1,0,-1
 77 0 l 1,1,-1
 77 700 l 1,2,-1
 209 700 l 1,3,-1
 209 413 l 1,4,-1
 238 413 l 1,5,-1
 423 700 l 1,6,-1
 572 700 l 1,7,-1
 572 694 l 1,8,-1
 356 359 l 1,9,-1
 356 341 l 1,10,-1
 584 6 l 1,11,-1
 584 0 l 1,12,-1
 429 0 l 1,13,-1
 238 287 l 1,14,-1
 209 287 l 1,15,-1
 209 0 l 1,0,-1
EndSplineSet
EndChar

StartChar: L
Encoding: 76 76 15
Width: 612
Flags: W
LayerCount: 2
Fore
SplineSet
82 700 m 1,0,-1
 214 700 l 1,1,-1
 214 126 l 1,2,-1
 532 126 l 1,3,-1
 532 0 l 1,4,-1
 82 0 l 1,5,-1
 82 700 l 1,0,-1
EndSplineSet
EndChar

StartChar: M
Encoding: 77 77 16
Width: 612
Flags: W
LayerCount: 2
Fore
SplineSet
22 700 m 1,0,-1
 254 700 l 1,1,-1
 294 174 l 1,2,-1
 294 72 l 1,3,-1
 318 72 l 1,4,-1
 318 174 l 1,5,-1
 358 700 l 1,6,-1
 590 700 l 1,7,-1
 590 0 l 1,8,-1
 470 0 l 1,9,-1
 470 468 l 1,10,-1
 482 628 l 1,11,-1
 458 628 l 1,12,-1
 406 0 l 1,13,-1
 208 0 l 1,14,-1
 154 628 l 1,15,-1
 130 628 l 1,16,-1
 142 468 l 1,17,-1
 142 0 l 1,18,-1
 22 0 l 1,19,-1
 22 700 l 1,0,-1
EndSplineSet
EndChar

StartChar: N
Encoding: 78 78 17
Width: 612
Flags: W
LayerCount: 2
Fore
SplineSet
401 66 m 1,0,-1
 419 66 l 1,1,-1
 419 700 l 1,2,-1
 551 700 l 1,3,-1
 551 0 l 1,4,-1
 293 0 l 1,5,-1
 211 634 l 1,6,-1
 193 634 l 1,7,-1
 193 0 l 1,8,-1
 61 0 l 1,9,-1
 61 700 l 1,10,-1
 319 700 l 1,11,-1
 401 66 l 1,0,-1
EndSplineSet
EndChar

StartChar: O
Encoding: 79 79 18
Width: 612
Flags: W
LayerCount: 2
Fore
SplineSet
48 428 m 2,0,1
 48 564 48 564 116.5 639 c 128,-1,2
 185 714 185 714 306 714 c 256,3,4
 427 714 427 714 495.5 639 c 128,-1,5
 564 564 564 564 564 428 c 2,6,-1
 564 272 l 2,7,8
 564 132 564 132 495.5 59 c 128,-1,9
 427 -14 427 -14 306 -14 c 256,10,11
 185 -14 185 -14 116.5 59 c 128,-1,12
 48 132 48 132 48 272 c 2,13,-1
 48 428 l 2,0,1
306 106 m 256,14,15
 342 106 342 106 366 117.5 c 128,-1,16
 390 129 390 129 405 150 c 128,-1,17
 420 171 420 171 426 200 c 128,-1,18
 432 229 432 229 432 264 c 2,19,-1
 432 436 l 2,20,21
 432 469 432 469 425 498 c 128,-1,22
 418 527 418 527 403 548 c 128,-1,23
 388 569 388 569 364 581.5 c 128,-1,24
 340 594 340 594 306 594 c 256,25,26
 272 594 272 594 248 581.5 c 128,-1,27
 224 569 224 569 209 548 c 128,-1,28
 194 527 194 527 187 498 c 128,-1,29
 180 469 180 469 180 436 c 2,30,-1
 180 264 l 2,31,32
 180 229 180 229 186 200 c 128,-1,33
 192 171 192 171 207 150 c 128,-1,34
 222 129 222 129 246 117.5 c 128,-1,35
 270 106 270 106 306 106 c 256,14,15
EndSplineSet
EndChar

StartChar: P
Encoding: 80 80 19
Width: 612
Flags: W
LayerCount: 2
Fore
SplineSet
204 264 m 1,0,-1
 204 0 l 1,1,-1
 72 0 l 1,2,-1
 72 700 l 1,3,-1
 346 700 l 2,4,5
 400 700 400 700 440 682.5 c 128,-1,6
 480 665 480 665 506.5 636.5 c 128,-1,7
 533 608 533 608 546.5 571.5 c 128,-1,8
 560 535 560 535 560 497 c 2,9,-1
 560 473 l 2,10,11
 560 434 560 434 546.5 396.5 c 128,-1,12
 533 359 533 359 506.5 329.5 c 128,-1,13
 480 300 480 300 440 282 c 128,-1,14
 400 264 400 264 346 264 c 2,15,-1
 204 264 l 1,0,-1
204 390 m 1,16,-1
 333 390 l 2,17,18
 377 390 377 390 402.5 414 c 128,-1,19
 428 438 428 438 428 476 c 2,20,-1
 428 488 l 2,21,22
 428 526 428 526 402.5 550 c 128,-1,23
 377 574 377 574 333 574 c 2,24,-1
 204 574 l 1,25,-1
 204 390 l 1,16,-1
EndSplineSet
EndChar

StartChar: Q
Encoding: 81 81 20
Width: 612
Flags: W
LayerCount: 2
Fore
SplineSet
243 -8 m 1,0,1
 150 9 150 9 99 80 c 128,-1,2
 48 151 48 151 48 272 c 2,3,-1
 48 428 l 2,4,5
 48 564 48 564 116.5 639 c 128,-1,6
 185 714 185 714 306 714 c 256,7,8
 427 714 427 714 495.5 639 c 128,-1,9
 564 564 564 564 564 428 c 2,10,-1
 564 272 l 2,11,12
 564 151 564 151 512.5 80 c 128,-1,13
 461 9 461 9 369 -8 c 1,14,-1
 369 -26 l 2,15,16
 369 -54 369 -54 394 -54 c 2,17,-1
 456 -54 l 1,18,-1
 456 -174 l 1,19,-1
 338 -174 l 2,20,21
 297 -174 297 -174 270 -146.5 c 128,-1,22
 243 -119 243 -119 243 -78 c 2,23,-1
 243 -8 l 1,0,1
306 106 m 256,24,25
 342 106 342 106 366 118 c 128,-1,26
 390 130 390 130 405 151 c 128,-1,27
 420 172 420 172 426 201.5 c 128,-1,28
 432 231 432 231 432 266 c 2,29,-1
 432 434 l 2,30,31
 432 467 432 467 425 496 c 128,-1,32
 418 525 418 525 403 547 c 128,-1,33
 388 569 388 569 364 581.5 c 128,-1,34
 340 594 340 594 306 594 c 256,35,36
 272 594 272 594 248 581.5 c 128,-1,37
 224 569 224 569 209 547 c 128,-1,38
 194 525 194 525 187 496 c 128,-1,39
 180 467 180 467 180 434 c 2,40,-1
 180 266 l 2,41,42
 180 231 180 231 186 201.5 c 128,-1,43
 192 172 192 172 207 151 c 128,-1,44
 222 130 222 130 246 118 c 128,-1,45
 270 106 270 106 306 106 c 256,24,25
EndSplineSet
EndChar

StartChar: R
Encoding: 82 82 21
Width: 612
Flags: W
LayerCount: 2
Fore
SplineSet
543 0 m 1,0,-1
 411 0 l 1,1,-1
 411 210 l 2,2,3
 411 234 411 234 398.5 249 c 128,-1,4
 386 264 386 264 357 264 c 2,5,-1
 205 264 l 1,6,-1
 205 0 l 1,7,-1
 73 0 l 1,8,-1
 73 700 l 1,9,-1
 341 700 l 2,10,11
 395 700 395 700 436 685 c 128,-1,12
 477 670 477 670 504.5 643.5 c 128,-1,13
 532 617 532 617 546.5 582 c 128,-1,14
 561 547 561 547 561 507 c 2,15,-1
 561 483 l 2,16,17
 561 440 561 440 538 402.5 c 128,-1,18
 515 365 515 365 467 345 c 1,19,-1
 467 327 l 1,20,21
 502 323 502 323 522.5 300 c 128,-1,22
 543 277 543 277 543 242 c 2,23,-1
 543 0 l 1,0,-1
205 390 m 1,24,-1
 331 390 l 2,25,26
 379 390 379 390 404 412.5 c 128,-1,27
 429 435 429 435 429 476 c 2,28,-1
 429 488 l 2,29,30
 429 523 429 523 404 548.5 c 128,-1,31
 379 574 379 574 331 574 c 2,32,-1
 205 574 l 1,33,-1
 205 390 l 1,24,-1
EndSplineSet
EndChar

StartChar: S
Encoding: 83 83 22
Width: 612
Flags: W
LayerCount: 2
Fore
SplineSet
426 486 m 2,0,1
 426 528 426 528 393.5 559 c 128,-1,2
 361 590 361 590 302 590 c 0,3,4
 252 590 252 590 223 569.5 c 128,-1,5
 194 549 194 549 194 514 c 0,6,7
 194 496 194 496 201 481.5 c 128,-1,8
 208 467 208 467 225.5 455.5 c 128,-1,9
 243 444 243 444 271.5 435 c 128,-1,10
 300 426 300 426 344 418 c 0,11,12
 454 398 454 398 512 351 c 128,-1,13
 570 304 570 304 570 212 c 2,14,-1
 570 200 l 2,15,16
 570 151 570 151 552.5 111.5 c 128,-1,17
 535 72 535 72 502 44 c 128,-1,18
 469 16 469 16 422 1 c 128,-1,19
 375 -14 375 -14 316 -14 c 0,20,21
 247 -14 247 -14 194.5 5.5 c 128,-1,22
 142 25 142 25 107 59.5 c 128,-1,23
 72 94 72 94 54 140.5 c 128,-1,24
 36 187 36 187 36 242 c 2,25,-1
 36 272 l 1,26,-1
 168 272 l 1,27,-1
 168 248 l 2,28,29
 168 185 168 185 204.5 147.5 c 128,-1,30
 241 110 241 110 318 110 c 0,31,32
 378 110 378 110 407 136 c 128,-1,33
 436 162 436 162 436 198 c 0,34,35
 436 215 436 215 430 230.5 c 128,-1,36
 424 246 424 246 409 258.5 c 128,-1,37
 394 271 394 271 368 281 c 128,-1,38
 342 291 342 291 302 298 c 0,39,40
 249 307 249 307 205 321.5 c 128,-1,41
 161 336 161 336 128.5 360 c 128,-1,42
 96 384 96 384 78 420 c 128,-1,43
 60 456 60 456 60 508 c 2,44,-1
 60 514 l 2,45,46
 60 557 60 557 77.5 593.5 c 128,-1,47
 95 630 95 630 126.5 657 c 128,-1,48
 158 684 158 684 202.5 699 c 128,-1,49
 247 714 247 714 302 714 c 0,50,51
 364 714 364 714 412 696.5 c 128,-1,52
 460 679 460 679 492.5 649 c 128,-1,53
 525 619 525 619 541.5 580 c 128,-1,54
 558 541 558 541 558 498 c 2,55,-1
 558 462 l 1,56,-1
 426 462 l 1,57,-1
 426 486 l 2,0,1
EndSplineSet
EndChar

StartChar: T
Encoding: 84 84 23
Width: 612
Flags: W
LayerCount: 2
Fore
SplineSet
54 700 m 1,0,-1
 558 700 l 1,1,-1
 558 574 l 1,2,-1
 372 574 l 1,3,-1
 372 0 l 1,4,-1
 240 0 l 1,5,-1
 240 574 l 1,6,-1
 54 574 l 1,7,-1
 54 700 l 1,0,-1
EndSplineSet
EndChar

StartChar: U
Encoding: 85 85 24
Width: 612
Flags: W
LayerCount: 2
Fore
SplineSet
558 700 m 1,0,-1
 558 242 l 2,1,2
 558 122 558 122 494.5 54 c 128,-1,3
 431 -14 431 -14 306 -14 c 256,4,5
 181 -14 181 -14 117.5 54 c 128,-1,6
 54 122 54 122 54 242 c 2,7,-1
 54 700 l 1,8,-1
 186 700 l 1,9,-1
 186 242 l 2,10,11
 186 180 186 180 215 145 c 128,-1,12
 244 110 244 110 306 110 c 256,13,14
 368 110 368 110 397 145 c 128,-1,15
 426 180 426 180 426 242 c 2,16,-1
 426 700 l 1,17,-1
 558 700 l 1,0,-1
EndSplineSet
EndChar

StartChar: V
Encoding: 86 86 25
Width: 612
Flags: W
LayerCount: 2
Fore
SplineSet
24 700 m 1,0,-1
 160 700 l 1,1,-1
 297 66 l 1,2,-1
 315 66 l 1,3,-1
 452 700 l 1,4,-1
 588 700 l 1,5,-1
 430 0 l 1,6,-1
 182 0 l 1,7,-1
 24 700 l 1,0,-1
EndSplineSet
EndChar

StartChar: W
Encoding: 87 87 26
Width: 612
Flags: W
LayerCount: 2
Fore
SplineSet
580 0 m 1,0,-1
 350 0 l 1,1,-1
 318 532 l 1,2,-1
 318 628 l 1,3,-1
 294 628 l 1,4,-1
 294 532 l 1,5,-1
 262 0 l 1,6,-1
 32 0 l 1,7,-1
 8 700 l 1,8,-1
 128 700 l 1,9,-1
 144 168 l 1,10,-1
 144 78 l 1,11,-1
 168 78 l 1,12,-1
 168 168 l 1,13,-1
 200 700 l 1,14,-1
 412 700 l 1,15,-1
 444 168 l 1,16,-1
 444 78 l 1,17,-1
 468 78 l 1,18,-1
 468 168 l 1,19,-1
 484 700 l 1,20,-1
 604 700 l 1,21,-1
 580 0 l 1,0,-1
EndSplineSet
EndChar

StartChar: X
Encoding: 88 88 27
Width: 612
Flags: W
LayerCount: 2
Fore
SplineSet
176 700 m 1,0,-1
 294 414 l 1,1,-1
 318 414 l 1,2,-1
 436 700 l 1,3,-1
 579 700 l 1,4,-1
 435 360 l 1,5,-1
 435 342 l 1,6,-1
 579 0 l 1,7,-1
 436 0 l 1,8,-1
 318 288 l 1,9,-1
 294 288 l 1,10,-1
 176 0 l 1,11,-1
 33 0 l 1,12,-1
 177 342 l 1,13,-1
 177 360 l 1,14,-1
 33 700 l 1,15,-1
 176 700 l 1,0,-1
EndSplineSet
EndChar

StartChar: Y
Encoding: 89 89 28
Width: 612
Flags: W
LayerCount: 2
Fore
SplineSet
240 246 m 1,0,-1
 210 246 l 1,1,-1
 9 700 l 1,2,-1
 153 700 l 1,3,-1
 297 366 l 1,4,-1
 315 366 l 1,5,-1
 459 700 l 1,6,-1
 603 700 l 1,7,-1
 402 246 l 1,8,-1
 372 246 l 1,9,-1
 372 0 l 1,10,-1
 240 0 l 1,11,-1
 240 246 l 1,0,-1
EndSplineSet
EndChar

StartChar: Z
Encoding: 90 90 29
Width: 612
Flags: W
LayerCount: 2
Fore
SplineSet
53 700 m 1,0,-1
 551 700 l 1,1,-1
 551 484 l 1,2,-1
 155 144 l 1,3,-1
 155 126 l 1,4,-1
 563 126 l 1,5,-1
 563 0 l 1,6,-1
 47 0 l 1,7,-1
 47 216 l 1,8,-1
 443 556 l 1,9,-1
 443 574 l 1,10,-1
 53 574 l 1,11,-1
 53 700 l 1,0,-1
EndSplineSet
EndChar

StartChar: a
Encoding: 97 97 30
Width: 612
Flags: W
LayerCount: 2
Fore
SplineSet
399 72 m 1,0,1
 379 25 379 25 343 5.5 c 128,-1,2
 307 -14 307 -14 259 -14 c 0,3,4
 214 -14 214 -14 174.5 3 c 128,-1,5
 135 20 135 20 105 53 c 128,-1,6
 75 86 75 86 57.5 133 c 128,-1,7
 40 180 40 180 40 240 c 2,8,-1
 40 256 l 2,9,10
 40 315 40 315 57 362 c 128,-1,11
 74 409 74 409 103 442 c 128,-1,12
 132 475 132 475 170.5 492.5 c 128,-1,13
 209 510 209 510 253 510 c 0,14,15
 306 510 306 510 338.5 492 c 128,-1,16
 371 474 371 474 390 436 c 1,17,-1
 408 436 l 1,18,-1
 408 496 l 1,19,-1
 534 496 l 1,20,-1
 534 150 l 2,21,22
 534 120 534 120 561 120 c 2,23,-1
 580 120 l 1,24,-1
 580 0 l 1,25,-1
 494 0 l 2,26,27
 460 0 460 0 438.5 20 c 128,-1,28
 417 40 417 40 417 72 c 1,29,-1
 399 72 l 1,0,1
287 106 m 256,30,31
 342 106 342 106 375 142.5 c 128,-1,32
 408 179 408 179 408 242 c 2,33,-1
 408 254 l 2,34,35
 408 317 408 317 375 353.5 c 128,-1,36
 342 390 342 390 287 390 c 256,37,38
 232 390 232 390 199 353.5 c 128,-1,39
 166 317 166 317 166 254 c 2,40,-1
 166 242 l 2,41,42
 166 179 166 179 199 142.5 c 128,-1,43
 232 106 232 106 287 106 c 256,30,31
EndSplineSet
Substitution2: "'ordn' Ordinals in Latin lookup 29 subtable" ordfeminine
Substitution2: "'ordn' Ordinals in Latin lookup 28 subtable" ordfeminine
Substitution2: "'ss02' Style Set 2 in Latin lookup 3 subtable" a.alt
AlternateSubs2: "'aalt' Access All Alternates in Latin lookup 1 subtable" a.alt ordfeminine
EndChar

StartChar: b
Encoding: 98 98 31
Width: 612
Flags: W
LayerCount: 2
Fore
SplineSet
183 0 m 1,0,-1
 57 0 l 1,1,-1
 57 700 l 1,2,-1
 183 700 l 1,3,-1
 183 424 l 1,4,-1
 201 424 l 1,5,6
 221 465 221 465 259 487.5 c 128,-1,7
 297 510 297 510 356 510 c 0,8,9
 400 510 400 510 439.5 493 c 128,-1,10
 479 476 479 476 508.5 443.5 c 128,-1,11
 538 411 538 411 555.5 364 c 128,-1,12
 573 317 573 317 573 257 c 2,13,-1
 573 239 l 2,14,15
 573 178 573 178 556 131 c 128,-1,16
 539 84 539 84 510 51.5 c 128,-1,17
 481 19 481 19 441.5 2.5 c 128,-1,18
 402 -14 402 -14 356 -14 c 0,19,20
 322 -14 322 -14 297 -7 c 128,-1,21
 272 0 272 0 253.5 12 c 128,-1,22
 235 24 235 24 222.5 39.5 c 128,-1,23
 210 55 210 55 201 72 c 1,24,-1
 183 72 l 1,25,-1
 183 0 l 1,0,-1
315 106 m 256,26,27
 374 106 374 106 410.5 142.5 c 128,-1,28
 447 179 447 179 447 242 c 2,29,-1
 447 254 l 2,30,31
 447 317 447 317 410.5 353.5 c 128,-1,32
 374 390 374 390 315 390 c 256,33,34
 256 390 256 390 219.5 352.5 c 128,-1,35
 183 315 183 315 183 254 c 2,36,-1
 183 242 l 2,37,38
 183 181 183 181 219.5 143.5 c 128,-1,39
 256 106 256 106 315 106 c 256,26,27
EndSplineSet
EndChar

StartChar: c
Encoding: 99 99 32
Width: 612
Flags: W
LayerCount: 2
Fore
SplineSet
562 182 m 1,0,1
 545 94 545 94 481.5 40 c 128,-1,2
 418 -14 418 -14 312 -14 c 0,3,4
 257 -14 257 -14 209.5 3 c 128,-1,5
 162 20 162 20 127 52 c 128,-1,6
 92 84 92 84 72 131 c 128,-1,7
 52 178 52 178 52 238 c 2,8,-1
 52 250 l 2,9,10
 52 310 52 310 72 358 c 128,-1,11
 92 406 92 406 127.5 440 c 128,-1,12
 163 474 163 474 210.5 492 c 128,-1,13
 258 510 258 510 312 510 c 0,14,15
 416 510 416 510 480.5 456 c 128,-1,16
 545 402 545 402 562 314 c 1,17,-1
 438 282 l 1,18,19
 432 326 432 326 400 358 c 128,-1,20
 368 390 368 390 310 390 c 0,21,22
 283 390 283 390 259 380 c 128,-1,23
 235 370 235 370 217 351.5 c 128,-1,24
 199 333 199 333 188.5 306.5 c 128,-1,25
 178 280 178 280 178 247 c 2,26,-1
 178 241 l 2,27,28
 178 208 178 208 188.5 182.5 c 128,-1,29
 199 157 199 157 217 140 c 128,-1,30
 235 123 235 123 259 114.5 c 128,-1,31
 283 106 283 106 310 106 c 0,32,33
 368 106 368 106 398.5 135 c 128,-1,34
 429 164 429 164 438 213 c 1,35,-1
 562 182 l 1,0,1
EndSplineSet
EndChar

StartChar: d
Encoding: 100 100 33
Width: 612
Flags: W
LayerCount: 2
Fore
SplineSet
434 72 m 1,0,-1
 416 72 l 1,1,2
 408 55 408 55 396.5 39.5 c 128,-1,3
 385 24 385 24 366.5 12 c 128,-1,4
 348 0 348 0 322.5 -7 c 128,-1,5
 297 -14 297 -14 261 -14 c 0,6,7
 215 -14 215 -14 175.5 2.5 c 128,-1,8
 136 19 136 19 106.5 51.5 c 128,-1,9
 77 84 77 84 60.5 131 c 128,-1,10
 44 178 44 178 44 239 c 2,11,-1
 44 257 l 2,12,13
 44 317 44 317 61.5 364 c 128,-1,14
 79 411 79 411 109.5 443.5 c 128,-1,15
 140 476 140 476 180.5 493 c 128,-1,16
 221 510 221 510 266 510 c 0,17,18
 326 510 326 510 361 487.5 c 128,-1,19
 396 465 396 465 416 424 c 1,20,-1
 434 424 l 1,21,-1
 434 700 l 1,22,-1
 560 700 l 1,23,-1
 560 0 l 1,24,-1
 434 0 l 1,25,-1
 434 72 l 1,0,-1
302 106 m 256,26,27
 361 106 361 106 397.5 143.5 c 128,-1,28
 434 181 434 181 434 242 c 2,29,-1
 434 254 l 2,30,31
 434 315 434 315 397.5 352.5 c 128,-1,32
 361 390 361 390 302 390 c 256,33,34
 243 390 243 390 206.5 353.5 c 128,-1,35
 170 317 170 317 170 254 c 2,36,-1
 170 242 l 2,37,38
 170 179 170 179 206.5 142.5 c 128,-1,39
 243 106 243 106 302 106 c 256,26,27
EndSplineSet
EndChar

StartChar: e
Encoding: 101 101 34
Width: 612
Flags: W
LayerCount: 2
Fore
SplineSet
189 207 m 1,0,1
 190 185 190 185 199.5 166.5 c 128,-1,2
 209 148 209 148 225.5 134.5 c 128,-1,3
 242 121 242 121 263.5 113.5 c 128,-1,4
 285 106 285 106 309 106 c 0,5,6
 356 106 356 106 381 122.5 c 128,-1,7
 406 139 406 139 417 162 c 1,8,-1
 525 102 l 1,9,10
 516 83 516 83 500 62.5 c 128,-1,11
 484 42 484 42 458.5 25 c 128,-1,12
 433 8 433 8 396.5 -3 c 128,-1,13
 360 -14 360 -14 311 -14 c 0,14,15
 255 -14 255 -14 209 4 c 128,-1,16
 163 22 163 22 129.5 56 c 128,-1,17
 96 90 96 90 77.5 139 c 128,-1,18
 59 188 59 188 59 250 c 2,19,-1
 59 256 l 2,20,21
 59 313 59 313 78.5 360 c 128,-1,22
 98 407 98 407 132 440 c 128,-1,23
 166 473 166 473 211.5 491.5 c 128,-1,24
 257 510 257 510 309 510 c 0,25,26
 373 510 373 510 419 487.5 c 128,-1,27
 465 465 465 465 495 430.5 c 128,-1,28
 525 396 525 396 539 354.5 c 128,-1,29
 553 313 553 313 553 274 c 2,30,-1
 553 207 l 1,31,-1
 189 207 l 1,0,1
308 396 m 256,32,33
 260 396 260 396 230 371.5 c 128,-1,34
 200 347 200 347 191 315 c 1,35,-1
 425 315 l 1,36,37
 419 350 419 350 387.5 373 c 128,-1,38
 356 396 356 396 308 396 c 256,32,33
EndSplineSet
EndChar

StartChar: f
Encoding: 102 102 35
Width: 612
Flags: W
LayerCount: 2
Fore
SplineSet
74 496 m 1,0,-1
 215 496 l 1,1,-1
 215 598 l 2,2,3
 215 641 215 641 244 670.5 c 128,-1,4
 273 700 273 700 316 700 c 2,5,-1
 518 700 l 1,6,-1
 518 580 l 1,7,-1
 368 580 l 2,8,9
 341 580 341 580 341 550 c 2,10,-1
 341 496 l 1,11,-1
 536 496 l 1,12,-1
 536 376 l 1,13,-1
 341 376 l 1,14,-1
 341 0 l 1,15,-1
 215 0 l 1,16,-1
 215 376 l 1,17,-1
 74 376 l 1,18,-1
 74 496 l 1,0,-1
EndSplineSet
EndChar

StartChar: g
Encoding: 103 103 36
Width: 612
Flags: W
LayerCount: 2
Fore
SplineSet
432 72 m 1,0,-1
 414 72 l 1,1,2
 406 55 406 55 394.5 39.5 c 128,-1,3
 383 24 383 24 364.5 12 c 128,-1,4
 346 0 346 0 320.5 -7 c 128,-1,5
 295 -14 295 -14 259 -14 c 0,6,7
 213 -14 213 -14 173.5 2.5 c 128,-1,8
 134 19 134 19 104.5 51.5 c 128,-1,9
 75 84 75 84 58.5 131 c 128,-1,10
 42 178 42 178 42 239 c 2,11,-1
 42 257 l 2,12,13
 42 317 42 317 59.5 364 c 128,-1,14
 77 411 77 411 107.5 443.5 c 128,-1,15
 138 476 138 476 178.5 493 c 128,-1,16
 219 510 219 510 264 510 c 0,17,18
 324 510 324 510 359 487.5 c 128,-1,19
 394 465 394 465 414 424 c 1,20,-1
 432 424 l 1,21,-1
 432 496 l 1,22,-1
 558 496 l 1,23,-1
 558 -122 l 2,24,25
 558 -156 558 -156 536.5 -178 c 128,-1,26
 515 -200 515 -200 481 -200 c 2,27,-1
 147 -200 l 1,28,-1
 147 -80 l 1,29,-1
 405 -80 l 2,30,31
 432 -80 432 -80 432 -50 c 2,32,-1
 432 72 l 1,0,-1
300 106 m 256,33,34
 359 106 359 106 395.5 143.5 c 128,-1,35
 432 181 432 181 432 242 c 2,36,-1
 432 254 l 2,37,38
 432 315 432 315 395.5 352.5 c 128,-1,39
 359 390 359 390 300 390 c 256,40,41
 241 390 241 390 204.5 353.5 c 128,-1,42
 168 317 168 317 168 254 c 2,43,-1
 168 242 l 2,44,45
 168 179 168 179 204.5 142.5 c 128,-1,46
 241 106 241 106 300 106 c 256,33,34
EndSplineSet
Substitution2: "'ss02' Style Set 2 in Latin lookup 3 subtable" g.alt
Substitution2: "'aalt' Access All Alternates in Latin lookup 0 subtable" g.alt
EndChar

StartChar: h
Encoding: 104 104 37
Width: 612
Flags: W
LayerCount: 2
Fore
SplineSet
206 0 m 1,0,-1
 80 0 l 1,1,-1
 80 700 l 1,2,-1
 206 700 l 1,3,-1
 206 416 l 1,4,-1
 224 416 l 1,5,6
 243 461 243 461 280 485.5 c 128,-1,7
 317 510 317 510 371 510 c 0,8,9
 408 510 408 510 439 498 c 128,-1,10
 470 486 470 486 493 462 c 128,-1,11
 516 438 516 438 529 400.5 c 128,-1,12
 542 363 542 363 542 312 c 2,13,-1
 542 0 l 1,14,-1
 416 0 l 1,15,-1
 416 282 l 2,16,17
 416 335 416 335 390.5 365.5 c 128,-1,18
 365 396 365 396 317 396 c 0,19,20
 261 396 261 396 233.5 358.5 c 128,-1,21
 206 321 206 321 206 258 c 2,22,-1
 206 0 l 1,0,-1
EndSplineSet
EndChar

StartChar: i
Encoding: 105 105 38
Width: 612
Flags: W
LayerCount: 2
Fore
SplineSet
87 120 m 1,0,-1
 255 120 l 1,1,-1
 255 376 l 1,2,-1
 99 376 l 1,3,-1
 99 496 l 1,4,-1
 381 496 l 1,5,-1
 381 120 l 1,6,-1
 525 120 l 1,7,-1
 525 0 l 1,8,-1
 87 0 l 1,9,-1
 87 120 l 1,0,-1
412 643 m 256,10,11
 412 623 412 623 404.5 605.5 c 128,-1,12
 397 588 397 588 384 575.5 c 128,-1,13
 371 563 371 563 353.5 555.5 c 128,-1,14
 336 548 336 548 317 548 c 0,15,16
 297 548 297 548 280 555.5 c 128,-1,17
 263 563 263 563 250 575.5 c 128,-1,18
 237 588 237 588 229.5 605.5 c 128,-1,19
 222 623 222 623 222 643 c 256,20,21
 222 663 222 663 229.5 680.5 c 128,-1,22
 237 698 237 698 250 710.5 c 128,-1,23
 263 723 263 723 280 730.5 c 128,-1,24
 297 738 297 738 317 738 c 0,25,26
 336 738 336 738 353.5 730.5 c 128,-1,27
 371 723 371 723 384 710.5 c 128,-1,28
 397 698 397 698 404.5 680.5 c 128,-1,29
 412 663 412 663 412 643 c 256,10,11
EndSplineSet
Substitution2: "'ss02' Style Set 2 in Latin lookup 3 subtable" i.alt
Substitution2: "'aalt' Access All Alternates in Latin lookup 0 subtable" i.alt
EndChar

StartChar: j
Encoding: 106 106 39
Width: 612
Flags: W
LayerCount: 2
Fore
SplineSet
126 496 m 1,0,-1
 444 496 l 1,1,-1
 444 -98 l 2,2,3
 444 -150 444 -150 416 -175 c 128,-1,4
 388 -200 388 -200 343 -200 c 2,5,-1
 108 -200 l 1,6,-1
 108 -80 l 1,7,-1
 288 -80 l 2,8,9
 318 -80 318 -80 318 -47 c 2,10,-1
 318 376 l 1,11,-1
 126 376 l 1,12,-1
 126 496 l 1,0,-1
474 643 m 256,13,14
 474 623 474 623 466.5 605.5 c 128,-1,15
 459 588 459 588 446 575.5 c 128,-1,16
 433 563 433 563 415.5 555.5 c 128,-1,17
 398 548 398 548 379 548 c 0,18,19
 359 548 359 548 342 555.5 c 128,-1,20
 325 563 325 563 312 575.5 c 128,-1,21
 299 588 299 588 291.5 605.5 c 128,-1,22
 284 623 284 623 284 643 c 256,23,24
 284 663 284 663 291.5 680.5 c 128,-1,25
 299 698 299 698 312 710.5 c 128,-1,26
 325 723 325 723 342 730.5 c 128,-1,27
 359 738 359 738 379 738 c 0,28,29
 398 738 398 738 415.5 730.5 c 128,-1,30
 433 723 433 723 446 710.5 c 128,-1,31
 459 698 459 698 466.5 680.5 c 128,-1,32
 474 663 474 663 474 643 c 256,13,14
EndSplineSet
Substitution2: "'ss02' Style Set 2 in Latin lookup 3 subtable" j.alt
Substitution2: "'aalt' Access All Alternates in Latin lookup 0 subtable" j.alt
EndChar

StartChar: k
Encoding: 107 107 40
Width: 612
Flags: W
LayerCount: 2
Fore
SplineSet
244 314 m 1,0,-1
 268 314 l 1,1,-1
 400 496 l 1,2,-1
 538 496 l 1,3,-1
 538 490 l 1,4,-1
 378 263 l 1,5,-1
 378 245 l 1,6,-1
 554 6 l 1,7,-1
 554 0 l 1,8,-1
 410 0 l 1,9,-1
 268 194 l 1,10,-1
 244 194 l 1,11,-1
 244 0 l 1,12,-1
 118 0 l 1,13,-1
 118 700 l 1,14,-1
 244 700 l 1,15,-1
 244 314 l 1,0,-1
EndSplineSet
EndChar

StartChar: l
Encoding: 108 108 41
Width: 612
Flags: W
LayerCount: 2
Fore
SplineSet
75 120 m 1,0,-1
 249 120 l 1,1,-1
 249 580 l 1,2,-1
 81 580 l 1,3,-1
 81 700 l 1,4,-1
 375 700 l 1,5,-1
 375 120 l 1,6,-1
 537 120 l 1,7,-1
 537 0 l 1,8,-1
 75 0 l 1,9,-1
 75 120 l 1,0,-1
EndSplineSet
Substitution2: "'ss02' Style Set 2 in Latin lookup 3 subtable" l.alt
Substitution2: "'aalt' Access All Alternates in Latin lookup 0 subtable" l.alt
EndChar

StartChar: m
Encoding: 109 109 42
Width: 612
Flags: W
LayerCount: 2
Fore
SplineSet
576 0 m 1,0,-1
 450 0 l 1,1,-1
 450 348 l 2,2,3
 450 369 450 369 439.5 379.5 c 128,-1,4
 429 390 429 390 412 390 c 0,5,6
 392 390 392 390 380.5 378 c 128,-1,7
 369 366 369 366 369 342 c 2,8,-1
 369 0 l 1,9,-1
 243 0 l 1,10,-1
 243 348 l 2,11,12
 243 369 243 369 231.5 379.5 c 128,-1,13
 220 390 220 390 204 390 c 0,14,15
 186 390 186 390 174 378 c 128,-1,16
 162 366 162 366 162 342 c 2,17,-1
 162 0 l 1,18,-1
 36 0 l 1,19,-1
 36 496 l 1,20,-1
 162 496 l 1,21,-1
 162 448 l 1,22,-1
 180 448 l 1,23,24
 186 475 186 475 207.5 492.5 c 128,-1,25
 229 510 229 510 264 510 c 0,26,27
 297 510 297 510 320 492.5 c 128,-1,28
 343 475 343 475 351 448 c 1,29,-1
 369 448 l 1,30,31
 377 475 377 475 402.5 492.5 c 128,-1,32
 428 510 428 510 466 510 c 0,33,34
 516 510 516 510 546 476.5 c 128,-1,35
 576 443 576 443 576 384 c 2,36,-1
 576 0 l 1,0,-1
EndSplineSet
EndChar

StartChar: n
Encoding: 110 110 43
Width: 612
Flags: W
LayerCount: 2
Fore
SplineSet
204 0 m 1,0,-1
 78 0 l 1,1,-1
 78 496 l 1,2,-1
 204 496 l 1,3,-1
 204 422 l 1,4,-1
 222 422 l 1,5,6
 239 464 239 464 277 487 c 128,-1,7
 315 510 315 510 366 510 c 0,8,9
 402 510 402 510 433.5 498.5 c 128,-1,10
 465 487 465 487 489 463 c 128,-1,11
 513 439 513 439 526.5 402 c 128,-1,12
 540 365 540 365 540 314 c 2,13,-1
 540 0 l 1,14,-1
 414 0 l 1,15,-1
 414 282 l 2,16,17
 414 335 414 335 388.5 365.5 c 128,-1,18
 363 396 363 396 315 396 c 0,19,20
 259 396 259 396 231.5 358.5 c 128,-1,21
 204 321 204 321 204 258 c 2,22,-1
 204 0 l 1,0,-1
EndSplineSet
EndChar

StartChar: o
Encoding: 111 111 44
Width: 612
Flags: W
LayerCount: 2
Fore
SplineSet
564 242 m 2,0,1
 564 180 564 180 543 132.5 c 128,-1,2
 522 85 522 85 486 52.5 c 128,-1,3
 450 20 450 20 403.5 3 c 128,-1,4
 357 -14 357 -14 306 -14 c 256,5,6
 255 -14 255 -14 208.5 3 c 128,-1,7
 162 20 162 20 126 52.5 c 128,-1,8
 90 85 90 85 69 132.5 c 128,-1,9
 48 180 48 180 48 242 c 2,10,-1
 48 254 l 2,11,12
 48 315 48 315 69 362.5 c 128,-1,13
 90 410 90 410 126 443 c 128,-1,14
 162 476 162 476 208.5 493 c 128,-1,15
 255 510 255 510 306 510 c 256,16,17
 357 510 357 510 403.5 493 c 128,-1,18
 450 476 450 476 486 443 c 128,-1,19
 522 410 522 410 543 362.5 c 128,-1,20
 564 315 564 315 564 254 c 2,21,-1
 564 242 l 2,0,1
306 106 m 256,22,23
 333 106 333 106 357 115 c 128,-1,24
 381 124 381 124 399 141 c 128,-1,25
 417 158 417 158 427.5 182.5 c 128,-1,26
 438 207 438 207 438 238 c 2,27,-1
 438 258 l 2,28,29
 438 289 438 289 427.5 313.5 c 128,-1,30
 417 338 417 338 399 355 c 128,-1,31
 381 372 381 372 357 381 c 128,-1,32
 333 390 333 390 306 390 c 256,33,34
 279 390 279 390 255 381 c 128,-1,35
 231 372 231 372 213 355 c 128,-1,36
 195 338 195 338 184.5 313.5 c 128,-1,37
 174 289 174 289 174 258 c 2,38,-1
 174 238 l 2,39,40
 174 207 174 207 184.5 182.5 c 128,-1,41
 195 158 195 158 213 141 c 128,-1,42
 231 124 231 124 255 115 c 128,-1,43
 279 106 279 106 306 106 c 256,22,23
EndSplineSet
Substitution2: "'ordn' Ordinals in Latin lookup 29 subtable" ordmasculine
Substitution2: "'ordn' Ordinals in Latin lookup 28 subtable" ordmasculine
Substitution2: "'aalt' Access All Alternates in Latin lookup 0 subtable" ordmasculine
EndChar

StartChar: p
Encoding: 112 112 45
Width: 612
Flags: W
LayerCount: 2
Fore
SplineSet
178 -200 m 1,0,-1
 52 -200 l 1,1,-1
 52 496 l 1,2,-1
 178 496 l 1,3,-1
 178 424 l 1,4,-1
 196 424 l 1,5,6
 216 465 216 465 254 487.5 c 128,-1,7
 292 510 292 510 351 510 c 0,8,9
 395 510 395 510 434.5 493 c 128,-1,10
 474 476 474 476 503.5 443.5 c 128,-1,11
 533 411 533 411 550.5 364 c 128,-1,12
 568 317 568 317 568 257 c 2,13,-1
 568 239 l 2,14,15
 568 178 568 178 551 131 c 128,-1,16
 534 84 534 84 505 51.5 c 128,-1,17
 476 19 476 19 436.5 2.5 c 128,-1,18
 397 -14 397 -14 351 -14 c 0,19,20
 317 -14 317 -14 292 -7 c 128,-1,21
 267 0 267 0 248.5 12 c 128,-1,22
 230 24 230 24 217.5 39.5 c 128,-1,23
 205 55 205 55 196 72 c 1,24,-1
 178 72 l 1,25,-1
 178 -200 l 1,0,-1
310 106 m 256,26,27
 369 106 369 106 405.5 142.5 c 128,-1,28
 442 179 442 179 442 242 c 2,29,-1
 442 254 l 2,30,31
 442 317 442 317 405.5 353.5 c 128,-1,32
 369 390 369 390 310 390 c 256,33,34
 251 390 251 390 214.5 352.5 c 128,-1,35
 178 315 178 315 178 254 c 2,36,-1
 178 242 l 2,37,38
 178 181 178 181 214.5 143.5 c 128,-1,39
 251 106 251 106 310 106 c 256,26,27
EndSplineSet
EndChar

StartChar: q
Encoding: 113 113 46
Width: 612
Flags: W
LayerCount: 2
Fore
SplineSet
434 72 m 1,0,-1
 416 72 l 1,1,2
 408 55 408 55 396.5 39.5 c 128,-1,3
 385 24 385 24 366.5 12 c 128,-1,4
 348 0 348 0 322.5 -7 c 128,-1,5
 297 -14 297 -14 261 -14 c 0,6,7
 215 -14 215 -14 175.5 2.5 c 128,-1,8
 136 19 136 19 106.5 51.5 c 128,-1,9
 77 84 77 84 60.5 131 c 128,-1,10
 44 178 44 178 44 239 c 2,11,-1
 44 257 l 2,12,13
 44 317 44 317 61.5 364 c 128,-1,14
 79 411 79 411 109.5 443.5 c 128,-1,15
 140 476 140 476 180.5 493 c 128,-1,16
 221 510 221 510 266 510 c 0,17,18
 326 510 326 510 361 487.5 c 128,-1,19
 396 465 396 465 416 424 c 1,20,-1
 434 424 l 1,21,-1
 434 496 l 1,22,-1
 560 496 l 1,23,-1
 560 -200 l 1,24,-1
 434 -200 l 1,25,-1
 434 72 l 1,0,-1
302 106 m 256,26,27
 361 106 361 106 397.5 143.5 c 128,-1,28
 434 181 434 181 434 242 c 2,29,-1
 434 254 l 2,30,31
 434 315 434 315 397.5 352.5 c 128,-1,32
 361 390 361 390 302 390 c 256,33,34
 243 390 243 390 206.5 353.5 c 128,-1,35
 170 317 170 317 170 254 c 2,36,-1
 170 242 l 2,37,38
 170 179 170 179 206.5 142.5 c 128,-1,39
 243 106 243 106 302 106 c 256,26,27
EndSplineSet
EndChar

StartChar: r
Encoding: 114 114 47
Width: 612
Flags: W
LayerCount: 2
Fore
SplineSet
54 496 m 1,0,-1
 264 496 l 1,1,-1
 264 424 l 1,2,-1
 282 424 l 1,3,4
 296 465 296 465 329.5 487.5 c 128,-1,5
 363 510 363 510 410 510 c 0,6,7
 484 510 484 510 529 463.5 c 128,-1,8
 574 417 574 417 574 322 c 2,9,-1
 574 300 l 1,10,-1
 444 288 l 1,11,-1
 444 302 l 2,12,13
 444 343 444 343 423 367.5 c 128,-1,14
 402 392 402 392 360 392 c 256,15,16
 318 392 318 392 294 363 c 128,-1,17
 270 334 270 334 270 280 c 2,18,-1
 270 120 l 1,19,-1
 384 120 l 1,20,-1
 384 0 l 1,21,-1
 42 0 l 1,22,-1
 42 120 l 1,23,-1
 144 120 l 1,24,-1
 144 376 l 1,25,-1
 54 376 l 1,26,-1
 54 496 l 1,0,-1
EndSplineSet
Substitution2: "'ss02' Style Set 2 in Latin lookup 3 subtable" r.alt
Substitution2: "'aalt' Access All Alternates in Latin lookup 0 subtable" r.alt
EndChar

StartChar: s
Encoding: 115 115 48
Width: 612
Flags: W
LayerCount: 2
Fore
SplineSet
236 356 m 0,0,1
 236 332 236 332 261 321.5 c 128,-1,2
 286 311 286 311 352 304 c 0,3,4
 428 296 428 296 476 258.5 c 128,-1,5
 524 221 524 221 524 154 c 2,6,-1
 524 148 l 2,7,8
 524 74 524 74 470 30 c 128,-1,9
 416 -14 416 -14 318 -14 c 0,10,11
 260 -14 260 -14 219 1 c 128,-1,12
 178 16 178 16 151 38.5 c 128,-1,13
 124 61 124 61 109.5 88.5 c 128,-1,14
 95 116 95 116 90 142 c 1,15,-1
 206 180 l 1,16,17
 214 148 214 148 239.5 124 c 128,-1,18
 265 100 265 100 318 100 c 0,19,20
 365 100 365 100 382.5 114.5 c 128,-1,21
 400 129 400 129 400 146 c 0,22,23
 400 156 400 156 395.5 164.5 c 128,-1,24
 391 173 391 173 379 180.5 c 128,-1,25
 367 188 367 188 346.5 193 c 128,-1,26
 326 198 326 198 295 201 c 0,27,28
 211 208 211 208 161.5 244.5 c 128,-1,29
 112 281 112 281 112 352 c 2,30,-1
 112 358 l 2,31,32
 112 395 112 395 128 423 c 128,-1,33
 144 451 144 451 170 470.5 c 128,-1,34
 196 490 196 490 230 500 c 128,-1,35
 264 510 264 510 300 510 c 0,36,37
 347 510 347 510 381.5 498.5 c 128,-1,38
 416 487 416 487 440 468.5 c 128,-1,39
 464 450 464 450 479 427.5 c 128,-1,40
 494 405 494 405 502 384 c 1,41,-1
 388 338 l 1,42,43
 379 365 379 365 357 380.5 c 128,-1,44
 335 396 335 396 300 396 c 0,45,46
 268 396 268 396 252 384.5 c 128,-1,47
 236 373 236 373 236 356 c 0,0,1
EndSplineSet
EndChar

StartChar: t
Encoding: 116 116 49
Width: 612
Flags: W
LayerCount: 2
Fore
SplineSet
64 496 m 1,0,-1
 211 496 l 1,1,-1
 211 700 l 1,2,-1
 337 700 l 1,3,-1
 337 496 l 1,4,-1
 516 496 l 1,5,-1
 516 376 l 1,6,-1
 337 376 l 1,7,-1
 337 150 l 2,8,9
 337 120 337 120 364 120 c 2,10,-1
 498 120 l 1,11,-1
 498 0 l 1,12,-1
 288 0 l 2,13,14
 254 0 254 0 232.5 22 c 128,-1,15
 211 44 211 44 211 78 c 2,16,-1
 211 376 l 1,17,-1
 64 376 l 1,18,-1
 64 496 l 1,0,-1
EndSplineSet
EndChar

StartChar: u
Encoding: 117 117 50
Width: 612
Flags: W
LayerCount: 2
Fore
SplineSet
414 496 m 1,0,-1
 540 496 l 1,1,-1
 540 0 l 1,2,-1
 414 0 l 1,3,-1
 414 72 l 1,4,-1
 396 72 l 1,5,6
 363 -14 363 -14 254 -14 c 0,7,8
 217 -14 217 -14 185 -2 c 128,-1,9
 153 10 153 10 129 35 c 128,-1,10
 105 60 105 60 91.5 97.5 c 128,-1,11
 78 135 78 135 78 186 c 2,12,-1
 78 496 l 1,13,-1
 204 496 l 1,14,-1
 204 212 l 2,15,16
 204 159 204 159 229 129.5 c 128,-1,17
 254 100 254 100 304 100 c 0,18,19
 361 100 361 100 387.5 136.5 c 128,-1,20
 414 173 414 173 414 236 c 2,21,-1
 414 496 l 1,0,-1
EndSplineSet
EndChar

StartChar: v
Encoding: 118 118 51
Width: 612
Flags: W
LayerCount: 2
Fore
SplineSet
43 496 m 1,0,-1
 179 496 l 1,1,-1
 296 60 l 1,2,-1
 314 60 l 1,3,-1
 431 496 l 1,4,-1
 567 496 l 1,5,-1
 425 0 l 1,6,-1
 185 0 l 1,7,-1
 43 496 l 1,0,-1
EndSplineSet
EndChar

StartChar: w
Encoding: 119 119 52
Width: 612
Flags: W
LayerCount: 2
Fore
SplineSet
564 0 m 1,0,-1
 346 0 l 1,1,-1
 318 376 l 1,2,-1
 318 436 l 1,3,-1
 294 436 l 1,4,-1
 294 376 l 1,5,-1
 266 0 l 1,6,-1
 48 0 l 1,7,-1
 15 496 l 1,8,-1
 131 496 l 1,9,-1
 153 120 l 1,10,-1
 153 60 l 1,11,-1
 177 60 l 1,12,-1
 177 120 l 1,13,-1
 202 496 l 1,14,-1
 410 496 l 1,15,-1
 435 120 l 1,16,-1
 435 60 l 1,17,-1
 459 60 l 1,18,-1
 459 120 l 1,19,-1
 481 496 l 1,20,-1
 597 496 l 1,21,-1
 564 0 l 1,0,-1
EndSplineSet
EndChar

StartChar: x
Encoding: 120 120 53
Width: 612
Flags: W
LayerCount: 2
Fore
SplineSet
407 496 m 1,0,-1
 546 496 l 1,1,-1
 426 263 l 1,2,-1
 426 245 l 1,3,-1
 553 0 l 1,4,-1
 408 0 l 1,5,-1
 315 194 l 1,6,-1
 297 194 l 1,7,-1
 204 0 l 1,8,-1
 59 0 l 1,9,-1
 186 245 l 1,10,-1
 186 263 l 1,11,-1
 65 496 l 1,12,-1
 205 496 l 1,13,-1
 297 314 l 1,14,-1
 315 314 l 1,15,-1
 407 496 l 1,0,-1
EndSplineSet
EndChar

StartChar: y
Encoding: 121 121 54
Width: 612
Flags: W
LayerCount: 2
Fore
SplineSet
414 496 m 1,0,-1
 540 496 l 1,1,-1
 540 -122 l 2,2,3
 540 -156 540 -156 518.5 -178 c 128,-1,4
 497 -200 497 -200 463 -200 c 2,5,-1
 168 -200 l 1,6,-1
 168 -80 l 1,7,-1
 387 -80 l 2,8,9
 414 -80 414 -80 414 -50 c 2,10,-1
 414 72 l 1,11,-1
 396 72 l 1,12,13
 363 -14 363 -14 254 -14 c 0,14,15
 217 -14 217 -14 185 -2 c 128,-1,16
 153 10 153 10 129 35 c 128,-1,17
 105 60 105 60 91.5 97.5 c 128,-1,18
 78 135 78 135 78 186 c 2,19,-1
 78 496 l 1,20,-1
 204 496 l 1,21,-1
 204 212 l 2,22,23
 204 159 204 159 229 129.5 c 128,-1,24
 254 100 254 100 304 100 c 0,25,26
 361 100 361 100 387.5 136.5 c 128,-1,27
 414 173 414 173 414 236 c 2,28,-1
 414 496 l 1,0,-1
EndSplineSet
Substitution2: "'ss02' Style Set 2 in Latin lookup 3 subtable" y.alt
Substitution2: "'aalt' Access All Alternates in Latin lookup 0 subtable" y.alt
EndChar

StartChar: z
Encoding: 122 122 55
Width: 612
Flags: W
LayerCount: 2
Fore
SplineSet
523 120 m 1,0,-1
 523 0 l 1,1,-1
 91 0 l 1,2,-1
 91 210 l 1,3,-1
 403 362 l 1,4,-1
 403 380 l 1,5,-1
 97 380 l 1,6,-1
 97 496 l 1,7,-1
 511 496 l 1,8,-1
 511 292 l 1,9,-1
 199 138 l 1,10,-1
 199 120 l 1,11,-1
 523 120 l 1,0,-1
EndSplineSet
EndChar

StartChar: zero
Encoding: 48 48 56
Width: 612
Flags: W
LayerCount: 2
Fore
SplineSet
222 350 m 256,0,1
 222 384 222 384 247 409 c 128,-1,2
 272 434 272 434 306 434 c 256,3,4
 340 434 340 434 365 409 c 128,-1,5
 390 384 390 384 390 350 c 256,6,7
 390 316 390 316 365 291 c 128,-1,8
 340 266 340 266 306 266 c 256,9,10
 272 266 272 266 247 291 c 128,-1,11
 222 316 222 316 222 350 c 256,0,1
48 428 m 2,12,13
 48 564 48 564 116.5 639 c 128,-1,14
 185 714 185 714 306 714 c 256,15,16
 427 714 427 714 495.5 639 c 128,-1,17
 564 564 564 564 564 428 c 2,18,-1
 564 272 l 2,19,20
 564 132 564 132 495.5 59 c 128,-1,21
 427 -14 427 -14 306 -14 c 256,22,23
 185 -14 185 -14 116.5 59 c 128,-1,24
 48 132 48 132 48 272 c 2,25,-1
 48 428 l 2,12,13
306 106 m 256,26,27
 342 106 342 106 366 117.5 c 128,-1,28
 390 129 390 129 405 150 c 128,-1,29
 420 171 420 171 426 200 c 128,-1,30
 432 229 432 229 432 264 c 2,31,-1
 432 436 l 2,32,33
 432 469 432 469 425 498 c 128,-1,34
 418 527 418 527 403 548 c 128,-1,35
 388 569 388 569 364 581.5 c 128,-1,36
 340 594 340 594 306 594 c 256,37,38
 272 594 272 594 248 581.5 c 128,-1,39
 224 569 224 569 209 548 c 128,-1,40
 194 527 194 527 187 498 c 128,-1,41
 180 469 180 469 180 436 c 2,42,-1
 180 264 l 2,43,44
 180 229 180 229 186 200 c 128,-1,45
 192 171 192 171 207 150 c 128,-1,46
 222 129 222 129 246 117.5 c 128,-1,47
 270 106 270 106 306 106 c 256,26,27
EndSplineSet
Substitution2: "Single Substitution lookup 35 subtable" uni2080
Substitution2: "'onum' Oldstyle Figures in Latin lookup 25 subtable" zero.tosn
Substitution2: "'onum' Oldstyle Figures in Latin lookup 24 subtable" zero.tosn
Substitution2: "'dnom' Denominators in Latin lookup 23 subtable" uni2080
Substitution2: "'dnom' Denominators in Latin lookup 22 subtable" uni2080
Substitution2: "'numr' Numerators in Latin lookup 21 subtable" uni2070
Substitution2: "'numr' Numerators in Latin lookup 20 subtable" uni2070
Substitution2: "'sinf' Scientific Inferiors in Latin lookup 19 subtable" uni2080
Substitution2: "'sinf' Scientific Inferiors in Latin lookup 18 subtable" uni2080
Substitution2: "'sups' Superscript in Latin lookup 17 subtable" uni2070
Substitution2: "'sups' Superscript in Latin lookup 16 subtable" uni2070
Substitution2: "'subs' Subscript in Latin lookup 15 subtable" uni2080
Substitution2: "'subs' Subscript in Latin lookup 14 subtable" uni2080
AlternateSubs2: "'aalt' Access All Alternates in Latin lookup 1 subtable" uni2070 uni2080 zero.tosn
EndChar

StartChar: one
Encoding: 49 49 57
Width: 612
Flags: W
LayerCount: 2
Fore
SplineSet
264 126 m 1,0,-1
 264 634 l 1,1,-1
 246 634 l 1,2,-1
 180 394 l 1,3,-1
 54 394 l 1,4,-1
 54 406 l 1,5,-1
 138 700 l 1,6,-1
 396 700 l 1,7,-1
 396 126 l 1,8,-1
 570 126 l 1,9,-1
 570 0 l 1,10,-1
 66 0 l 1,11,-1
 66 126 l 1,12,-1
 264 126 l 1,0,-1
EndSplineSet
Substitution2: "Single Substitution lookup 35 subtable" uni2081
Substitution2: "'onum' Oldstyle Figures in Latin lookup 25 subtable" one.tosn
Substitution2: "'onum' Oldstyle Figures in Latin lookup 24 subtable" one.tosn
Substitution2: "'dnom' Denominators in Latin lookup 23 subtable" uni2081
Substitution2: "'dnom' Denominators in Latin lookup 22 subtable" uni2081
Substitution2: "'numr' Numerators in Latin lookup 21 subtable" onesuperior
Substitution2: "'numr' Numerators in Latin lookup 20 subtable" onesuperior
Substitution2: "'sinf' Scientific Inferiors in Latin lookup 19 subtable" uni2081
Substitution2: "'sinf' Scientific Inferiors in Latin lookup 18 subtable" uni2081
Substitution2: "'sups' Superscript in Latin lookup 17 subtable" onesuperior
Substitution2: "'sups' Superscript in Latin lookup 16 subtable" onesuperior
Substitution2: "'subs' Subscript in Latin lookup 15 subtable" uni2081
Substitution2: "'subs' Subscript in Latin lookup 14 subtable" uni2081
AlternateSubs2: "'aalt' Access All Alternates in Latin lookup 1 subtable" one.tosn onesuperior uni2081
EndChar

StartChar: two
Encoding: 50 50 58
Width: 612
Flags: W
LayerCount: 2
Fore
SplineSet
557 126 m 1,0,-1
 557 0 l 1,1,-1
 65 0 l 1,2,-1
 65 138 l 2,3,4
 65 193 65 193 81.5 232 c 128,-1,5
 98 271 98 271 128.5 298 c 128,-1,6
 159 325 159 325 202 342.5 c 128,-1,7
 245 360 245 360 299 372 c 0,8,9
 339 381 339 381 364.5 392.5 c 128,-1,10
 390 404 390 404 405 418.5 c 128,-1,11
 420 433 420 433 425.5 450.5 c 128,-1,12
 431 468 431 468 431 490 c 0,13,14
 431 532 431 532 400.5 560 c 128,-1,15
 370 588 370 588 316 588 c 0,16,17
 259 588 259 588 225 553.5 c 128,-1,18
 191 519 191 519 191 458 c 2,19,-1
 191 414 l 1,20,-1
 59 414 l 1,21,-1
 59 470 l 2,22,23
 59 519 59 519 76.5 563.5 c 128,-1,24
 94 608 94 608 126.5 641.5 c 128,-1,25
 159 675 159 675 206 694.5 c 128,-1,26
 253 714 253 714 312 714 c 0,27,28
 375 714 375 714 422 695.5 c 128,-1,29
 469 677 469 677 500.5 647 c 128,-1,30
 532 617 532 617 547.5 577.5 c 128,-1,31
 563 538 563 538 563 496 c 2,32,-1
 563 484 l 2,33,34
 563 396 563 396 513.5 338 c 128,-1,35
 464 280 464 280 352 254 c 0,36,37
 305 243 305 243 274.5 231.5 c 128,-1,38
 244 220 244 220 227 206 c 128,-1,39
 210 192 210 192 203.5 175.5 c 128,-1,40
 197 159 197 159 197 138 c 2,41,-1
 197 126 l 1,42,-1
 557 126 l 1,0,-1
EndSplineSet
Substitution2: "Single Substitution lookup 35 subtable" uni2082
Substitution2: "'onum' Oldstyle Figures in Latin lookup 25 subtable" two.tosn
Substitution2: "'onum' Oldstyle Figures in Latin lookup 24 subtable" two.tosn
Substitution2: "'dnom' Denominators in Latin lookup 23 subtable" uni2082
Substitution2: "'dnom' Denominators in Latin lookup 22 subtable" uni2082
Substitution2: "'numr' Numerators in Latin lookup 21 subtable" twosuperior
Substitution2: "'numr' Numerators in Latin lookup 20 subtable" twosuperior
Substitution2: "'sinf' Scientific Inferiors in Latin lookup 19 subtable" uni2082
Substitution2: "'sinf' Scientific Inferiors in Latin lookup 18 subtable" uni2082
Substitution2: "'sups' Superscript in Latin lookup 17 subtable" twosuperior
Substitution2: "'sups' Superscript in Latin lookup 16 subtable" twosuperior
Substitution2: "'subs' Subscript in Latin lookup 15 subtable" uni2082
Substitution2: "'subs' Subscript in Latin lookup 14 subtable" uni2082
AlternateSubs2: "'aalt' Access All Alternates in Latin lookup 1 subtable" two.tosn twosuperior uni2082
EndChar

StartChar: three
Encoding: 51 51 59
Width: 612
Flags: W
LayerCount: 2
Fore
SplineSet
238 300 m 1,0,-1
 238 508 l 1,1,-1
 412 556 l 1,2,-1
 412 574 l 1,3,-1
 64 574 l 1,4,-1
 64 700 l 1,5,-1
 520 700 l 1,6,-1
 520 480 l 1,7,-1
 334 426 l 1,8,-1
 334 408 l 1,9,-1
 358 408 l 2,10,11
 395 408 395 408 431 396.5 c 128,-1,12
 467 385 467 385 494.5 361 c 128,-1,13
 522 337 522 337 539 301.5 c 128,-1,14
 556 266 556 266 556 218 c 2,15,-1
 556 206 l 2,16,17
 556 159 556 159 540.5 119 c 128,-1,18
 525 79 525 79 494.5 49.5 c 128,-1,19
 464 20 464 20 419 3 c 128,-1,20
 374 -14 374 -14 316 -14 c 0,21,22
 257 -14 257 -14 209 5 c 128,-1,23
 161 24 161 24 127.5 57 c 128,-1,24
 94 90 94 90 76 133 c 128,-1,25
 58 176 58 176 58 224 c 2,26,-1
 58 266 l 1,27,-1
 190 266 l 1,28,-1
 190 230 l 2,29,30
 190 182 190 182 221 147 c 128,-1,31
 252 112 252 112 314 112 c 0,32,33
 367 112 367 112 395.5 139 c 128,-1,34
 424 166 424 166 424 210 c 0,35,36
 424 257 424 257 393.5 278.5 c 128,-1,37
 363 300 363 300 316 300 c 2,38,-1
 238 300 l 1,0,-1
EndSplineSet
Substitution2: "Single Substitution lookup 35 subtable" uni2083
Substitution2: "'onum' Oldstyle Figures in Latin lookup 25 subtable" three.tosn
Substitution2: "'onum' Oldstyle Figures in Latin lookup 24 subtable" three.tosn
Substitution2: "'dnom' Denominators in Latin lookup 23 subtable" uni2083
Substitution2: "'dnom' Denominators in Latin lookup 22 subtable" uni2083
Substitution2: "'numr' Numerators in Latin lookup 21 subtable" threesuperior
Substitution2: "'numr' Numerators in Latin lookup 20 subtable" threesuperior
Substitution2: "'sinf' Scientific Inferiors in Latin lookup 19 subtable" uni2083
Substitution2: "'sinf' Scientific Inferiors in Latin lookup 18 subtable" uni2083
Substitution2: "'sups' Superscript in Latin lookup 17 subtable" threesuperior
Substitution2: "'sups' Superscript in Latin lookup 16 subtable" threesuperior
Substitution2: "'subs' Subscript in Latin lookup 15 subtable" uni2083
Substitution2: "'subs' Subscript in Latin lookup 14 subtable" uni2083
AlternateSubs2: "'aalt' Access All Alternates in Latin lookup 1 subtable" three.tosn threesuperior uni2083
EndChar

StartChar: four
Encoding: 52 52 60
Width: 612
Flags: W
LayerCount: 2
Fore
SplineSet
232 700 m 1,0,-1
 482 700 l 1,1,-1
 482 258 l 1,2,-1
 584 258 l 1,3,-1
 584 132 l 1,4,-1
 482 132 l 1,5,-1
 482 0 l 1,6,-1
 350 0 l 1,7,-1
 350 132 l 1,8,-1
 38 132 l 1,9,-1
 38 314 l 1,10,-1
 232 700 l 1,0,-1
152 276 m 1,11,-1
 152 258 l 1,12,-1
 350 258 l 1,13,-1
 350 634 l 1,14,-1
 332 634 l 1,15,-1
 152 276 l 1,11,-1
EndSplineSet
Substitution2: "Single Substitution lookup 35 subtable" uni2084
Substitution2: "'onum' Oldstyle Figures in Latin lookup 25 subtable" four.tosn
Substitution2: "'onum' Oldstyle Figures in Latin lookup 24 subtable" four.tosn
Substitution2: "'dnom' Denominators in Latin lookup 23 subtable" uni2084
Substitution2: "'dnom' Denominators in Latin lookup 22 subtable" uni2084
Substitution2: "'numr' Numerators in Latin lookup 21 subtable" uni2074
Substitution2: "'numr' Numerators in Latin lookup 20 subtable" uni2074
Substitution2: "'sinf' Scientific Inferiors in Latin lookup 19 subtable" uni2084
Substitution2: "'sinf' Scientific Inferiors in Latin lookup 18 subtable" uni2084
Substitution2: "'sups' Superscript in Latin lookup 17 subtable" uni2074
Substitution2: "'sups' Superscript in Latin lookup 16 subtable" uni2074
Substitution2: "'subs' Subscript in Latin lookup 15 subtable" uni2084
Substitution2: "'subs' Subscript in Latin lookup 14 subtable" uni2084
AlternateSubs2: "'aalt' Access All Alternates in Latin lookup 1 subtable" four.tosn uni2074 uni2084
EndChar

StartChar: five
Encoding: 53 53 61
Width: 612
Flags: W
LayerCount: 2
Fore
SplineSet
66 312 m 1,0,-1
 66 700 l 1,1,-1
 534 700 l 1,2,-1
 534 574 l 1,3,-1
 198 574 l 1,4,-1
 198 384 l 1,5,-1
 216 384 l 1,6,7
 230 423 230 423 268.5 451.5 c 128,-1,8
 307 480 307 480 372 480 c 0,9,10
 421 480 421 480 460 463 c 128,-1,11
 499 446 499 446 526 416 c 128,-1,12
 553 386 553 386 567.5 344 c 128,-1,13
 582 302 582 302 582 252 c 2,14,-1
 582 246 l 2,15,16
 582 193 582 193 564.5 146 c 128,-1,17
 547 99 547 99 513.5 63.5 c 128,-1,18
 480 28 480 28 431 7 c 128,-1,19
 382 -14 382 -14 318 -14 c 256,20,21
 254 -14 254 -14 205 3.5 c 128,-1,22
 156 21 156 21 122.5 52.5 c 128,-1,23
 89 84 89 84 71.5 127.5 c 128,-1,24
 54 171 54 171 54 222 c 2,25,-1
 54 246 l 1,26,-1
 186 246 l 1,27,-1
 186 234 l 2,28,29
 186 181 186 181 218.5 146.5 c 128,-1,30
 251 112 251 112 314 112 c 256,31,32
 377 112 377 112 413.5 146 c 128,-1,33
 450 180 450 180 450 240 c 0,34,35
 450 297 450 297 423 325.5 c 128,-1,36
 396 354 396 354 352 354 c 0,37,38
 323 354 323 354 305 341.5 c 128,-1,39
 287 329 287 329 282 312 c 1,40,-1
 66 312 l 1,0,-1
EndSplineSet
Substitution2: "Single Substitution lookup 35 subtable" uni2085
Substitution2: "'onum' Oldstyle Figures in Latin lookup 25 subtable" five.tosn
Substitution2: "'onum' Oldstyle Figures in Latin lookup 24 subtable" five.tosn
Substitution2: "'dnom' Denominators in Latin lookup 23 subtable" uni2085
Substitution2: "'dnom' Denominators in Latin lookup 22 subtable" uni2085
Substitution2: "'numr' Numerators in Latin lookup 21 subtable" uni2075
Substitution2: "'numr' Numerators in Latin lookup 20 subtable" uni2075
Substitution2: "'sinf' Scientific Inferiors in Latin lookup 19 subtable" uni2085
Substitution2: "'sinf' Scientific Inferiors in Latin lookup 18 subtable" uni2085
Substitution2: "'sups' Superscript in Latin lookup 17 subtable" uni2075
Substitution2: "'sups' Superscript in Latin lookup 16 subtable" uni2075
Substitution2: "'subs' Subscript in Latin lookup 15 subtable" uni2085
Substitution2: "'subs' Subscript in Latin lookup 14 subtable" uni2085
AlternateSubs2: "'aalt' Access All Alternates in Latin lookup 1 subtable" five.tosn uni2075 uni2085
EndChar

StartChar: six
Encoding: 54 54 62
Width: 612
Flags: W
LayerCount: 2
Fore
SplineSet
411 502 m 1,0,1
 411 537 411 537 385.5 562.5 c 128,-1,2
 360 588 360 588 306 588 c 256,3,4
 252 588 252 588 220.5 556.5 c 128,-1,5
 189 525 189 525 189 474 c 2,6,-1
 189 384 l 1,7,-1
 207 384 l 1,8,9
 224 419 224 419 262 440.5 c 128,-1,10
 300 462 300 462 348 462 c 0,11,12
 391 462 391 462 429 446.5 c 128,-1,13
 467 431 467 431 495 402.5 c 128,-1,14
 523 374 523 374 539 333 c 128,-1,15
 555 292 555 292 555 240 c 2,16,-1
 555 228 l 2,17,18
 555 175 555 175 537.5 130.5 c 128,-1,19
 520 86 520 86 487.5 54 c 128,-1,20
 455 22 455 22 409 4 c 128,-1,21
 363 -14 363 -14 306 -14 c 0,22,23
 254 -14 254 -14 208.5 3 c 128,-1,24
 163 20 163 20 129.5 50.5 c 128,-1,25
 96 81 96 81 76.5 123.5 c 128,-1,26
 57 166 57 166 57 217 c 2,27,-1
 57 472 l 2,28,29
 57 527 57 527 77 572 c 128,-1,30
 97 617 97 617 131 648.5 c 128,-1,31
 165 680 165 680 209.5 697 c 128,-1,32
 254 714 254 714 304 714 c 256,33,34
 354 714 354 714 397.5 699.5 c 128,-1,35
 441 685 441 685 473.5 657.5 c 128,-1,36
 506 630 506 630 524.5 590.5 c 128,-1,37
 543 551 543 551 543 502 c 1,38,-1
 411 502 l 1,0,1
306 112 m 256,39,40
 357 112 357 112 390 142.5 c 128,-1,41
 423 173 423 173 423 224 c 256,42,43
 423 275 423 275 390 305.5 c 128,-1,44
 357 336 357 336 306 336 c 256,45,46
 255 336 255 336 222 305.5 c 128,-1,47
 189 275 189 275 189 224 c 256,48,49
 189 173 189 173 222 142.5 c 128,-1,50
 255 112 255 112 306 112 c 256,39,40
EndSplineSet
Substitution2: "Single Substitution lookup 35 subtable" uni2086
Substitution2: "'onum' Oldstyle Figures in Latin lookup 25 subtable" six.tosn
Substitution2: "'onum' Oldstyle Figures in Latin lookup 24 subtable" six.tosn
Substitution2: "'dnom' Denominators in Latin lookup 23 subtable" uni2086
Substitution2: "'dnom' Denominators in Latin lookup 22 subtable" uni2086
Substitution2: "'numr' Numerators in Latin lookup 21 subtable" uni2076
Substitution2: "'numr' Numerators in Latin lookup 20 subtable" uni2076
Substitution2: "'sinf' Scientific Inferiors in Latin lookup 19 subtable" uni2086
Substitution2: "'sinf' Scientific Inferiors in Latin lookup 18 subtable" uni2086
Substitution2: "'sups' Superscript in Latin lookup 17 subtable" uni2076
Substitution2: "'sups' Superscript in Latin lookup 16 subtable" uni2076
Substitution2: "'subs' Subscript in Latin lookup 15 subtable" uni2086
Substitution2: "'subs' Subscript in Latin lookup 14 subtable" uni2086
AlternateSubs2: "'aalt' Access All Alternates in Latin lookup 1 subtable" six.tosn uni2076 uni2086
EndChar

StartChar: seven
Encoding: 55 55 63
Width: 612
Flags: W
LayerCount: 2
Fore
SplineSet
60 700 m 1,0,-1
 552 700 l 1,1,-1
 552 494 l 1,2,-1
 299 124 l 2,3,4
 279 94 279 94 267.5 72.5 c 128,-1,5
 256 51 256 51 256 24 c 2,6,-1
 256 0 l 1,7,-1
 114 0 l 1,8,-1
 114 30 l 2,9,10
 114 50 114 50 117 66 c 128,-1,11
 120 82 120 82 126.5 98 c 128,-1,12
 133 114 133 114 144 132 c 128,-1,13
 155 150 155 150 171 174 c 2,14,-1
 432 556 l 1,15,-1
 432 574 l 1,16,-1
 60 574 l 1,17,-1
 60 700 l 1,0,-1
EndSplineSet
Substitution2: "Single Substitution lookup 35 subtable" uni2087
Substitution2: "'onum' Oldstyle Figures in Latin lookup 25 subtable" seven.tosn
Substitution2: "'onum' Oldstyle Figures in Latin lookup 24 subtable" seven.tosn
Substitution2: "'dnom' Denominators in Latin lookup 23 subtable" uni2087
Substitution2: "'dnom' Denominators in Latin lookup 22 subtable" uni2087
Substitution2: "'numr' Numerators in Latin lookup 21 subtable" uni2077
Substitution2: "'numr' Numerators in Latin lookup 20 subtable" uni2077
Substitution2: "'sinf' Scientific Inferiors in Latin lookup 19 subtable" uni2087
Substitution2: "'sinf' Scientific Inferiors in Latin lookup 18 subtable" uni2087
Substitution2: "'sups' Superscript in Latin lookup 17 subtable" uni2077
Substitution2: "'sups' Superscript in Latin lookup 16 subtable" uni2077
Substitution2: "'subs' Subscript in Latin lookup 15 subtable" uni2087
Substitution2: "'subs' Subscript in Latin lookup 14 subtable" uni2087
AlternateSubs2: "'aalt' Access All Alternates in Latin lookup 1 subtable" seven.tosn uni2077 uni2087
EndChar

StartChar: eight
Encoding: 56 56 64
Width: 612
Flags: W
LayerCount: 2
Fore
SplineSet
306 -14 m 0,0,1
 247 -14 247 -14 200 0.5 c 128,-1,2
 153 15 153 15 120 41 c 128,-1,3
 87 67 87 67 69 102.5 c 128,-1,4
 51 138 51 138 51 182 c 2,5,-1
 51 188 l 2,6,7
 51 225 51 225 61.5 253 c 128,-1,8
 72 281 72 281 89.5 301 c 128,-1,9
 107 321 107 321 129 334 c 128,-1,10
 151 347 151 347 175 354 c 1,11,-1
 175 372 l 1,12,13
 154 380 154 380 134.5 393 c 128,-1,14
 115 406 115 406 100.5 424.5 c 128,-1,15
 86 443 86 443 77.5 468.5 c 128,-1,16
 69 494 69 494 69 526 c 2,17,-1
 69 532 l 2,18,19
 69 575 69 575 89 609 c 128,-1,20
 109 643 109 643 142 666.5 c 128,-1,21
 175 690 175 690 217.5 702 c 128,-1,22
 260 714 260 714 306 714 c 256,23,24
 352 714 352 714 394.5 702 c 128,-1,25
 437 690 437 690 470 666.5 c 128,-1,26
 503 643 503 643 523 609 c 128,-1,27
 543 575 543 575 543 532 c 2,28,-1
 543 526 l 2,29,30
 543 494 543 494 534.5 468.5 c 128,-1,31
 526 443 526 443 511.5 424.5 c 128,-1,32
 497 406 497 406 477.5 393 c 128,-1,33
 458 380 458 380 437 372 c 1,34,-1
 437 354 l 1,35,36
 461 347 461 347 483 334 c 128,-1,37
 505 321 505 321 522.5 301 c 128,-1,38
 540 281 540 281 550.5 253 c 128,-1,39
 561 225 561 225 561 188 c 2,40,-1
 561 182 l 2,41,42
 561 138 561 138 543 102 c 128,-1,43
 525 66 525 66 492 40.5 c 128,-1,44
 459 15 459 15 411.5 0.5 c 128,-1,45
 364 -14 364 -14 306 -14 c 0,0,1
306 112 m 256,46,47
 365 112 365 112 397 138.5 c 128,-1,48
 429 165 429 165 429 206 c 256,49,50
 429 247 429 247 397 273.5 c 128,-1,51
 365 300 365 300 306 300 c 256,52,53
 247 300 247 300 215 273.5 c 128,-1,54
 183 247 183 247 183 206 c 256,55,56
 183 165 183 165 215 138.5 c 128,-1,57
 247 112 247 112 306 112 c 256,46,47
306 588 m 256,58,59
 261 588 261 588 231 565 c 128,-1,60
 201 542 201 542 201 507 c 256,61,62
 201 472 201 472 231 449 c 128,-1,63
 261 426 261 426 306 426 c 256,64,65
 351 426 351 426 381 449 c 128,-1,66
 411 472 411 472 411 507 c 256,67,68
 411 542 411 542 381 565 c 128,-1,69
 351 588 351 588 306 588 c 256,58,59
EndSplineSet
Substitution2: "Single Substitution lookup 35 subtable" uni2088
Substitution2: "'onum' Oldstyle Figures in Latin lookup 25 subtable" eight.tosn
Substitution2: "'onum' Oldstyle Figures in Latin lookup 24 subtable" eight.tosn
Substitution2: "'dnom' Denominators in Latin lookup 23 subtable" uni2088
Substitution2: "'dnom' Denominators in Latin lookup 22 subtable" uni2088
Substitution2: "'numr' Numerators in Latin lookup 21 subtable" uni2078
Substitution2: "'numr' Numerators in Latin lookup 20 subtable" uni2078
Substitution2: "'sinf' Scientific Inferiors in Latin lookup 19 subtable" uni2088
Substitution2: "'sinf' Scientific Inferiors in Latin lookup 18 subtable" uni2088
Substitution2: "'sups' Superscript in Latin lookup 17 subtable" uni2078
Substitution2: "'sups' Superscript in Latin lookup 16 subtable" uni2078
Substitution2: "'subs' Subscript in Latin lookup 15 subtable" uni2088
Substitution2: "'subs' Subscript in Latin lookup 14 subtable" uni2088
AlternateSubs2: "'aalt' Access All Alternates in Latin lookup 1 subtable" eight.tosn uni2078 uni2088
EndChar

StartChar: nine
Encoding: 57 57 65
Width: 612
Flags: W
LayerCount: 2
Fore
SplineSet
201 198 m 1,0,1
 201 163 201 163 226.5 137.5 c 128,-1,2
 252 112 252 112 306 112 c 256,3,4
 360 112 360 112 391.5 143.5 c 128,-1,5
 423 175 423 175 423 226 c 2,6,-1
 423 316 l 1,7,-1
 405 316 l 1,8,9
 391 281 391 281 359 259.5 c 128,-1,10
 327 238 327 238 268 238 c 0,11,12
 223 238 223 238 184.5 254.5 c 128,-1,13
 146 271 146 271 117.5 301 c 128,-1,14
 89 331 89 331 73 373 c 128,-1,15
 57 415 57 415 57 466 c 2,16,-1
 57 478 l 2,17,18
 57 528 57 528 75 571.5 c 128,-1,19
 93 615 93 615 125.5 646.5 c 128,-1,20
 158 678 158 678 204.5 696 c 128,-1,21
 251 714 251 714 308 714 c 0,22,23
 360 714 360 714 405.5 697 c 128,-1,24
 451 680 451 680 484 649.5 c 128,-1,25
 517 619 517 619 536 576.5 c 128,-1,26
 555 534 555 534 555 483 c 2,27,-1
 555 228 l 2,28,29
 555 171 555 171 536 126 c 128,-1,30
 517 81 517 81 484 50 c 128,-1,31
 451 19 451 19 406.5 2.5 c 128,-1,32
 362 -14 362 -14 310 -14 c 0,33,34
 259 -14 259 -14 215 0.5 c 128,-1,35
 171 15 171 15 138.5 42.5 c 128,-1,36
 106 70 106 70 87.5 109 c 128,-1,37
 69 148 69 148 69 198 c 1,38,-1
 201 198 l 1,0,1
306 588 m 256,39,40
 255 588 255 588 222 557.5 c 128,-1,41
 189 527 189 527 189 476 c 256,42,43
 189 425 189 425 222 394.5 c 128,-1,44
 255 364 255 364 306 364 c 256,45,46
 357 364 357 364 390 394.5 c 128,-1,47
 423 425 423 425 423 476 c 256,48,49
 423 527 423 527 390 557.5 c 128,-1,50
 357 588 357 588 306 588 c 256,39,40
EndSplineSet
Substitution2: "Single Substitution lookup 35 subtable" uni2089
Substitution2: "'onum' Oldstyle Figures in Latin lookup 25 subtable" nine.tosn
Substitution2: "'onum' Oldstyle Figures in Latin lookup 24 subtable" nine.tosn
Substitution2: "'dnom' Denominators in Latin lookup 23 subtable" uni2089
Substitution2: "'dnom' Denominators in Latin lookup 22 subtable" uni2089
Substitution2: "'numr' Numerators in Latin lookup 21 subtable" uni2079
Substitution2: "'numr' Numerators in Latin lookup 20 subtable" uni2079
Substitution2: "'sinf' Scientific Inferiors in Latin lookup 19 subtable" uni2089
Substitution2: "'sinf' Scientific Inferiors in Latin lookup 18 subtable" uni2089
Substitution2: "'sups' Superscript in Latin lookup 17 subtable" uni2079
Substitution2: "'sups' Superscript in Latin lookup 16 subtable" uni2079
Substitution2: "'subs' Subscript in Latin lookup 15 subtable" uni2089
Substitution2: "'subs' Subscript in Latin lookup 14 subtable" uni2089
AlternateSubs2: "'aalt' Access All Alternates in Latin lookup 1 subtable" nine.tosn uni2079 uni2089
EndChar

StartChar: bracketleft
Encoding: 91 91 66
Width: 612
Flags: W
LayerCount: 2
Fore
SplineSet
236 754 m 2,0,1
 236 799 236 799 264.5 827.5 c 128,-1,2
 293 856 293 856 338 856 c 2,3,-1
 470 856 l 1,4,-1
 470 736 l 1,5,-1
 389 736 l 2,6,7
 362 736 362 736 362 706 c 2,8,-1
 362 -6 l 2,9,10
 362 -36 362 -36 389 -36 c 2,11,-1
 470 -36 l 1,12,-1
 470 -156 l 1,13,-1
 338 -156 l 2,14,15
 293 -156 293 -156 264.5 -127.5 c 128,-1,16
 236 -99 236 -99 236 -54 c 2,17,-1
 236 754 l 2,0,1
EndSplineSet
EndChar

StartChar: bracketright
Encoding: 93 93 67
Width: 612
Flags: W
LayerCount: 2
Fore
SplineSet
376 -54 m 2,0,1
 376 -99 376 -99 347.5 -127.5 c 128,-1,2
 319 -156 319 -156 274 -156 c 2,3,-1
 142 -156 l 1,4,-1
 142 -36 l 1,5,-1
 223 -36 l 2,6,7
 250 -36 250 -36 250 -6 c 2,8,-1
 250 706 l 2,9,10
 250 736 250 736 223 736 c 2,11,-1
 142 736 l 1,12,-1
 142 856 l 1,13,-1
 274 856 l 2,14,15
 319 856 319 856 347.5 827.5 c 128,-1,16
 376 799 376 799 376 754 c 2,17,-1
 376 -54 l 2,0,1
EndSplineSet
EndChar

StartChar: braceleft
Encoding: 123 123 68
Width: 612
Flags: W
LayerCount: 2
Fore
SplineSet
256 754 m 2,0,1
 256 799 256 799 284.5 827.5 c 128,-1,2
 313 856 313 856 358 856 c 2,3,-1
 490 856 l 1,4,-1
 490 736 l 1,5,-1
 409 736 l 2,6,7
 382 736 382 736 382 706 c 2,8,-1
 382 437 l 2,9,10
 382 403 382 403 360.5 381 c 128,-1,11
 339 359 339 359 304 359 c 2,12,-1
 298 359 l 1,13,-1
 298 341 l 1,14,-1
 304 341 l 2,15,16
 339 341 339 341 360.5 319 c 128,-1,17
 382 297 382 297 382 263 c 2,18,-1
 382 -6 l 2,19,20
 382 -36 382 -36 409 -36 c 2,21,-1
 490 -36 l 1,22,-1
 490 -156 l 1,23,-1
 358 -156 l 2,24,25
 313 -156 313 -156 284.5 -127.5 c 128,-1,26
 256 -99 256 -99 256 -54 c 2,27,-1
 256 249 l 2,28,29
 256 278 256 278 229 278 c 2,30,-1
 166 278 l 1,31,-1
 166 422 l 1,32,-1
 229 422 l 2,33,34
 256 422 256 422 256 451 c 2,35,-1
 256 754 l 2,0,1
EndSplineSet
EndChar

StartChar: braceright
Encoding: 125 125 69
Width: 612
Flags: W
LayerCount: 2
Fore
SplineSet
356 451 m 2,0,1
 356 422 356 422 383 422 c 2,2,-1
 446 422 l 1,3,-1
 446 278 l 1,4,-1
 383 278 l 2,5,6
 356 278 356 278 356 249 c 2,7,-1
 356 -54 l 2,8,9
 356 -99 356 -99 327.5 -127.5 c 128,-1,10
 299 -156 299 -156 254 -156 c 2,11,-1
 122 -156 l 1,12,-1
 122 -36 l 1,13,-1
 203 -36 l 2,14,15
 230 -36 230 -36 230 -6 c 2,16,-1
 230 263 l 2,17,18
 230 297 230 297 251.5 319 c 128,-1,19
 273 341 273 341 308 341 c 2,20,-1
 314 341 l 1,21,-1
 314 359 l 1,22,-1
 308 359 l 2,23,24
 273 359 273 359 251.5 381 c 128,-1,25
 230 403 230 403 230 437 c 2,26,-1
 230 706 l 2,27,28
 230 736 230 736 203 736 c 2,29,-1
 122 736 l 1,30,-1
 122 856 l 1,31,-1
 254 856 l 2,32,33
 299 856 299 856 327.5 827.5 c 128,-1,34
 356 799 356 799 356 754 c 2,35,-1
 356 451 l 2,0,1
EndSplineSet
EndChar

StartChar: parenleft
Encoding: 40 40 70
Width: 612
Flags: W
LayerCount: 2
Fore
SplineSet
570 -30 m 1,0,-1
 570 -156 l 1,1,-1
 528 -156 l 2,2,3
 454 -156 454 -156 387.5 -134.5 c 128,-1,4
 321 -113 321 -113 271 -67.5 c 128,-1,5
 221 -22 221 -22 191.5 49 c 128,-1,6
 162 120 162 120 162 218 c 2,7,-1
 162 482 l 2,8,9
 162 580 162 580 191.5 651 c 128,-1,10
 221 722 221 722 271 767.5 c 128,-1,11
 321 813 321 813 387.5 834.5 c 128,-1,12
 454 856 454 856 528 856 c 2,13,-1
 570 856 l 1,14,-1
 570 730 l 1,15,-1
 534 730 l 2,16,17
 482 730 482 730 438 716 c 128,-1,18
 394 702 394 702 361.5 671 c 128,-1,19
 329 640 329 640 310.5 591.5 c 128,-1,20
 292 543 292 543 292 474 c 2,21,-1
 292 226 l 2,22,23
 292 157 292 157 310.5 108.5 c 128,-1,24
 329 60 329 60 361.5 29 c 128,-1,25
 394 -2 394 -2 438 -16 c 128,-1,26
 482 -30 482 -30 534 -30 c 2,27,-1
 570 -30 l 1,0,-1
EndSplineSet
EndChar

StartChar: parenright
Encoding: 41 41 71
Width: 612
Flags: W
LayerCount: 2
Fore
SplineSet
78 -30 m 2,0,1
 130 -30 130 -30 174 -16 c 128,-1,2
 218 -2 218 -2 250.5 29 c 128,-1,3
 283 60 283 60 301.5 108.5 c 128,-1,4
 320 157 320 157 320 226 c 2,5,-1
 320 474 l 2,6,7
 320 543 320 543 301.5 591.5 c 128,-1,8
 283 640 283 640 250.5 671 c 128,-1,9
 218 702 218 702 174 716 c 128,-1,10
 130 730 130 730 78 730 c 2,11,-1
 42 730 l 1,12,-1
 42 856 l 1,13,-1
 84 856 l 2,14,15
 158 856 158 856 224.5 834.5 c 128,-1,16
 291 813 291 813 341 767.5 c 128,-1,17
 391 722 391 722 420.5 651 c 128,-1,18
 450 580 450 580 450 482 c 2,19,-1
 450 218 l 2,20,21
 450 120 450 120 420.5 49 c 128,-1,22
 391 -22 391 -22 341 -67.5 c 128,-1,23
 291 -113 291 -113 224.5 -134.5 c 128,-1,24
 158 -156 158 -156 84 -156 c 2,25,-1
 42 -156 l 1,26,-1
 42 -30 l 1,27,-1
 78 -30 l 2,0,1
EndSplineSet
EndChar

StartChar: slash
Encoding: 47 47 72
Width: 612
Flags: W
LayerCount: 2
Fore
SplineSet
399 825 m 1,0,-1
 513 789 l 1,1,-1
 214 -125 l 1,2,-1
 99 -89 l 1,3,-1
 399 825 l 1,0,-1
EndSplineSet
Substitution2: "Single Substitution lookup 32 subtable" fraction
Substitution2: "'aalt' Access All Alternates in Latin lookup 0 subtable" fraction
EndChar

StartChar: bar
Encoding: 124 124 73
Width: 612
Flags: W
LayerCount: 2
Fore
SplineSet
366 -156 m 1,0,-1
 246 -156 l 1,1,-1
 246 856 l 1,2,-1
 366 856 l 1,3,-1
 366 -156 l 1,0,-1
EndSplineSet
EndChar

StartChar: brokenbar
Encoding: 166 166 74
Width: 612
Flags: W
LayerCount: 2
Fore
SplineSet
366 290 m 1,0,-1
 366 -156 l 1,1,-1
 246 -156 l 1,2,-1
 246 290 l 1,3,-1
 366 290 l 1,0,-1
246 410 m 1,4,-1
 246 856 l 1,5,-1
 366 856 l 1,6,-1
 366 410 l 1,7,-1
 246 410 l 1,4,-1
EndSplineSet
EndChar

StartChar: backslash
Encoding: 92 92 75
Width: 612
Flags: W
LayerCount: 2
Fore
SplineSet
513 -89 m 1,0,-1
 398 -125 l 1,1,-1
 99 789 l 1,2,-1
 213 825 l 1,3,-1
 513 -89 l 1,0,-1
EndSplineSet
EndChar

StartChar: quotesingle
Encoding: 39 39 76
Width: 612
Flags: W
LayerCount: 2
Fore
SplineSet
267 533 m 1,0,1
 242 544 242 544 226.5 567.5 c 128,-1,2
 211 591 211 591 211 620 c 0,3,4
 211 639 211 639 218.5 656.5 c 128,-1,5
 226 674 226 674 239 686.5 c 128,-1,6
 252 699 252 699 269 706.5 c 128,-1,7
 286 714 286 714 306 714 c 0,8,9
 325 714 325 714 342.5 706.5 c 128,-1,10
 360 699 360 699 372.5 686.5 c 128,-1,11
 385 674 385 674 392.5 656.5 c 128,-1,12
 400 639 400 639 400 620 c 0,13,14
 400 591 400 591 384.5 567.5 c 128,-1,15
 369 544 369 544 345 533 c 1,16,-1
 345 408 l 1,17,-1
 267 408 l 1,18,-1
 267 533 l 1,0,1
EndSplineSet
EndChar

StartChar: quotedbl
Encoding: 34 34 77
Width: 612
Flags: W
LayerCount: 2
Fore
SplineSet
459 408 m 1,0,-1
 379 408 l 1,1,-1
 379 533 l 1,2,3
 355 544 355 544 339.5 567.5 c 128,-1,4
 324 591 324 591 324 620 c 0,5,6
 324 639 324 639 331.5 656.5 c 128,-1,7
 339 674 339 674 352 686.5 c 128,-1,8
 365 699 365 699 382 706.5 c 128,-1,9
 399 714 399 714 419 714 c 0,10,11
 438 714 438 714 455.5 706.5 c 128,-1,12
 473 699 473 699 486 686.5 c 128,-1,13
 499 674 499 674 506.5 656.5 c 128,-1,14
 514 639 514 639 514 620 c 0,15,16
 514 591 514 591 498.5 567.5 c 128,-1,17
 483 544 483 544 459 533 c 1,18,-1
 459 408 l 1,0,-1
233 408 m 1,19,-1
 153 408 l 1,20,-1
 153 533 l 1,21,22
 129 544 129 544 113.5 567.5 c 128,-1,23
 98 591 98 591 98 620 c 0,24,25
 98 639 98 639 105.5 656.5 c 128,-1,26
 113 674 113 674 126 686.5 c 128,-1,27
 139 699 139 699 156 706.5 c 128,-1,28
 173 714 173 714 193 714 c 0,29,30
 212 714 212 714 229.5 706.5 c 128,-1,31
 247 699 247 699 260 686.5 c 128,-1,32
 273 674 273 674 280.5 656.5 c 128,-1,33
 288 639 288 639 288 620 c 0,34,35
 288 591 288 591 272.5 567.5 c 128,-1,36
 257 544 257 544 233 533 c 1,37,-1
 233 408 l 1,19,-1
EndSplineSet
EndChar

StartChar: quoteleft
Encoding: 8216 8216 78
Width: 612
Flags: W
LayerCount: 2
Fore
SplineSet
401 502 m 0,0,1
 401 482 401 482 393.5 465 c 128,-1,2
 386 448 386 448 373 435.5 c 128,-1,3
 360 423 360 423 342.5 415.5 c 128,-1,4
 325 408 325 408 306 408 c 0,5,6
 286 408 286 408 269 415.5 c 128,-1,7
 252 423 252 423 239 435.5 c 128,-1,8
 226 448 226 448 218.5 465 c 128,-1,9
 211 482 211 482 211 502 c 2,10,-1
 211 624 l 2,11,12
 211 662 211 662 236.5 688 c 128,-1,13
 262 714 262 714 300 714 c 2,14,-1
 364 714 l 1,15,-1
 364 636 l 1,16,-1
 316 636 l 2,17,18
 289 636 289 636 289 606 c 2,19,-1
 289 594 l 1,20,21
 293 596 293 596 298 596.5 c 128,-1,22
 303 597 303 597 308 597 c 0,23,24
 350 597 350 597 375.5 570.5 c 128,-1,25
 401 544 401 544 401 502 c 0,0,1
EndSplineSet
EndChar

StartChar: quoteright
Encoding: 8217 8217 79
Width: 612
Flags: W
LayerCount: 2
Fore
SplineSet
211 620 m 0,0,1
 211 639 211 639 218.5 656.5 c 128,-1,2
 226 674 226 674 239 686.5 c 128,-1,3
 252 699 252 699 269 706.5 c 128,-1,4
 286 714 286 714 306 714 c 0,5,6
 325 714 325 714 342.5 706.5 c 128,-1,7
 360 699 360 699 373 686.5 c 128,-1,8
 386 674 386 674 393.5 656.5 c 128,-1,9
 401 639 401 639 401 620 c 2,10,-1
 401 498 l 2,11,12
 401 460 401 460 375.5 434 c 128,-1,13
 350 408 350 408 312 408 c 2,14,-1
 248 408 l 1,15,-1
 248 486 l 1,16,-1
 296 486 l 2,17,18
 323 486 323 486 323 516 c 2,19,-1
 323 528 l 1,20,21
 315 525 315 525 306 525 c 0,22,23
 286 525 286 525 269 532.5 c 128,-1,24
 252 540 252 540 239 553 c 128,-1,25
 226 566 226 566 218.5 583 c 128,-1,26
 211 600 211 600 211 620 c 0,0,1
EndSplineSet
EndChar

StartChar: quotedblleft
Encoding: 8220 8220 80
Width: 612
Flags: W
LayerCount: 2
Fore
SplineSet
514 502 m 0,0,1
 514 482 514 482 506.5 465 c 128,-1,2
 499 448 499 448 486 435.5 c 128,-1,3
 473 423 473 423 455.5 415.5 c 128,-1,4
 438 408 438 408 419 408 c 0,5,6
 399 408 399 408 382 415.5 c 128,-1,7
 365 423 365 423 352 435.5 c 128,-1,8
 339 448 339 448 331.5 465 c 128,-1,9
 324 482 324 482 324 502 c 2,10,-1
 324 624 l 2,11,12
 324 662 324 662 349.5 688 c 128,-1,13
 375 714 375 714 413 714 c 2,14,-1
 477 714 l 1,15,-1
 477 636 l 1,16,-1
 429 636 l 2,17,18
 402 636 402 636 402 606 c 2,19,-1
 402 594 l 1,20,21
 406 596 406 596 411 596.5 c 128,-1,22
 416 597 416 597 421 597 c 0,23,24
 463 597 463 597 488.5 570.5 c 128,-1,25
 514 544 514 544 514 502 c 0,0,1
288 502 m 0,26,27
 288 482 288 482 280.5 465 c 128,-1,28
 273 448 273 448 260 435.5 c 128,-1,29
 247 423 247 423 229.5 415.5 c 128,-1,30
 212 408 212 408 193 408 c 0,31,32
 173 408 173 408 156 415.5 c 128,-1,33
 139 423 139 423 126 435.5 c 128,-1,34
 113 448 113 448 105.5 465 c 128,-1,35
 98 482 98 482 98 502 c 2,36,-1
 98 624 l 2,37,38
 98 662 98 662 123.5 688 c 128,-1,39
 149 714 149 714 187 714 c 2,40,-1
 251 714 l 1,41,-1
 251 636 l 1,42,-1
 203 636 l 2,43,44
 176 636 176 636 176 606 c 2,45,-1
 176 594 l 1,46,47
 180 596 180 596 185 596.5 c 128,-1,48
 190 597 190 597 195 597 c 0,49,50
 237 597 237 597 262.5 570.5 c 128,-1,51
 288 544 288 544 288 502 c 0,26,27
EndSplineSet
EndChar

StartChar: quotedblright
Encoding: 8221 8221 81
Width: 612
Flags: W
LayerCount: 2
Fore
SplineSet
98 620 m 0,0,1
 98 639 98 639 105.5 656.5 c 128,-1,2
 113 674 113 674 126 686.5 c 128,-1,3
 139 699 139 699 156 706.5 c 128,-1,4
 173 714 173 714 193 714 c 0,5,6
 212 714 212 714 229.5 706.5 c 128,-1,7
 247 699 247 699 260 686.5 c 128,-1,8
 273 674 273 674 280.5 656.5 c 128,-1,9
 288 639 288 639 288 620 c 2,10,-1
 288 498 l 2,11,12
 288 460 288 460 262.5 434 c 128,-1,13
 237 408 237 408 199 408 c 2,14,-1
 135 408 l 1,15,-1
 135 486 l 1,16,-1
 183 486 l 2,17,18
 210 486 210 486 210 516 c 2,19,-1
 210 528 l 1,20,21
 202 525 202 525 193 525 c 0,22,23
 173 525 173 525 156 532.5 c 128,-1,24
 139 540 139 540 126 553 c 128,-1,25
 113 566 113 566 105.5 583 c 128,-1,26
 98 600 98 600 98 620 c 0,0,1
324 620 m 0,27,28
 324 639 324 639 331.5 656.5 c 128,-1,29
 339 674 339 674 352 686.5 c 128,-1,30
 365 699 365 699 382 706.5 c 128,-1,31
 399 714 399 714 419 714 c 0,32,33
 438 714 438 714 455.5 706.5 c 128,-1,34
 473 699 473 699 486 686.5 c 128,-1,35
 499 674 499 674 506.5 656.5 c 128,-1,36
 514 639 514 639 514 620 c 2,37,-1
 514 498 l 2,38,39
 514 460 514 460 488.5 434 c 128,-1,40
 463 408 463 408 425 408 c 2,41,-1
 361 408 l 1,42,-1
 361 486 l 1,43,-1
 409 486 l 2,44,45
 436 486 436 486 436 516 c 2,46,-1
 436 528 l 1,47,48
 428 525 428 525 419 525 c 0,49,50
 399 525 399 525 382 532.5 c 128,-1,51
 365 540 365 540 352 553 c 128,-1,52
 339 566 339 566 331.5 583 c 128,-1,53
 324 600 324 600 324 620 c 0,27,28
EndSplineSet
EndChar

StartChar: quotesinglbase
Encoding: 8218 8218 82
Width: 612
Flags: W
LayerCount: 2
Fore
SplineSet
211 95 m 0,0,1
 211 114 211 114 218.5 131.5 c 128,-1,2
 226 149 226 149 239 161.5 c 128,-1,3
 252 174 252 174 269 181.5 c 128,-1,4
 286 189 286 189 306 189 c 0,5,6
 325 189 325 189 342.5 181.5 c 128,-1,7
 360 174 360 174 373 161.5 c 128,-1,8
 386 149 386 149 393.5 131.5 c 128,-1,9
 401 114 401 114 401 95 c 2,10,-1
 401 -27 l 2,11,12
 401 -65 401 -65 375.5 -91 c 128,-1,13
 350 -117 350 -117 312 -117 c 2,14,-1
 248 -117 l 1,15,-1
 248 -39 l 1,16,-1
 296 -39 l 2,17,18
 323 -39 323 -39 323 -9 c 2,19,-1
 323 3 l 1,20,21
 315 0 315 0 306 0 c 0,22,23
 286 0 286 0 269 7.5 c 128,-1,24
 252 15 252 15 239 28 c 128,-1,25
 226 41 226 41 218.5 58 c 128,-1,26
 211 75 211 75 211 95 c 0,0,1
EndSplineSet
EndChar

StartChar: quotedblbase
Encoding: 8222 8222 83
Width: 612
Flags: W
LayerCount: 2
Fore
SplineSet
98 95 m 0,0,1
 98 114 98 114 105.5 131.5 c 128,-1,2
 113 149 113 149 126 161.5 c 128,-1,3
 139 174 139 174 156 181.5 c 128,-1,4
 173 189 173 189 193 189 c 0,5,6
 212 189 212 189 229.5 181.5 c 128,-1,7
 247 174 247 174 260 161.5 c 128,-1,8
 273 149 273 149 280.5 131.5 c 128,-1,9
 288 114 288 114 288 95 c 2,10,-1
 288 -27 l 2,11,12
 288 -65 288 -65 262.5 -91 c 128,-1,13
 237 -117 237 -117 199 -117 c 2,14,-1
 135 -117 l 1,15,-1
 135 -39 l 1,16,-1
 183 -39 l 2,17,18
 210 -39 210 -39 210 -9 c 2,19,-1
 210 3 l 1,20,21
 202 0 202 0 193 0 c 0,22,23
 173 0 173 0 156 7.5 c 128,-1,24
 139 15 139 15 126 28 c 128,-1,25
 113 41 113 41 105.5 58 c 128,-1,26
 98 75 98 75 98 95 c 0,0,1
324 95 m 0,27,28
 324 114 324 114 331.5 131.5 c 128,-1,29
 339 149 339 149 352 161.5 c 128,-1,30
 365 174 365 174 382 181.5 c 128,-1,31
 399 189 399 189 419 189 c 0,32,33
 438 189 438 189 455.5 181.5 c 128,-1,34
 473 174 473 174 486 161.5 c 128,-1,35
 499 149 499 149 506.5 131.5 c 128,-1,36
 514 114 514 114 514 95 c 2,37,-1
 514 -27 l 2,38,39
 514 -65 514 -65 488.5 -91 c 128,-1,40
 463 -117 463 -117 425 -117 c 2,41,-1
 361 -117 l 1,42,-1
 361 -39 l 1,43,-1
 409 -39 l 2,44,45
 436 -39 436 -39 436 -9 c 2,46,-1
 436 3 l 1,47,48
 428 0 428 0 419 0 c 0,49,50
 399 0 399 0 382 7.5 c 128,-1,51
 365 15 365 15 352 28 c 128,-1,52
 339 41 339 41 331.5 58 c 128,-1,53
 324 75 324 75 324 95 c 0,27,28
EndSplineSet
EndChar

StartChar: period
Encoding: 46 46 84
Width: 612
Flags: W
LayerCount: 2
Fore
SplineSet
401 81 m 256,0,1
 401 61 401 61 393.5 43.5 c 128,-1,2
 386 26 386 26 373 13.5 c 128,-1,3
 360 1 360 1 342.5 -6.5 c 128,-1,4
 325 -14 325 -14 306 -14 c 0,5,6
 286 -14 286 -14 269 -6.5 c 128,-1,7
 252 1 252 1 239 13.5 c 128,-1,8
 226 26 226 26 218.5 43.5 c 128,-1,9
 211 61 211 61 211 81 c 256,10,11
 211 101 211 101 218.5 118.5 c 128,-1,12
 226 136 226 136 239 148.5 c 128,-1,13
 252 161 252 161 269 168.5 c 128,-1,14
 286 176 286 176 306 176 c 0,15,16
 325 176 325 176 342.5 168.5 c 128,-1,17
 360 161 360 161 373 148.5 c 128,-1,18
 386 136 386 136 393.5 118.5 c 128,-1,19
 401 101 401 101 401 81 c 256,0,1
EndSplineSet
EndChar

StartChar: comma
Encoding: 44 44 85
Width: 612
Flags: W
LayerCount: 2
Fore
SplineSet
211 81 m 0,0,1
 211 100 211 100 218.5 117.5 c 128,-1,2
 226 135 226 135 239 147.5 c 128,-1,3
 252 160 252 160 269 167.5 c 128,-1,4
 286 175 286 175 306 175 c 0,5,6
 325 175 325 175 342.5 167.5 c 128,-1,7
 360 160 360 160 373 147.5 c 128,-1,8
 386 135 386 135 393.5 117.5 c 128,-1,9
 401 100 401 100 401 81 c 2,10,-1
 401 -41 l 2,11,12
 401 -79 401 -79 375.5 -105 c 128,-1,13
 350 -131 350 -131 312 -131 c 2,14,-1
 248 -131 l 1,15,-1
 248 -53 l 1,16,-1
 296 -53 l 2,17,18
 323 -53 323 -53 323 -23 c 2,19,-1
 323 -11 l 1,20,21
 315 -14 315 -14 306 -14 c 0,22,23
 286 -14 286 -14 269 -6.5 c 128,-1,24
 252 1 252 1 239 14 c 128,-1,25
 226 27 226 27 218.5 44 c 128,-1,26
 211 61 211 61 211 81 c 0,0,1
EndSplineSet
EndChar

StartChar: colon
Encoding: 58 58 86
Width: 612
Flags: W
LayerCount: 2
Fore
SplineSet
401 81 m 256,0,1
 401 61 401 61 393.5 43.5 c 128,-1,2
 386 26 386 26 373 13.5 c 128,-1,3
 360 1 360 1 342.5 -6.5 c 128,-1,4
 325 -14 325 -14 306 -14 c 0,5,6
 286 -14 286 -14 269 -6.5 c 128,-1,7
 252 1 252 1 239 13.5 c 128,-1,8
 226 26 226 26 218.5 43.5 c 128,-1,9
 211 61 211 61 211 81 c 256,10,11
 211 101 211 101 218.5 118.5 c 128,-1,12
 226 136 226 136 239 148.5 c 128,-1,13
 252 161 252 161 269 168.5 c 128,-1,14
 286 176 286 176 306 176 c 0,15,16
 325 176 325 176 342.5 168.5 c 128,-1,17
 360 161 360 161 373 148.5 c 128,-1,18
 386 136 386 136 393.5 118.5 c 128,-1,19
 401 101 401 101 401 81 c 256,0,1
401 415 m 256,20,21
 401 395 401 395 393.5 377.5 c 128,-1,22
 386 360 386 360 373 347.5 c 128,-1,23
 360 335 360 335 342.5 327.5 c 128,-1,24
 325 320 325 320 306 320 c 0,25,26
 286 320 286 320 269 327.5 c 128,-1,27
 252 335 252 335 239 347.5 c 128,-1,28
 226 360 226 360 218.5 377.5 c 128,-1,29
 211 395 211 395 211 415 c 256,30,31
 211 435 211 435 218.5 452.5 c 128,-1,32
 226 470 226 470 239 482.5 c 128,-1,33
 252 495 252 495 269 502.5 c 128,-1,34
 286 510 286 510 306 510 c 0,35,36
 325 510 325 510 342.5 502.5 c 128,-1,37
 360 495 360 495 373 482.5 c 128,-1,38
 386 470 386 470 393.5 452.5 c 128,-1,39
 401 435 401 435 401 415 c 256,20,21
EndSplineSet
EndChar

StartChar: semicolon
Encoding: 59 59 87
Width: 612
Flags: W
LayerCount: 2
Fore
SplineSet
211 81 m 256,0,1
 211 101 211 101 218.5 118.5 c 128,-1,2
 226 136 226 136 239 148.5 c 128,-1,3
 252 161 252 161 269 168.5 c 128,-1,4
 286 176 286 176 306 176 c 0,5,6
 325 176 325 176 342.5 168.5 c 128,-1,7
 360 161 360 161 373 148.5 c 128,-1,8
 386 136 386 136 393.5 118.5 c 128,-1,9
 401 101 401 101 401 81 c 2,10,-1
 401 -41 l 2,11,12
 401 -79 401 -79 375.5 -105 c 128,-1,13
 350 -131 350 -131 312 -131 c 2,14,-1
 248 -131 l 1,15,-1
 248 -53 l 1,16,-1
 296 -53 l 2,17,18
 323 -53 323 -53 323 -23 c 2,19,-1
 323 -11 l 1,20,21
 315 -14 315 -14 306 -14 c 0,22,23
 286 -14 286 -14 269 -6.5 c 128,-1,24
 252 1 252 1 239 13.5 c 128,-1,25
 226 26 226 26 218.5 43.5 c 128,-1,26
 211 61 211 61 211 81 c 256,0,1
401 415 m 256,27,28
 401 395 401 395 393.5 377.5 c 128,-1,29
 386 360 386 360 373 347.5 c 128,-1,30
 360 335 360 335 342.5 327.5 c 128,-1,31
 325 320 325 320 306 320 c 0,32,33
 286 320 286 320 269 327.5 c 128,-1,34
 252 335 252 335 239 347.5 c 128,-1,35
 226 360 226 360 218.5 377.5 c 128,-1,36
 211 395 211 395 211 415 c 256,37,38
 211 435 211 435 218.5 452.5 c 128,-1,39
 226 470 226 470 239 482.5 c 128,-1,40
 252 495 252 495 269 502.5 c 128,-1,41
 286 510 286 510 306 510 c 0,42,43
 325 510 325 510 342.5 502.5 c 128,-1,44
 360 495 360 495 373 482.5 c 128,-1,45
 386 470 386 470 393.5 452.5 c 128,-1,46
 401 435 401 435 401 415 c 256,27,28
EndSplineSet
EndChar

StartChar: ellipsis
Encoding: 8230 8230 88
Width: 612
Flags: W
LayerCount: 2
Fore
SplineSet
591 81 m 256,0,1
 591 61 591 61 583.5 43.5 c 128,-1,2
 576 26 576 26 563 13.5 c 128,-1,3
 550 1 550 1 532.5 -6.5 c 128,-1,4
 515 -14 515 -14 496 -14 c 0,5,6
 476 -14 476 -14 459 -6.5 c 128,-1,7
 442 1 442 1 429 13.5 c 128,-1,8
 416 26 416 26 408.5 43.5 c 128,-1,9
 401 61 401 61 401 81 c 256,10,11
 401 101 401 101 408.5 118.5 c 128,-1,12
 416 136 416 136 429 148.5 c 128,-1,13
 442 161 442 161 459 168.5 c 128,-1,14
 476 176 476 176 496 176 c 0,15,16
 515 176 515 176 532.5 168.5 c 128,-1,17
 550 161 550 161 563 148.5 c 128,-1,18
 576 136 576 136 583.5 118.5 c 128,-1,19
 591 101 591 101 591 81 c 256,0,1
401 81 m 256,20,21
 401 61 401 61 393.5 43.5 c 128,-1,22
 386 26 386 26 373 13.5 c 128,-1,23
 360 1 360 1 342.5 -6.5 c 128,-1,24
 325 -14 325 -14 306 -14 c 0,25,26
 286 -14 286 -14 269 -6.5 c 128,-1,27
 252 1 252 1 239 13.5 c 128,-1,28
 226 26 226 26 218.5 43.5 c 128,-1,29
 211 61 211 61 211 81 c 1,30,31
 211 61 211 61 203.5 43.5 c 128,-1,32
 196 26 196 26 183 13.5 c 128,-1,33
 170 1 170 1 152.5 -6.5 c 128,-1,34
 135 -14 135 -14 116 -14 c 0,35,36
 96 -14 96 -14 79 -6.5 c 128,-1,37
 62 1 62 1 49 13.5 c 128,-1,38
 36 26 36 26 28.5 43.5 c 128,-1,39
 21 61 21 61 21 81 c 256,40,41
 21 101 21 101 28.5 118.5 c 128,-1,42
 36 136 36 136 49 148.5 c 128,-1,43
 62 161 62 161 79 168.5 c 128,-1,44
 96 176 96 176 116 176 c 0,45,46
 135 176 135 176 152.5 168.5 c 128,-1,47
 170 161 170 161 183 148.5 c 128,-1,48
 196 136 196 136 203.5 118.5 c 128,-1,49
 211 101 211 101 211 81 c 1,50,51
 211 101 211 101 218.5 118.5 c 128,-1,52
 226 136 226 136 239 148.5 c 128,-1,53
 252 161 252 161 269 168.5 c 128,-1,54
 286 176 286 176 306 176 c 0,55,56
 325 176 325 176 342.5 168.5 c 128,-1,57
 360 161 360 161 373 148.5 c 128,-1,58
 386 136 386 136 393.5 118.5 c 128,-1,59
 401 101 401 101 401 81 c 256,20,21
EndSplineSet
EndChar

StartChar: exclam
Encoding: 33 33 89
Width: 612
Flags: W
LayerCount: 2
Fore
SplineSet
372 700 m 1,0,-1
 372 212 l 1,1,-1
 240 212 l 1,2,-1
 240 700 l 1,3,-1
 372 700 l 1,0,-1
401 81 m 256,4,5
 401 61 401 61 393.5 43.5 c 128,-1,6
 386 26 386 26 373 13.5 c 128,-1,7
 360 1 360 1 342.5 -6.5 c 128,-1,8
 325 -14 325 -14 306 -14 c 0,9,10
 286 -14 286 -14 269 -6.5 c 128,-1,11
 252 1 252 1 239 13.5 c 128,-1,12
 226 26 226 26 218.5 43.5 c 128,-1,13
 211 61 211 61 211 81 c 256,14,15
 211 101 211 101 218.5 118.5 c 128,-1,16
 226 136 226 136 239 148.5 c 128,-1,17
 252 161 252 161 269 168.5 c 128,-1,18
 286 176 286 176 306 176 c 0,19,20
 325 176 325 176 342.5 168.5 c 128,-1,21
 360 161 360 161 373 148.5 c 128,-1,22
 386 136 386 136 393.5 118.5 c 128,-1,23
 401 101 401 101 401 81 c 256,4,5
EndSplineSet
EndChar

StartChar: question
Encoding: 63 63 91
Width: 612
Flags: W
LayerCount: 2
Fore
SplineSet
328 390 m 2,0,1
 371 390 371 390 395.5 417 c 128,-1,2
 420 444 420 444 420 488 c 0,3,4
 420 530 420 530 391 559 c 128,-1,5
 362 588 362 588 312 588 c 0,6,7
 285 588 285 588 264 578.5 c 128,-1,8
 243 569 243 569 228 552.5 c 128,-1,9
 213 536 213 536 205.5 514.5 c 128,-1,10
 198 493 198 493 198 470 c 2,11,-1
 198 428 l 1,12,-1
 66 428 l 1,13,-1
 66 482 l 2,14,15
 66 527 66 527 82.5 569 c 128,-1,16
 99 611 99 611 130.5 643 c 128,-1,17
 162 675 162 675 208.5 694.5 c 128,-1,18
 255 714 255 714 314 714 c 0,19,20
 367 714 367 714 411 696.5 c 128,-1,21
 455 679 455 679 486.5 648 c 128,-1,22
 518 617 518 617 535 575.5 c 128,-1,23
 552 534 552 534 552 486 c 2,24,-1
 552 480 l 2,25,26
 552 439 552 439 539.5 402 c 128,-1,27
 527 365 527 365 504 337 c 128,-1,28
 481 309 481 309 447 292 c 128,-1,29
 413 275 413 275 371 275 c 0,30,31
 357 275 357 275 350 267 c 128,-1,32
 343 259 343 259 343 245 c 2,33,-1
 343 212 l 1,34,-1
 217 212 l 1,35,-1
 217 298 l 2,36,37
 217 337 217 337 243.5 363.5 c 128,-1,38
 270 390 270 390 309 390 c 2,39,-1
 328 390 l 2,0,1
376 81 m 256,40,41
 376 61 376 61 368.5 43.5 c 128,-1,42
 361 26 361 26 348 13.5 c 128,-1,43
 335 1 335 1 317.5 -6.5 c 128,-1,44
 300 -14 300 -14 281 -14 c 0,45,46
 261 -14 261 -14 244 -6.5 c 128,-1,47
 227 1 227 1 214 13.5 c 128,-1,48
 201 26 201 26 193.5 43.5 c 128,-1,49
 186 61 186 61 186 81 c 256,50,51
 186 101 186 101 193.5 118.5 c 128,-1,52
 201 136 201 136 214 148.5 c 128,-1,53
 227 161 227 161 244 168.5 c 128,-1,54
 261 176 261 176 281 176 c 0,55,56
 300 176 300 176 317.5 168.5 c 128,-1,57
 335 161 335 161 348 148.5 c 128,-1,58
 361 136 361 136 368.5 118.5 c 128,-1,59
 376 101 376 101 376 81 c 256,40,41
EndSplineSet
EndChar

StartChar: guilsinglleft
Encoding: 8249 8249 93
Width: 612
Flags: W
LayerCount: 2
Fore
SplineSet
426 0 m 1,0,-1
 180 152 l 1,1,-1
 180 344 l 1,2,-1
 426 496 l 1,3,-1
 432 496 l 1,4,-1
 432 354 l 1,5,-1
 258 257 l 1,6,-1
 258 239 l 1,7,-1
 432 142 l 1,8,-1
 432 0 l 1,9,-1
 426 0 l 1,0,-1
EndSplineSet
EndChar

StartChar: guilsinglright
Encoding: 8250 8250 94
Width: 612
Flags: W
LayerCount: 2
Fore
SplineSet
180 0 m 1,0,-1
 180 142 l 1,1,-1
 354 239 l 1,2,-1
 354 257 l 1,3,-1
 180 354 l 1,4,-1
 180 496 l 1,5,-1
 186 496 l 1,6,-1
 432 344 l 1,7,-1
 432 152 l 1,8,-1
 186 0 l 1,9,-1
 180 0 l 1,0,-1
EndSplineSet
EndChar

StartChar: hyphen
Encoding: 45 45 97
Width: 612
Flags: W
LayerCount: 2
Fore
SplineSet
150 332 m 1,0,-1
 462 332 l 1,1,-1
 462 218 l 1,2,-1
 150 218 l 1,3,-1
 150 332 l 1,0,-1
EndSplineSet
EndChar

StartChar: endash
Encoding: 8211 8211 98
Width: 612
Flags: W
LayerCount: 2
Fore
SplineSet
67 332 m 1,0,-1
 545 332 l 1,1,-1
 545 218 l 1,2,-1
 67 218 l 1,3,-1
 67 332 l 1,0,-1
EndSplineSet
EndChar

StartChar: emdash
Encoding: 8212 8212 99
Width: 612
Flags: W
LayerCount: 2
Fore
SplineSet
6 332 m 1,0,-1
 606 332 l 1,1,-1
 606 218 l 1,2,-1
 6 218 l 1,3,-1
 6 332 l 1,0,-1
EndSplineSet
EndChar

StartChar: periodcentered
Encoding: 183 183 100
Width: 612
Flags: W
LayerCount: 2
Fore
SplineSet
401 350 m 256,0,1
 401 330 401 330 393.5 312.5 c 128,-1,2
 386 295 386 295 373 282.5 c 128,-1,3
 360 270 360 270 342.5 262.5 c 128,-1,4
 325 255 325 255 306 255 c 0,5,6
 286 255 286 255 269 262.5 c 128,-1,7
 252 270 252 270 239 282.5 c 128,-1,8
 226 295 226 295 218.5 312.5 c 128,-1,9
 211 330 211 330 211 350 c 256,10,11
 211 370 211 370 218.5 387.5 c 128,-1,12
 226 405 226 405 239 417.5 c 128,-1,13
 252 430 252 430 269 437.5 c 128,-1,14
 286 445 286 445 306 445 c 0,15,16
 325 445 325 445 342.5 437.5 c 128,-1,17
 360 430 360 430 373 417.5 c 128,-1,18
 386 405 386 405 393.5 387.5 c 128,-1,19
 401 370 401 370 401 350 c 256,0,1
EndSplineSet
Substitution2: "Single Substitution lookup 37 subtable" periodcentered
Substitution2: "'aalt' Access All Alternates in Latin lookup 0 subtable" periodcentered
EndChar

StartChar: bullet
Encoding: 8226 8226 101
Width: 612
Flags: W
LayerCount: 2
Fore
SplineSet
162 350 m 256,0,1
 162 380 162 380 173.5 406 c 128,-1,2
 185 432 185 432 204.5 451.5 c 128,-1,3
 224 471 224 471 250 482.5 c 128,-1,4
 276 494 276 494 306 494 c 256,5,6
 336 494 336 494 362 482.5 c 128,-1,7
 388 471 388 471 407.5 451.5 c 128,-1,8
 427 432 427 432 438.5 406 c 128,-1,9
 450 380 450 380 450 350 c 256,10,11
 450 320 450 320 438.5 294 c 128,-1,12
 427 268 427 268 407.5 248.5 c 128,-1,13
 388 229 388 229 362 217.5 c 128,-1,14
 336 206 336 206 306 206 c 256,15,16
 276 206 276 206 250 217.5 c 128,-1,17
 224 229 224 229 204.5 248.5 c 128,-1,18
 185 268 185 268 173.5 294 c 128,-1,19
 162 320 162 320 162 350 c 256,0,1
EndSplineSet
EndChar

StartChar: underscore
Encoding: 95 95 102
Width: 612
Flags: W
LayerCount: 2
Fore
SplineSet
61 -48 m 1,0,-1
 551 -48 l 1,1,-1
 551 -162 l 1,2,-1
 61 -162 l 1,3,-1
 61 -48 l 1,0,-1
EndSplineSet
EndChar

StartChar: at
Encoding: 64 64 103
Width: 612
Flags: W
LayerCount: 2
Fore
SplineSet
60 510 m 1,0,-1
 60 630 l 1,1,-1
 374 630 l 2,2,3
 472 630 472 630 530 578 c 128,-1,4
 588 526 588 526 588 422 c 2,5,-1
 588 82 l 2,6,7
 588 40 588 40 561.5 13 c 128,-1,8
 535 -14 535 -14 493 -14 c 2,9,-1
 370 -14 l 2,10,11
 332 -14 332 -14 314.5 2.5 c 128,-1,12
 297 19 297 19 294 42 c 1,13,-1
 276 42 l 1,14,15
 267 19 267 19 243.5 2.5 c 128,-1,16
 220 -14 220 -14 176 -14 c 0,17,18
 141 -14 141 -14 111.5 -0.5 c 128,-1,19
 82 13 82 13 60.5 40.5 c 128,-1,20
 39 68 39 68 26.5 110 c 128,-1,21
 14 152 14 152 14 209 c 2,22,-1
 14 215 l 2,23,24
 14 272 14 272 27.5 314 c 128,-1,25
 41 356 41 356 63.5 383.5 c 128,-1,26
 86 411 86 411 116.5 424.5 c 128,-1,27
 147 438 147 438 182 438 c 0,28,29
 220 438 220 438 240.5 423.5 c 128,-1,30
 261 409 261 409 270 388 c 1,31,-1
 288 388 l 1,32,-1
 288 424 l 1,33,-1
 408 424 l 1,34,-1
 408 128 l 2,35,36
 408 100 408 100 435 100 c 2,37,-1
 441 100 l 2,38,39
 468 100 468 100 468 128 c 2,40,-1
 468 390 l 2,41,42
 468 510 468 510 348 510 c 2,43,-1
 60 510 l 1,0,-1
212 100 m 0,44,45
 253 100 253 100 270.5 130.5 c 128,-1,46
 288 161 288 161 288 209 c 2,47,-1
 288 215 l 2,48,49
 288 263 288 263 270.5 293.5 c 128,-1,50
 253 324 253 324 212 324 c 0,51,52
 174 324 174 324 154 293.5 c 128,-1,53
 134 263 134 263 134 215 c 2,54,-1
 134 209 l 2,55,56
 134 161 134 161 154 130.5 c 128,-1,57
 174 100 174 100 212 100 c 0,44,45
EndSplineSet
Substitution2: "'case' Case-Sensitive Forms in Latin lookup 31 subtable" at.cap
Substitution2: "'case' Case-Sensitive Forms in Latin lookup 30 subtable" at.cap
Substitution2: "'aalt' Access All Alternates in Latin lookup 0 subtable" at.cap
EndChar

StartChar: ampersand
Encoding: 38 38 104
Width: 612
Flags: W
LayerCount: 2
Fore
SplineSet
373 294 m 1,0,-1
 262 294 l 2,1,2
 220 294 220 294 194 273 c 128,-1,3
 168 252 168 252 168 210 c 2,4,-1
 168 204 l 2,5,6
 168 162 168 162 194 141 c 128,-1,7
 220 120 220 120 262 120 c 2,8,-1
 373 120 l 1,9,-1
 373 294 l 1,0,-1
499 496 m 1,10,-1
 499 414 l 1,11,-1
 591 414 l 1,12,-1
 591 288 l 1,13,-1
 499 288 l 1,14,-1
 499 0 l 1,15,-1
 249 0 l 2,16,17
 199 0 199 0 160 14 c 128,-1,18
 121 28 121 28 95 52.5 c 128,-1,19
 69 77 69 77 55.5 110.5 c 128,-1,20
 42 144 42 144 42 183 c 2,21,-1
 42 195 l 2,22,23
 42 255 42 255 75.5 291.5 c 128,-1,24
 109 328 109 328 160 342 c 1,25,-1
 160 360 l 1,26,27
 109 374 109 374 75.5 410 c 128,-1,28
 42 446 42 446 42 506 c 2,29,-1
 42 518 l 2,30,31
 42 557 42 557 55.5 590.5 c 128,-1,32
 69 624 69 624 95 648 c 128,-1,33
 121 672 121 672 160 686 c 128,-1,34
 199 700 199 700 249 700 c 2,35,-1
 358 700 l 1,36,-1
 358 580 l 1,37,-1
 262 580 l 2,38,39
 220 580 220 580 194 560.5 c 128,-1,40
 168 541 168 541 168 500 c 2,41,-1
 168 494 l 2,42,43
 168 452 168 452 194 433 c 128,-1,44
 220 414 220 414 262 414 c 2,45,-1
 373 414 l 1,46,-1
 373 496 l 1,47,-1
 499 496 l 1,10,-1
EndSplineSet
EndChar

StartChar: asterisk
Encoding: 42 42 105
Width: 612
Flags: W
LayerCount: 2
Fore
SplineSet
448 141 m 1,0,-1
 375 214 l 1,1,-1
 342 288 l 1,2,-1
 326 281 l 1,3,-1
 354 208 l 1,4,-1
 354 102 l 1,5,-1
 258 102 l 1,6,-1
 258 208 l 1,7,-1
 286 281 l 1,8,-1
 270 288 l 1,9,-1
 237 214 l 1,10,-1
 164 141 l 1,11,-1
 97 208 l 1,12,-1
 170 281 l 1,13,-1
 244 314 l 1,14,-1
 237 330 l 1,15,-1
 164 302 l 1,16,-1
 58 302 l 1,17,-1
 58 398 l 1,18,-1
 164 398 l 1,19,-1
 237 370 l 1,20,-1
 244 386 l 1,21,-1
 170 419 l 1,22,-1
 97 492 l 1,23,-1
 164 559 l 1,24,-1
 237 486 l 1,25,-1
 270 412 l 1,26,-1
 286 419 l 1,27,-1
 258 492 l 1,28,-1
 258 598 l 1,29,-1
 354 598 l 1,30,-1
 354 492 l 1,31,-1
 326 419 l 1,32,-1
 342 412 l 1,33,-1
 375 486 l 1,34,-1
 448 559 l 1,35,-1
 515 492 l 1,36,-1
 442 419 l 1,37,-1
 368 386 l 1,38,-1
 375 370 l 1,39,-1
 448 398 l 1,40,-1
 554 398 l 1,41,-1
 554 302 l 1,42,-1
 448 302 l 1,43,-1
 375 330 l 1,44,-1
 368 314 l 1,45,-1
 442 281 l 1,46,-1
 515 208 l 1,47,-1
 448 141 l 1,0,-1
EndSplineSet
Substitution2: "'case' Case-Sensitive Forms in Latin lookup 31 subtable" asterisk.cap
Substitution2: "'case' Case-Sensitive Forms in Latin lookup 30 subtable" asterisk.cap
Substitution2: "'aalt' Access All Alternates in Latin lookup 0 subtable" asterisk.cap
EndChar

StartChar: Aogonek
Encoding: 260 260 115
Width: 612
Flags: W
LayerCount: 2
Fore
SplineSet
425 150 m 1,0,-1
 187 150 l 1,1,-1
 153 0 l 1,2,-1
 15 0 l 1,3,-1
 182 700 l 1,4,-1
 430 700 l 1,5,-1
 597 0 l 1,6,-1
 545 0 l 1,7,-1
 532 -56 l 2,8,9
 531 -61 531 -61 531 -64 c 0,10,11
 531 -86 531 -86 554 -86 c 2,12,-1
 600 -86 l 1,13,-1
 600 -170 l 1,14,-1
 520 -170 l 2,15,16
 490 -170 490 -170 465 -151 c 128,-1,17
 440 -132 440 -132 440 -95 c 0,18,19
 440 -86 440 -86 443 -72 c 2,20,-1
 459 0 l 1,21,-1
 425 150 l 1,0,-1
215 276 m 1,22,-1
 396 276 l 1,23,-1
 315 634 l 1,24,-1
 297 634 l 1,25,-1
 215 276 l 1,22,-1
EndSplineSet
EndChar

StartChar: AE
Encoding: 198 198 128
Width: 612
Flags: W
LayerCount: 2
Fore
SplineSet
286 150 m 1,0,-1
 172 150 l 1,1,-1
 138 0 l 1,2,-1
 0 0 l 1,3,-1
 167 700 l 1,4,-1
 590 700 l 1,5,-1
 590 574 l 1,6,-1
 418 574 l 1,7,-1
 418 414 l 1,8,-1
 584 414 l 1,9,-1
 584 288 l 1,10,-1
 418 288 l 1,11,-1
 418 126 l 1,12,-1
 596 126 l 1,13,-1
 596 0 l 1,14,-1
 286 0 l 1,15,-1
 286 150 l 1,0,-1
200 276 m 1,16,-1
 286 276 l 1,17,-1
 286 574 l 1,18,-1
 268 574 l 1,19,-1
 200 276 l 1,16,-1
EndSplineSet
EndChar

StartChar: uni0243
Encoding: 579 579 129
Width: 612
Flags: W
LayerCount: 2
Fore
SplineSet
46 126 m 1,0,-1
 112 126 l 1,1,-1
 112 156 l 1,2,-1
 46 156 l 1,3,-1
 46 258 l 1,4,-1
 112 258 l 1,5,-1
 112 574 l 1,6,-1
 46 574 l 1,7,-1
 46 700 l 1,8,-1
 353 700 l 2,9,10
 403 700 403 700 441.5 686 c 128,-1,11
 480 672 480 672 506.5 648 c 128,-1,12
 533 624 533 624 546.5 590.5 c 128,-1,13
 560 557 560 557 560 518 c 2,14,-1
 560 506 l 2,15,16
 560 446 560 446 526.5 410 c 128,-1,17
 493 374 493 374 442 360 c 1,18,-1
 442 342 l 1,19,20
 493 328 493 328 526.5 291.5 c 128,-1,21
 560 255 560 255 560 195 c 2,22,-1
 560 183 l 2,23,24
 560 144 560 144 546.5 110.5 c 128,-1,25
 533 77 533 77 506.5 52.5 c 128,-1,26
 480 28 480 28 441.5 14 c 128,-1,27
 403 0 403 0 353 0 c 2,28,-1
 46 0 l 1,29,-1
 46 126 l 1,0,-1
244 414 m 1,30,-1
 340 414 l 2,31,32
 382 414 382 414 408 431.5 c 128,-1,33
 434 449 434 449 434 491 c 2,34,-1
 434 497 l 2,35,36
 434 539 434 539 408 556.5 c 128,-1,37
 382 574 382 574 340 574 c 2,38,-1
 244 574 l 1,39,-1
 244 414 l 1,30,-1
244 258 m 1,40,-1
 322 258 l 1,41,-1
 322 156 l 1,42,-1
 244 156 l 1,43,-1
 244 126 l 1,44,-1
 340 126 l 2,45,46
 382 126 382 126 408 144 c 128,-1,47
 434 162 434 162 434 204 c 2,48,-1
 434 210 l 2,49,50
 434 252 434 252 408 270 c 128,-1,51
 382 288 382 288 340 288 c 2,52,-1
 244 288 l 1,53,-1
 244 258 l 1,40,-1
EndSplineSet
Substitution2: "'ss01' Style Set 1 in Latin lookup 2 subtable" uni0243.alt
Substitution2: "'aalt' Access All Alternates in Latin lookup 0 subtable" uni0243.alt
EndChar

StartChar: Ccedilla
Encoding: 199 199 130
Width: 612
Flags: W
LayerCount: 2
Fore
SplineSet
308 106 m 0,0,1
 346 106 346 106 370.5 117.5 c 128,-1,2
 395 129 395 129 408.5 148.5 c 128,-1,3
 422 168 422 168 427 193.5 c 128,-1,4
 432 219 432 219 432 246 c 2,5,-1
 432 264 l 1,6,-1
 564 264 l 1,7,-1
 564 246 l 2,8,9
 564 129 564 129 506.5 62.5 c 128,-1,10
 449 -4 449 -4 340 -13 c 1,11,-1
 333 -46 l 1,12,-1
 345 -46 l 1,13,14
 350 -37 350 -37 361 -30.5 c 128,-1,15
 372 -24 372 -24 391 -24 c 0,16,17
 433 -24 433 -24 453.5 -50 c 128,-1,18
 474 -76 474 -76 474 -112 c 0,19,20
 474 -159 474 -159 442.5 -185.5 c 128,-1,21
 411 -212 411 -212 364 -212 c 0,22,23
 335 -212 335 -212 316 -206.5 c 128,-1,24
 297 -201 297 -201 280 -192 c 1,25,-1
 306 -124 l 1,26,27
 329 -138 329 -138 356 -138 c 0,28,29
 371 -138 371 -138 380.5 -131 c 128,-1,30
 390 -124 390 -124 390 -112 c 0,31,32
 390 -103 390 -103 385 -96.5 c 128,-1,33
 380 -90 380 -90 370 -90 c 0,34,35
 353 -90 353 -90 350 -104 c 1,36,-1
 253 -104 l 1,37,-1
 253 -92 l 1,38,-1
 270 -12 l 1,39,40
 166 -1 166 -1 107 71 c 128,-1,41
 48 143 48 143 48 272 c 2,42,-1
 48 428 l 2,43,44
 48 495 48 495 66 548.5 c 128,-1,45
 84 602 84 602 118 638.5 c 128,-1,46
 152 675 152 675 200 694.5 c 128,-1,47
 248 714 248 714 308 714 c 0,48,49
 370 714 370 714 418 696 c 128,-1,50
 466 678 466 678 498.5 644 c 128,-1,51
 531 610 531 610 547.5 562 c 128,-1,52
 564 514 564 514 564 454 c 2,53,-1
 564 436 l 1,54,-1
 432 436 l 1,55,-1
 432 454 l 2,56,57
 432 479 432 479 426 504 c 128,-1,58
 420 529 420 529 406 549 c 128,-1,59
 392 569 392 569 368 581.5 c 128,-1,60
 344 594 344 594 308 594 c 0,61,62
 275 594 275 594 251 581.5 c 128,-1,63
 227 569 227 569 211 547.5 c 128,-1,64
 195 526 195 526 187.5 497.5 c 128,-1,65
 180 469 180 469 180 438 c 2,66,-1
 180 262 l 2,67,68
 180 228 180 228 187 199.5 c 128,-1,69
 194 171 194 171 209 150 c 128,-1,70
 224 129 224 129 248.5 117.5 c 128,-1,71
 273 106 273 106 308 106 c 0,0,1
EndSplineSet
EndChar

StartChar: Eth
Encoding: 208 208 135
Width: 612
Flags: W
LayerCount: 2
Fore
SplineSet
46 410 m 1,0,-1
 112 410 l 1,1,-1
 112 574 l 1,2,-1
 46 574 l 1,3,-1
 46 700 l 1,4,-1
 300 700 l 2,5,6
 430 700 430 700 493 639.5 c 128,-1,7
 556 579 556 579 556 452 c 2,8,-1
 556 248 l 2,9,10
 556 121 556 121 493 60.5 c 128,-1,11
 430 0 430 0 300 0 c 2,12,-1
 46 0 l 1,13,-1
 46 126 l 1,14,-1
 112 126 l 1,15,-1
 112 290 l 1,16,-1
 46 290 l 1,17,-1
 46 410 l 1,0,-1
300 126 m 2,18,19
 369 126 369 126 396.5 158.5 c 128,-1,20
 424 191 424 191 424 260 c 2,21,-1
 424 452 l 2,22,23
 424 512 424 512 396.5 543 c 128,-1,24
 369 574 369 574 300 574 c 2,25,-1
 244 574 l 1,26,-1
 244 410 l 1,27,-1
 342 410 l 1,28,-1
 342 290 l 1,29,-1
 244 290 l 1,30,-1
 244 126 l 1,31,-1
 300 126 l 2,18,19
EndSplineSet
Substitution2: "'ss01' Style Set 1 in Latin lookup 2 subtable" Eth.alt
Substitution2: "'aalt' Access All Alternates in Latin lookup 0 subtable" Eth.alt
EndChar

StartChar: Dcroat
Encoding: 272 272 139
Width: 612
Flags: W
LayerCount: 2
Fore
SplineSet
46 410 m 1,0,-1
 112 410 l 1,1,-1
 112 574 l 1,2,-1
 46 574 l 1,3,-1
 46 700 l 1,4,-1
 300 700 l 2,5,6
 430 700 430 700 493 639.5 c 128,-1,7
 556 579 556 579 556 452 c 2,8,-1
 556 248 l 2,9,10
 556 121 556 121 493 60.5 c 128,-1,11
 430 0 430 0 300 0 c 2,12,-1
 46 0 l 1,13,-1
 46 126 l 1,14,-1
 112 126 l 1,15,-1
 112 290 l 1,16,-1
 46 290 l 1,17,-1
 46 410 l 1,0,-1
300 126 m 2,18,19
 369 126 369 126 396.5 158.5 c 128,-1,20
 424 191 424 191 424 260 c 2,21,-1
 424 452 l 2,22,23
 424 512 424 512 396.5 543 c 128,-1,24
 369 574 369 574 300 574 c 2,25,-1
 244 574 l 1,26,-1
 244 410 l 1,27,-1
 342 410 l 1,28,-1
 342 290 l 1,29,-1
 244 290 l 1,30,-1
 244 126 l 1,31,-1
 300 126 l 2,18,19
EndSplineSet
Substitution2: "'ss01' Style Set 1 in Latin lookup 2 subtable" Dcroat.alt
Substitution2: "'aalt' Access All Alternates in Latin lookup 0 subtable" Dcroat.alt
EndChar

StartChar: Eogonek
Encoding: 280 280 148
Width: 612
Flags: W
LayerCount: 2
Fore
SplineSet
82 700 m 1,0,-1
 524 700 l 1,1,-1
 524 574 l 1,2,-1
 214 574 l 1,3,-1
 214 414 l 1,4,-1
 512 414 l 1,5,-1
 512 288 l 1,6,-1
 214 288 l 1,7,-1
 214 126 l 1,8,-1
 536 126 l 1,9,-1
 536 0 l 1,10,-1
 523 -56 l 2,11,12
 522 -61 522 -61 522 -64 c 0,13,14
 522 -86 522 -86 545 -86 c 2,15,-1
 591 -86 l 1,16,-1
 591 -170 l 1,17,-1
 511 -170 l 2,18,19
 481 -170 481 -170 456 -151 c 128,-1,20
 431 -132 431 -132 431 -95 c 0,21,22
 431 -86 431 -86 434 -72 c 2,23,-1
 450 0 l 1,24,-1
 82 0 l 1,25,-1
 82 700 l 1,0,-1
EndSplineSet
EndChar

StartChar: uni0122
Encoding: 290 290 160
Width: 612
Flags: W
LayerCount: 2
Fore
SplineSet
361 -248 m 2,0,1
 361 -286 361 -286 335 -312 c 128,-1,2
 309 -338 309 -338 271 -338 c 2,3,-1
 211 -338 l 1,4,-1
 211 -260 l 1,5,-1
 256 -260 l 2,6,7
 283 -260 283 -260 283 -230 c 2,8,-1
 283 -218 l 1,9,-1
 274 -218 l 2,10,11
 256 -218 256 -218 240.5 -211 c 128,-1,12
 225 -204 225 -204 213 -192 c 128,-1,13
 201 -180 201 -180 194 -164.5 c 128,-1,14
 187 -149 187 -149 187 -131 c 256,15,16
 187 -113 187 -113 194 -97.5 c 128,-1,17
 201 -82 201 -82 213 -70 c 128,-1,18
 225 -58 225 -58 240.5 -51 c 128,-1,19
 256 -44 256 -44 274 -44 c 256,20,21
 292 -44 292 -44 307.5 -51 c 128,-1,22
 323 -58 323 -58 335 -70 c 128,-1,23
 347 -82 347 -82 354 -97.5 c 128,-1,24
 361 -113 361 -113 361 -131 c 2,25,-1
 361 -248 l 2,0,1
260 354 m 1,26,-1
 560 354 l 1,27,-1
 560 0 l 1,28,-1
 440 0 l 1,29,-1
 440 78 l 1,30,-1
 422 78 l 1,31,32
 410 39 410 39 376 12.5 c 128,-1,33
 342 -14 342 -14 274 -14 c 0,34,35
 226 -14 226 -14 184 4 c 128,-1,36
 142 22 142 22 111 57.5 c 128,-1,37
 80 93 80 93 62 145.5 c 128,-1,38
 44 198 44 198 44 268 c 2,39,-1
 44 432 l 2,40,41
 44 500 44 500 63.5 552.5 c 128,-1,42
 83 605 83 605 117.5 641 c 128,-1,43
 152 677 152 677 200 695.5 c 128,-1,44
 248 714 248 714 306 714 c 0,45,46
 366 714 366 714 413 694.5 c 128,-1,47
 460 675 460 675 493 640.5 c 128,-1,48
 526 606 526 606 543 559.5 c 128,-1,49
 560 513 560 513 560 460 c 2,50,-1
 560 448 l 1,51,-1
 428 448 l 1,52,-1
 428 460 l 2,53,54
 428 523 428 523 395.5 555.5 c 128,-1,55
 363 588 363 588 304 588 c 0,56,57
 248 588 248 588 212 550.5 c 128,-1,58
 176 513 176 513 176 422 c 2,59,-1
 176 274 l 2,60,61
 176 112 176 112 308 112 c 0,62,63
 367 112 367 112 397.5 143.5 c 128,-1,64
 428 175 428 175 428 228 c 1,65,-1
 260 228 l 1,66,-1
 260 354 l 1,26,-1
EndSplineSet
EndChar

StartChar: Hbar
Encoding: 294 294 166
Width: 612
Flags: W
LayerCount: 2
Fore
SplineSet
73 496 m 1,0,-1
 13 496 l 1,1,-1
 13 616 l 1,2,-1
 73 616 l 1,3,-1
 73 700 l 1,4,-1
 205 700 l 1,5,-1
 205 616 l 1,6,-1
 407 616 l 1,7,-1
 407 700 l 1,8,-1
 539 700 l 1,9,-1
 539 616 l 1,10,-1
 599 616 l 1,11,-1
 599 496 l 1,12,-1
 539 496 l 1,13,-1
 539 0 l 1,14,-1
 407 0 l 1,15,-1
 407 288 l 1,16,-1
 205 288 l 1,17,-1
 205 0 l 1,18,-1
 73 0 l 1,19,-1
 73 496 l 1,0,-1
407 414 m 1,20,-1
 407 496 l 1,21,-1
 205 496 l 1,22,-1
 205 414 l 1,23,-1
 407 414 l 1,20,-1
EndSplineSet
EndChar

StartChar: Iogonek
Encoding: 302 302 175
Width: 612
Flags: W
LayerCount: 2
Fore
SplineSet
72 700 m 1,0,-1
 540 700 l 1,1,-1
 540 574 l 1,2,-1
 372 574 l 1,3,-1
 372 126 l 1,4,-1
 540 126 l 1,5,-1
 540 0 l 1,6,-1
 527 -56 l 2,7,8
 526 -61 526 -61 526 -64 c 0,9,10
 526 -86 526 -86 549 -86 c 2,11,-1
 595 -86 l 1,12,-1
 595 -170 l 1,13,-1
 515 -170 l 2,14,15
 485 -170 485 -170 460 -151 c 128,-1,16
 435 -132 435 -132 435 -95 c 0,17,18
 435 -86 435 -86 438 -72 c 2,19,-1
 454 0 l 1,20,-1
 72 0 l 1,21,-1
 72 126 l 1,22,-1
 240 126 l 1,23,-1
 240 574 l 1,24,-1
 72 574 l 1,25,-1
 72 700 l 1,0,-1
EndSplineSet
EndChar

StartChar: uni0136
Encoding: 310 310 180
Width: 612
Flags: W
LayerCount: 2
Fore
SplineSet
408 -248 m 2,0,1
 408 -286 408 -286 382 -312 c 128,-1,2
 356 -338 356 -338 318 -338 c 2,3,-1
 258 -338 l 1,4,-1
 258 -260 l 1,5,-1
 303 -260 l 2,6,7
 330 -260 330 -260 330 -230 c 2,8,-1
 330 -218 l 1,9,-1
 321 -218 l 2,10,11
 303 -218 303 -218 287.5 -211 c 128,-1,12
 272 -204 272 -204 260 -192 c 128,-1,13
 248 -180 248 -180 241 -164.5 c 128,-1,14
 234 -149 234 -149 234 -131 c 256,15,16
 234 -113 234 -113 241 -97.5 c 128,-1,17
 248 -82 248 -82 260 -70 c 128,-1,18
 272 -58 272 -58 287.5 -51 c 128,-1,19
 303 -44 303 -44 321 -44 c 256,20,21
 339 -44 339 -44 354.5 -51 c 128,-1,22
 370 -58 370 -58 382 -70 c 128,-1,23
 394 -82 394 -82 401 -97.5 c 128,-1,24
 408 -113 408 -113 408 -131 c 2,25,-1
 408 -248 l 2,0,1
209 0 m 1,26,-1
 77 0 l 1,27,-1
 77 700 l 1,28,-1
 209 700 l 1,29,-1
 209 413 l 1,30,-1
 238 413 l 1,31,-1
 423 700 l 1,32,-1
 572 700 l 1,33,-1
 572 694 l 1,34,-1
 356 359 l 1,35,-1
 356 341 l 1,36,-1
 584 6 l 1,37,-1
 584 0 l 1,38,-1
 429 0 l 1,39,-1
 238 287 l 1,40,-1
 209 287 l 1,41,-1
 209 0 l 1,26,-1
EndSplineSet
EndChar

StartChar: Lcaron
Encoding: 317 317 182
Width: 612
Flags: W
LayerCount: 2
Fore
SplineSet
531 496 m 2,0,1
 531 458 531 458 505 432 c 128,-1,2
 479 406 479 406 441 406 c 2,3,-1
 381 406 l 1,4,-1
 381 484 l 1,5,-1
 426 484 l 2,6,7
 453 484 453 484 453 514 c 2,8,-1
 453 526 l 1,9,-1
 444 526 l 2,10,11
 426 526 426 526 410.5 533 c 128,-1,12
 395 540 395 540 383 552 c 128,-1,13
 371 564 371 564 364 579.5 c 128,-1,14
 357 595 357 595 357 613 c 256,15,16
 357 631 357 631 364 646.5 c 128,-1,17
 371 662 371 662 383 674 c 128,-1,18
 395 686 395 686 410.5 693 c 128,-1,19
 426 700 426 700 444 700 c 256,20,21
 462 700 462 700 477.5 693 c 128,-1,22
 493 686 493 686 505 674 c 128,-1,23
 517 662 517 662 524 646.5 c 128,-1,24
 531 631 531 631 531 613 c 2,25,-1
 531 496 l 2,0,1
82 700 m 1,26,-1
 214 700 l 1,27,-1
 214 126 l 1,28,-1
 532 126 l 1,29,-1
 532 0 l 1,30,-1
 82 0 l 1,31,-1
 82 700 l 1,26,-1
EndSplineSet
EndChar

StartChar: uni013B
Encoding: 315 315 183
Width: 612
Flags: W
LayerCount: 2
Fore
SplineSet
394 -248 m 2,0,1
 394 -286 394 -286 368 -312 c 128,-1,2
 342 -338 342 -338 304 -338 c 2,3,-1
 244 -338 l 1,4,-1
 244 -260 l 1,5,-1
 289 -260 l 2,6,7
 316 -260 316 -260 316 -230 c 2,8,-1
 316 -218 l 1,9,-1
 307 -218 l 2,10,11
 289 -218 289 -218 273.5 -211 c 128,-1,12
 258 -204 258 -204 246 -192 c 128,-1,13
 234 -180 234 -180 227 -164.5 c 128,-1,14
 220 -149 220 -149 220 -131 c 256,15,16
 220 -113 220 -113 227 -97.5 c 128,-1,17
 234 -82 234 -82 246 -70 c 128,-1,18
 258 -58 258 -58 273.5 -51 c 128,-1,19
 289 -44 289 -44 307 -44 c 256,20,21
 325 -44 325 -44 340.5 -51 c 128,-1,22
 356 -58 356 -58 368 -70 c 128,-1,23
 380 -82 380 -82 387 -97.5 c 128,-1,24
 394 -113 394 -113 394 -131 c 2,25,-1
 394 -248 l 2,0,1
82 700 m 1,26,-1
 214 700 l 1,27,-1
 214 126 l 1,28,-1
 532 126 l 1,29,-1
 532 0 l 1,30,-1
 82 0 l 1,31,-1
 82 700 l 1,26,-1
EndSplineSet
EndChar

StartChar: Lslash
Encoding: 321 321 187
Width: 612
Flags: W
LayerCount: 2
Fore
SplineSet
92 234 m 1,0,-1
 54 215 l 1,1,-1
 0 322 l 1,2,-1
 92 368 l 1,3,-1
 92 700 l 1,4,-1
 224 700 l 1,5,-1
 224 435 l 1,6,-1
 277 462 l 1,7,-1
 331 355 l 1,8,-1
 224 301 l 1,9,-1
 224 126 l 1,10,-1
 542 126 l 1,11,-1
 542 0 l 1,12,-1
 92 0 l 1,13,-1
 92 234 l 1,0,-1
EndSplineSet
EndChar

StartChar: uni0145
Encoding: 325 325 193
Width: 612
Flags: W
LayerCount: 2
Fore
SplineSet
393 -248 m 2,0,1
 393 -286 393 -286 367 -312 c 128,-1,2
 341 -338 341 -338 303 -338 c 2,3,-1
 243 -338 l 1,4,-1
 243 -260 l 1,5,-1
 288 -260 l 2,6,7
 315 -260 315 -260 315 -230 c 2,8,-1
 315 -218 l 1,9,-1
 306 -218 l 2,10,11
 288 -218 288 -218 272.5 -211 c 128,-1,12
 257 -204 257 -204 245 -192 c 128,-1,13
 233 -180 233 -180 226 -164.5 c 128,-1,14
 219 -149 219 -149 219 -131 c 256,15,16
 219 -113 219 -113 226 -97.5 c 128,-1,17
 233 -82 233 -82 245 -70 c 128,-1,18
 257 -58 257 -58 272.5 -51 c 128,-1,19
 288 -44 288 -44 306 -44 c 256,20,21
 324 -44 324 -44 339.5 -51 c 128,-1,22
 355 -58 355 -58 367 -70 c 128,-1,23
 379 -82 379 -82 386 -97.5 c 128,-1,24
 393 -113 393 -113 393 -131 c 2,25,-1
 393 -248 l 2,0,1
401 66 m 1,26,-1
 419 66 l 1,27,-1
 419 700 l 1,28,-1
 551 700 l 1,29,-1
 551 0 l 1,30,-1
 293 0 l 1,31,-1
 211 634 l 1,32,-1
 193 634 l 1,33,-1
 193 0 l 1,34,-1
 61 0 l 1,35,-1
 61 700 l 1,36,-1
 319 700 l 1,37,-1
 401 66 l 1,26,-1
EndSplineSet
EndChar

StartChar: uni01EA
Encoding: 490 490 206
Width: 612
Flags: W
LayerCount: 2
Fore
SplineSet
48 428 m 2,0,1
 48 564 48 564 116.5 639 c 128,-1,2
 185 714 185 714 306 714 c 256,3,4
 427 714 427 714 495.5 639 c 128,-1,5
 564 564 564 564 564 428 c 2,6,-1
 564 272 l 2,7,8
 564 144 564 144 506.5 72 c 128,-1,9
 449 0 449 0 347 -11 c 1,10,-1
 337 -56 l 2,11,12
 336 -61 336 -61 336 -64 c 0,13,14
 336 -86 336 -86 359 -86 c 2,15,-1
 405 -86 l 1,16,-1
 405 -170 l 1,17,-1
 325 -170 l 2,18,19
 295 -170 295 -170 270 -151 c 128,-1,20
 245 -132 245 -132 245 -95 c 0,21,22
 245 -86 245 -86 248 -72 c 2,23,-1
 261 -11 l 1,24,25
 161 2 161 2 104.5 73.5 c 128,-1,26
 48 145 48 145 48 272 c 2,27,-1
 48 428 l 2,0,1
306 106 m 256,28,29
 342 106 342 106 366 117.5 c 128,-1,30
 390 129 390 129 405 150 c 128,-1,31
 420 171 420 171 426 200 c 128,-1,32
 432 229 432 229 432 264 c 2,33,-1
 432 436 l 2,34,35
 432 469 432 469 425 498 c 128,-1,36
 418 527 418 527 403 548 c 128,-1,37
 388 569 388 569 364 581.5 c 128,-1,38
 340 594 340 594 306 594 c 256,39,40
 272 594 272 594 248 581.5 c 128,-1,41
 224 569 224 569 209 548 c 128,-1,42
 194 527 194 527 187 498 c 128,-1,43
 180 469 180 469 180 436 c 2,44,-1
 180 264 l 2,45,46
 180 229 180 229 186 200 c 128,-1,47
 192 171 192 171 207 150 c 128,-1,48
 222 129 222 129 246 117.5 c 128,-1,49
 270 106 270 106 306 106 c 256,28,29
EndSplineSet
EndChar

StartChar: uni01A0
Encoding: 416 416 214
Width: 612
Flags: W
LayerCount: 2
Fore
SplineSet
606 492 m 2,0,1
 606 454 606 454 580 428 c 128,-1,2
 554 402 554 402 516 402 c 2,3,-1
 422 402 l 1,4,-1
 422 210 l 2,5,6
 422 100 422 100 368.5 43 c 128,-1,7
 315 -14 315 -14 218 -14 c 256,8,9
 121 -14 121 -14 67.5 43 c 128,-1,10
 14 100 14 100 14 210 c 2,11,-1
 14 490 l 2,12,13
 14 600 14 600 67.5 657 c 128,-1,14
 121 714 121 714 218 714 c 256,15,16
 315 714 315 714 368.5 657 c 128,-1,17
 422 600 422 600 422 490 c 2,18,-1
 422 480 l 1,19,-1
 501 480 l 2,20,21
 528 480 528 480 528 510 c 2,22,-1
 528 526 l 1,23,-1
 519 526 l 2,24,25
 501 526 501 526 485.5 533 c 128,-1,26
 470 540 470 540 458 552 c 128,-1,27
 446 564 446 564 439 579.5 c 128,-1,28
 432 595 432 595 432 613 c 256,29,30
 432 631 432 631 439 646.5 c 128,-1,31
 446 662 446 662 458 674 c 128,-1,32
 470 686 470 686 485.5 693 c 128,-1,33
 501 700 501 700 519 700 c 256,34,35
 537 700 537 700 552.5 693 c 128,-1,36
 568 686 568 686 580 674 c 128,-1,37
 592 662 592 662 599 646.5 c 128,-1,38
 606 631 606 631 606 613 c 2,39,-1
 606 492 l 2,0,1
218 112 m 256,40,41
 251 112 251 112 270.5 134.5 c 128,-1,42
 290 157 290 157 290 202 c 2,43,-1
 290 498 l 2,44,45
 290 543 290 543 270.5 565.5 c 128,-1,46
 251 588 251 588 218 588 c 256,47,48
 185 588 185 588 165.5 565.5 c 128,-1,49
 146 543 146 543 146 498 c 2,50,-1
 146 202 l 2,51,52
 146 157 146 157 165.5 134.5 c 128,-1,53
 185 112 185 112 218 112 c 256,40,41
EndSplineSet
EndChar

StartChar: Oslash
Encoding: 216 216 220
Width: 612
Flags: W
LayerCount: 2
Fore
SplineSet
48 428 m 2,0,1
 48 564 48 564 116.5 639 c 128,-1,2
 185 714 185 714 306 714 c 0,3,4
 337 714 337 714 366 708 c 1,5,-1
 390 781 l 1,6,-1
 499 747 l 1,7,-1
 471 661 l 1,8,9
 516 624 516 624 540 565.5 c 128,-1,10
 564 507 564 507 564 428 c 2,11,-1
 564 272 l 2,12,13
 564 132 564 132 495.5 59 c 128,-1,14
 427 -14 427 -14 306 -14 c 0,15,16
 274 -14 274 -14 251 -10 c 1,17,-1
 224 -93 l 1,18,-1
 114 -59 l 1,19,-1
 144 34 l 1,20,21
 97 69 97 69 72.5 128.5 c 128,-1,22
 48 188 48 188 48 272 c 2,23,-1
 48 428 l 2,0,1
180 264 m 2,24,25
 180 239 180 239 182.5 218 c 128,-1,26
 185 197 185 197 192 179 c 1,27,-1
 328 592 l 1,28,29
 323 593 323 593 317 593.5 c 128,-1,30
 311 594 311 594 306 594 c 0,31,32
 272 594 272 594 248 581.5 c 128,-1,33
 224 569 224 569 209 548 c 128,-1,34
 194 527 194 527 187 498 c 128,-1,35
 180 469 180 469 180 436 c 2,36,-1
 180 264 l 2,24,25
306 106 m 2,37,38
 342 106 342 106 366 117.5 c 128,-1,39
 390 129 390 129 405 150 c 128,-1,40
 420 171 420 171 426 200 c 128,-1,41
 432 229 432 229 432 264 c 2,42,-1
 432 436 l 2,43,44
 432 456 432 456 429.5 474.5 c 128,-1,45
 427 493 427 493 421 510 c 1,46,-1
 289 106 l 1,47,-1
 306 106 l 2,37,38
EndSplineSet
EndChar

StartChar: OE
Encoding: 338 338 221
Width: 612
Flags: W
LayerCount: 2
Fore
SplineSet
282 0 m 2,0,1
 161 0 161 0 92.5 73 c 128,-1,2
 24 146 24 146 24 286 c 2,3,-1
 24 414 l 2,4,5
 24 550 24 550 92.5 625 c 128,-1,6
 161 700 161 700 282 700 c 2,7,-1
 586 700 l 1,8,-1
 586 574 l 1,9,-1
 414 574 l 1,10,-1
 414 414 l 1,11,-1
 580 414 l 1,12,-1
 580 288 l 1,13,-1
 414 288 l 1,14,-1
 414 126 l 1,15,-1
 592 126 l 1,16,-1
 592 0 l 1,17,-1
 282 0 l 2,0,1
282 574 m 1,18,19
 248 574 248 574 224 562.5 c 128,-1,20
 200 551 200 551 185 531 c 128,-1,21
 170 511 170 511 163 483 c 128,-1,22
 156 455 156 455 156 422 c 2,23,-1
 156 278 l 2,24,25
 156 207 156 207 183 166.5 c 128,-1,26
 210 126 210 126 282 126 c 1,27,-1
 282 574 l 1,18,19
EndSplineSet
EndChar

StartChar: uni0156
Encoding: 342 342 224
Width: 612
Flags: W
LayerCount: 2
Fore
SplineSet
395 -248 m 2,0,1
 395 -286 395 -286 369 -312 c 128,-1,2
 343 -338 343 -338 305 -338 c 2,3,-1
 245 -338 l 1,4,-1
 245 -260 l 1,5,-1
 290 -260 l 2,6,7
 317 -260 317 -260 317 -230 c 2,8,-1
 317 -218 l 1,9,-1
 308 -218 l 2,10,11
 290 -218 290 -218 274.5 -211 c 128,-1,12
 259 -204 259 -204 247 -192 c 128,-1,13
 235 -180 235 -180 228 -164.5 c 128,-1,14
 221 -149 221 -149 221 -131 c 256,15,16
 221 -113 221 -113 228 -97.5 c 128,-1,17
 235 -82 235 -82 247 -70 c 128,-1,18
 259 -58 259 -58 274.5 -51 c 128,-1,19
 290 -44 290 -44 308 -44 c 256,20,21
 326 -44 326 -44 341.5 -51 c 128,-1,22
 357 -58 357 -58 369 -70 c 128,-1,23
 381 -82 381 -82 388 -97.5 c 128,-1,24
 395 -113 395 -113 395 -131 c 2,25,-1
 395 -248 l 2,0,1
543 0 m 1,26,-1
 411 0 l 1,27,-1
 411 210 l 2,28,29
 411 234 411 234 398.5 249 c 128,-1,30
 386 264 386 264 357 264 c 2,31,-1
 205 264 l 1,32,-1
 205 0 l 1,33,-1
 73 0 l 1,34,-1
 73 700 l 1,35,-1
 341 700 l 2,36,37
 395 700 395 700 436 685 c 128,-1,38
 477 670 477 670 504.5 643.5 c 128,-1,39
 532 617 532 617 546.5 582 c 128,-1,40
 561 547 561 547 561 507 c 2,41,-1
 561 483 l 2,42,43
 561 440 561 440 538 402.5 c 128,-1,44
 515 365 515 365 467 345 c 1,45,-1
 467 327 l 1,46,47
 502 323 502 323 522.5 300 c 128,-1,48
 543 277 543 277 543 242 c 2,49,-1
 543 0 l 1,26,-1
205 390 m 1,50,-1
 331 390 l 2,51,52
 379 390 379 390 404 412.5 c 128,-1,53
 429 435 429 435 429 476 c 2,54,-1
 429 488 l 2,55,56
 429 523 429 523 404 548.5 c 128,-1,57
 379 574 379 574 331 574 c 2,58,-1
 205 574 l 1,59,-1
 205 390 l 1,50,-1
EndSplineSet
EndChar

StartChar: uni0218
Encoding: 536 536 231
Width: 612
Flags: W
LayerCount: 2
Fore
SplineSet
403 -248 m 2,0,1
 403 -286 403 -286 377 -312 c 128,-1,2
 351 -338 351 -338 313 -338 c 2,3,-1
 253 -338 l 1,4,-1
 253 -260 l 1,5,-1
 298 -260 l 2,6,7
 325 -260 325 -260 325 -230 c 2,8,-1
 325 -218 l 1,9,-1
 316 -218 l 2,10,11
 298 -218 298 -218 282.5 -211 c 128,-1,12
 267 -204 267 -204 255 -192 c 128,-1,13
 243 -180 243 -180 236 -164.5 c 128,-1,14
 229 -149 229 -149 229 -131 c 256,15,16
 229 -113 229 -113 236 -97.5 c 128,-1,17
 243 -82 243 -82 255 -70 c 128,-1,18
 267 -58 267 -58 282.5 -51 c 128,-1,19
 298 -44 298 -44 316 -44 c 256,20,21
 334 -44 334 -44 349.5 -51 c 128,-1,22
 365 -58 365 -58 377 -70 c 128,-1,23
 389 -82 389 -82 396 -97.5 c 128,-1,24
 403 -113 403 -113 403 -131 c 2,25,-1
 403 -248 l 2,0,1
426 486 m 2,26,27
 426 528 426 528 393.5 559 c 128,-1,28
 361 590 361 590 302 590 c 0,29,30
 252 590 252 590 223 569.5 c 128,-1,31
 194 549 194 549 194 514 c 0,32,33
 194 496 194 496 201 481.5 c 128,-1,34
 208 467 208 467 225.5 455.5 c 128,-1,35
 243 444 243 444 271.5 435 c 128,-1,36
 300 426 300 426 344 418 c 0,37,38
 454 398 454 398 512 351 c 128,-1,39
 570 304 570 304 570 212 c 2,40,-1
 570 200 l 2,41,42
 570 151 570 151 552.5 111.5 c 128,-1,43
 535 72 535 72 502 44 c 128,-1,44
 469 16 469 16 422 1 c 128,-1,45
 375 -14 375 -14 316 -14 c 0,46,47
 247 -14 247 -14 194.5 5.5 c 128,-1,48
 142 25 142 25 107 59.5 c 128,-1,49
 72 94 72 94 54 140.5 c 128,-1,50
 36 187 36 187 36 242 c 2,51,-1
 36 272 l 1,52,-1
 168 272 l 1,53,-1
 168 248 l 2,54,55
 168 185 168 185 204.5 147.5 c 128,-1,56
 241 110 241 110 318 110 c 0,57,58
 378 110 378 110 407 136 c 128,-1,59
 436 162 436 162 436 198 c 0,60,61
 436 215 436 215 430 230.5 c 128,-1,62
 424 246 424 246 409 258.5 c 128,-1,63
 394 271 394 271 368 281 c 128,-1,64
 342 291 342 291 302 298 c 0,65,66
 249 307 249 307 205 321.5 c 128,-1,67
 161 336 161 336 128.5 360 c 128,-1,68
 96 384 96 384 78 420 c 128,-1,69
 60 456 60 456 60 508 c 2,70,-1
 60 514 l 2,71,72
 60 557 60 557 77.5 593.5 c 128,-1,73
 95 630 95 630 126.5 657 c 128,-1,74
 158 684 158 684 202.5 699 c 128,-1,75
 247 714 247 714 302 714 c 0,76,77
 364 714 364 714 412 696.5 c 128,-1,78
 460 679 460 679 492.5 649 c 128,-1,79
 525 619 525 619 541.5 580 c 128,-1,80
 558 541 558 541 558 498 c 2,81,-1
 558 462 l 1,82,-1
 426 462 l 1,83,-1
 426 486 l 2,26,27
EndSplineSet
EndChar

StartChar: Scedilla
Encoding: 350 350 232
Width: 612
Flags: W
LayerCount: 2
Fore
SplineSet
426 486 m 2,0,1
 426 528 426 528 393.5 559 c 128,-1,2
 361 590 361 590 302 590 c 0,3,4
 252 590 252 590 223 569.5 c 128,-1,5
 194 549 194 549 194 514 c 0,6,7
 194 496 194 496 201 481.5 c 128,-1,8
 208 467 208 467 225.5 455.5 c 128,-1,9
 243 444 243 444 271.5 435 c 128,-1,10
 300 426 300 426 344 418 c 0,11,12
 454 398 454 398 512 351 c 128,-1,13
 570 304 570 304 570 212 c 2,14,-1
 570 200 l 2,15,16
 570 151 570 151 552.5 111.5 c 128,-1,17
 535 72 535 72 502 44 c 128,-1,18
 469 16 469 16 422 1 c 128,-1,19
 375 -14 375 -14 316 -14 c 2,20,-1
 306 -14 l 1,21,-1
 299 -46 l 1,22,-1
 311 -46 l 1,23,24
 316 -37 316 -37 327 -30.5 c 128,-1,25
 338 -24 338 -24 357 -24 c 0,26,27
 399 -24 399 -24 419.5 -50 c 128,-1,28
 440 -76 440 -76 440 -112 c 0,29,30
 440 -159 440 -159 408.5 -185.5 c 128,-1,31
 377 -212 377 -212 330 -212 c 0,32,33
 301 -212 301 -212 282 -206.5 c 128,-1,34
 263 -201 263 -201 246 -192 c 1,35,-1
 272 -124 l 1,36,37
 295 -138 295 -138 322 -138 c 0,38,39
 337 -138 337 -138 346.5 -131 c 128,-1,40
 356 -124 356 -124 356 -112 c 0,41,42
 356 -103 356 -103 351 -96.5 c 128,-1,43
 346 -90 346 -90 336 -90 c 0,44,45
 319 -90 319 -90 316 -104 c 1,46,-1
 219 -104 l 1,47,-1
 219 -92 l 1,48,-1
 237 -6 l 1,49,50
 137 14 137 14 86.5 81 c 128,-1,51
 36 148 36 148 36 242 c 2,52,-1
 36 272 l 1,53,-1
 168 272 l 1,54,-1
 168 248 l 2,55,56
 168 185 168 185 204.5 147.5 c 128,-1,57
 241 110 241 110 318 110 c 0,58,59
 378 110 378 110 407 136 c 128,-1,60
 436 162 436 162 436 198 c 0,61,62
 436 215 436 215 430 230.5 c 128,-1,63
 424 246 424 246 409 258.5 c 128,-1,64
 394 271 394 271 368 281 c 128,-1,65
 342 291 342 291 302 298 c 0,66,67
 249 307 249 307 205 321.5 c 128,-1,68
 161 336 161 336 128.5 360 c 128,-1,69
 96 384 96 384 78 420 c 128,-1,70
 60 456 60 456 60 508 c 2,71,-1
 60 514 l 2,72,73
 60 557 60 557 77.5 593.5 c 128,-1,74
 95 630 95 630 126.5 657 c 128,-1,75
 158 684 158 684 202.5 699 c 128,-1,76
 247 714 247 714 302 714 c 0,77,78
 364 714 364 714 412 696.5 c 128,-1,79
 460 679 460 679 492.5 649 c 128,-1,80
 525 619 525 619 541.5 580 c 128,-1,81
 558 541 558 541 558 498 c 2,82,-1
 558 462 l 1,83,-1
 426 462 l 1,84,-1
 426 486 l 2,0,1
EndSplineSet
Substitution2: "'locl' Localized Forms in Latin lookup 12 subtable" uni0218
Substitution2: "'locl' Localized Forms in Latin lookup 11 subtable" uni0218
Substitution2: "'aalt' Access All Alternates in Latin lookup 0 subtable" uni0218
EndChar

StartChar: uni1E9E
Encoding: 7838 7838 235
Width: 612
Flags: W
LayerCount: 2
Fore
SplineSet
534 700 m 1,0,-1
 534 472 l 1,1,-1
 378 418 l 1,2,-1
 378 400 l 1,3,-1
 396 400 l 2,4,5
 437 400 437 400 472.5 386.5 c 128,-1,6
 508 373 508 373 533.5 348.5 c 128,-1,7
 559 324 559 324 573.5 288.5 c 128,-1,8
 588 253 588 253 588 210 c 2,9,-1
 588 204 l 2,10,11
 588 160 588 160 573.5 123 c 128,-1,12
 559 86 559 86 531 58.5 c 128,-1,13
 503 31 503 31 463 15.5 c 128,-1,14
 423 0 423 0 371 0 c 2,15,-1
 282 0 l 1,16,-1
 282 126 l 1,17,-1
 366 126 l 2,18,19
 410 126 410 126 433 148 c 128,-1,20
 456 170 456 170 456 207 c 256,21,22
 456 244 456 244 433 266 c 128,-1,23
 410 288 410 288 366 288 c 2,24,-1
 282 288 l 1,25,-1
 282 502 l 1,26,-1
 438 556 l 1,27,-1
 438 574 l 1,28,-1
 320 574 l 2,29,30
 278 574 278 574 252 556 c 128,-1,31
 226 538 226 538 226 490 c 2,32,-1
 226 0 l 1,33,-1
 94 0 l 1,34,-1
 94 376 l 1,35,-1
 34 376 l 1,36,-1
 34 496 l 1,37,-1
 94 496 l 1,38,-1
 94 500 l 2,39,40
 94 549 94 549 112 586.5 c 128,-1,41
 130 624 130 624 160 649.5 c 128,-1,42
 190 675 190 675 230 687.5 c 128,-1,43
 270 700 270 700 314 700 c 2,44,-1
 534 700 l 1,0,-1
EndSplineSet
EndChar

StartChar: uni0162
Encoding: 354 354 237
Width: 612
Flags: W
LayerCount: 2
Fore
SplineSet
240 574 m 1,0,-1
 54 574 l 1,1,-1
 54 700 l 1,2,-1
 558 700 l 1,3,-1
 558 574 l 1,4,-1
 372 574 l 1,5,-1
 372 0 l 1,6,-1
 310 0 l 1,7,-1
 300 -46 l 1,8,-1
 312 -46 l 1,9,10
 317 -37 317 -37 328 -30.5 c 128,-1,11
 339 -24 339 -24 358 -24 c 0,12,13
 400 -24 400 -24 420.5 -50 c 128,-1,14
 441 -76 441 -76 441 -112 c 0,15,16
 441 -159 441 -159 409.5 -185.5 c 128,-1,17
 378 -212 378 -212 331 -212 c 0,18,19
 302 -212 302 -212 283 -206.5 c 128,-1,20
 264 -201 264 -201 247 -192 c 1,21,-1
 273 -124 l 1,22,23
 296 -138 296 -138 323 -138 c 0,24,25
 338 -138 338 -138 347.5 -131 c 128,-1,26
 357 -124 357 -124 357 -112 c 0,27,28
 357 -103 357 -103 352 -96.5 c 128,-1,29
 347 -90 347 -90 337 -90 c 0,30,31
 320 -90 320 -90 317 -104 c 1,32,-1
 220 -104 l 1,33,-1
 220 -92 l 1,34,-1
 240 0 l 1,35,-1
 240 574 l 1,0,-1
EndSplineSet
Substitution2: "'locl' Localized Forms in Latin lookup 12 subtable" uni021A
Substitution2: "'locl' Localized Forms in Latin lookup 11 subtable" uni021A
Substitution2: "'aalt' Access All Alternates in Latin lookup 0 subtable" uni021A
EndChar

StartChar: uni021A
Encoding: 538 538 238
Width: 612
Flags: W
LayerCount: 2
Fore
SplineSet
393 -248 m 2,0,1
 393 -286 393 -286 367 -312 c 128,-1,2
 341 -338 341 -338 303 -338 c 2,3,-1
 243 -338 l 1,4,-1
 243 -260 l 1,5,-1
 288 -260 l 2,6,7
 315 -260 315 -260 315 -230 c 2,8,-1
 315 -218 l 1,9,-1
 306 -218 l 2,10,11
 288 -218 288 -218 272.5 -211 c 128,-1,12
 257 -204 257 -204 245 -192 c 128,-1,13
 233 -180 233 -180 226 -164.5 c 128,-1,14
 219 -149 219 -149 219 -131 c 256,15,16
 219 -113 219 -113 226 -97.5 c 128,-1,17
 233 -82 233 -82 245 -70 c 128,-1,18
 257 -58 257 -58 272.5 -51 c 128,-1,19
 288 -44 288 -44 306 -44 c 256,20,21
 324 -44 324 -44 339.5 -51 c 128,-1,22
 355 -58 355 -58 367 -70 c 128,-1,23
 379 -82 379 -82 386 -97.5 c 128,-1,24
 393 -113 393 -113 393 -131 c 2,25,-1
 393 -248 l 2,0,1
54 700 m 1,26,-1
 558 700 l 1,27,-1
 558 574 l 1,28,-1
 372 574 l 1,29,-1
 372 0 l 1,30,-1
 240 0 l 1,31,-1
 240 574 l 1,32,-1
 54 574 l 1,33,-1
 54 700 l 1,26,-1
EndSplineSet
EndChar

StartChar: Tbar
Encoding: 358 358 241
Width: 612
Flags: W
LayerCount: 2
Fore
SplineSet
54 700 m 1,0,-1
 558 700 l 1,1,-1
 558 574 l 1,2,-1
 372 574 l 1,3,-1
 372 449 l 1,4,-1
 510 449 l 1,5,-1
 510 329 l 1,6,-1
 372 329 l 1,7,-1
 372 0 l 1,8,-1
 240 0 l 1,9,-1
 240 329 l 1,10,-1
 102 329 l 1,11,-1
 102 449 l 1,12,-1
 240 449 l 1,13,-1
 240 574 l 1,14,-1
 54 574 l 1,15,-1
 54 700 l 1,0,-1
EndSplineSet
EndChar

StartChar: Uogonek
Encoding: 370 370 252
Width: 612
Flags: W
LayerCount: 2
Fore
SplineSet
558 700 m 1,0,-1
 558 242 l 2,1,2
 558 133 558 133 505 66 c 128,-1,3
 452 -1 452 -1 347 -12 c 1,4,-1
 337 -56 l 2,5,6
 336 -61 336 -61 336 -64 c 0,7,8
 336 -86 336 -86 359 -86 c 2,9,-1
 405 -86 l 1,10,-1
 405 -170 l 1,11,-1
 325 -170 l 2,12,13
 295 -170 295 -170 270 -151 c 128,-1,14
 245 -132 245 -132 245 -95 c 0,15,16
 245 -86 245 -86 248 -72 c 2,17,-1
 261 -11 l 1,18,19
 158 0 158 0 106 66.5 c 128,-1,20
 54 133 54 133 54 242 c 2,21,-1
 54 700 l 1,22,-1
 186 700 l 1,23,-1
 186 242 l 2,24,25
 186 180 186 180 215 145 c 128,-1,26
 244 110 244 110 306 110 c 256,27,28
 368 110 368 110 397 145 c 128,-1,29
 426 180 426 180 426 242 c 2,30,-1
 426 700 l 1,31,-1
 558 700 l 1,0,-1
EndSplineSet
EndChar

StartChar: uni01D5
Encoding: 469 469 253
Width: 612
Flags: W
LayerCount: 2
Fore
SplineSet
508 956 m 1,0,-1
 104 956 l 1,1,-1
 104 1058 l 1,2,-1
 508 1058 l 1,3,-1
 508 956 l 1,0,-1
558 700 m 1,4,-1
 558 242 l 2,5,6
 558 122 558 122 494.5 54 c 128,-1,7
 431 -14 431 -14 306 -14 c 256,8,9
 181 -14 181 -14 117.5 54 c 128,-1,10
 54 122 54 122 54 242 c 2,11,-1
 54 700 l 1,12,-1
 186 700 l 1,13,-1
 186 242 l 2,14,15
 186 180 186 180 215 145 c 128,-1,16
 244 110 244 110 306 110 c 256,17,18
 368 110 368 110 397 145 c 128,-1,19
 426 180 426 180 426 242 c 2,20,-1
 426 700 l 1,21,-1
 558 700 l 1,4,-1
282 831 m 256,22,23
 282 811 282 811 274.5 793.5 c 128,-1,24
 267 776 267 776 254 763.5 c 128,-1,25
 241 751 241 751 223.5 743.5 c 128,-1,26
 206 736 206 736 187 736 c 0,27,28
 167 736 167 736 150 743.5 c 128,-1,29
 133 751 133 751 120 763.5 c 128,-1,30
 107 776 107 776 99.5 793.5 c 128,-1,31
 92 811 92 811 92 831 c 256,32,33
 92 851 92 851 99.5 868.5 c 128,-1,34
 107 886 107 886 120 898.5 c 128,-1,35
 133 911 133 911 150 918.5 c 128,-1,36
 167 926 167 926 187 926 c 0,37,38
 206 926 206 926 223.5 918.5 c 128,-1,39
 241 911 241 911 254 898.5 c 128,-1,40
 267 886 267 886 274.5 868.5 c 128,-1,41
 282 851 282 851 282 831 c 256,22,23
520 831 m 256,42,43
 520 811 520 811 512.5 793.5 c 128,-1,44
 505 776 505 776 492 763.5 c 128,-1,45
 479 751 479 751 461.5 743.5 c 128,-1,46
 444 736 444 736 425 736 c 0,47,48
 405 736 405 736 388 743.5 c 128,-1,49
 371 751 371 751 358 763.5 c 128,-1,50
 345 776 345 776 337.5 793.5 c 128,-1,51
 330 811 330 811 330 831 c 256,52,53
 330 851 330 851 337.5 868.5 c 128,-1,54
 345 886 345 886 358 898.5 c 128,-1,55
 371 911 371 911 388 918.5 c 128,-1,56
 405 926 405 926 425 926 c 0,57,58
 444 926 444 926 461.5 918.5 c 128,-1,59
 479 911 479 911 492 898.5 c 128,-1,60
 505 886 505 886 512.5 868.5 c 128,-1,61
 520 851 520 851 520 831 c 256,42,43
EndSplineSet
EndChar

StartChar: uni01AF
Encoding: 431 431 259
Width: 612
Flags: W
LayerCount: 2
Fore
SplineSet
606 492 m 2,0,1
 606 454 606 454 580 428 c 128,-1,2
 554 402 554 402 516 402 c 2,3,-1
 402 402 l 1,4,-1
 402 198 l 2,5,6
 402 92 402 92 353.5 39 c 128,-1,7
 305 -14 305 -14 210 -14 c 256,8,9
 115 -14 115 -14 66.5 39 c 128,-1,10
 18 92 18 92 18 198 c 2,11,-1
 18 700 l 1,12,-1
 150 700 l 1,13,-1
 150 184 l 2,14,15
 150 149 150 149 163.5 130.5 c 128,-1,16
 177 112 177 112 210 112 c 256,17,18
 243 112 243 112 256.5 130.5 c 128,-1,19
 270 149 270 149 270 184 c 2,20,-1
 270 700 l 1,21,-1
 402 700 l 1,22,-1
 402 480 l 1,23,-1
 501 480 l 2,24,25
 528 480 528 480 528 510 c 2,26,-1
 528 526 l 1,27,-1
 519 526 l 2,28,29
 501 526 501 526 485.5 533 c 128,-1,30
 470 540 470 540 458 552 c 128,-1,31
 446 564 446 564 439 579.5 c 128,-1,32
 432 595 432 595 432 613 c 256,33,34
 432 631 432 631 439 646.5 c 128,-1,35
 446 662 446 662 458 674 c 128,-1,36
 470 686 470 686 485.5 693 c 128,-1,37
 501 700 501 700 519 700 c 256,38,39
 537 700 537 700 552.5 693 c 128,-1,40
 568 686 568 686 580 674 c 128,-1,41
 592 662 592 662 599 646.5 c 128,-1,42
 606 631 606 631 606 613 c 2,43,-1
 606 492 l 2,0,1
EndSplineSet
EndChar

StartChar: Thorn
Encoding: 222 222 281
Width: 612
Flags: W
LayerCount: 2
Fore
SplineSet
202 132 m 1,0,-1
 202 0 l 1,1,-1
 70 0 l 1,2,-1
 70 700 l 1,3,-1
 202 700 l 1,4,-1
 202 568 l 1,5,-1
 344 568 l 2,6,7
 398 568 398 568 438 550.5 c 128,-1,8
 478 533 478 533 504.5 504.5 c 128,-1,9
 531 476 531 476 544.5 439.5 c 128,-1,10
 558 403 558 403 558 365 c 2,11,-1
 558 341 l 2,12,13
 558 302 558 302 544.5 264.5 c 128,-1,14
 531 227 531 227 504.5 197.5 c 128,-1,15
 478 168 478 168 438 150 c 128,-1,16
 398 132 398 132 344 132 c 2,17,-1
 202 132 l 1,0,-1
202 258 m 1,18,-1
 331 258 l 2,19,20
 375 258 375 258 400.5 282 c 128,-1,21
 426 306 426 306 426 344 c 2,22,-1
 426 356 l 2,23,24
 426 394 426 394 400.5 418 c 128,-1,25
 375 442 375 442 331 442 c 2,26,-1
 202 442 l 1,27,-1
 202 258 l 1,18,-1
EndSplineSet
EndChar

StartChar: uni018F
Encoding: 399 399 282
Width: 612
Flags: W
LayerCount: 2
Fore
SplineSet
48 380 m 1,0,-1
 432 380 l 1,1,-1
 432 438 l 2,2,3
 432 469 432 469 424.5 497.5 c 128,-1,4
 417 526 417 526 401 547.5 c 128,-1,5
 385 569 385 569 361 581.5 c 128,-1,6
 337 594 337 594 304 594 c 0,7,8
 268 594 268 594 244 581.5 c 128,-1,9
 220 569 220 569 206 549 c 128,-1,10
 192 529 192 529 186 504 c 128,-1,11
 180 479 180 479 180 454 c 2,12,-1
 180 448 l 1,13,-1
 48 448 l 1,14,-1
 48 454 l 2,15,16
 48 574 48 574 113.5 644 c 128,-1,17
 179 714 179 714 304 714 c 0,18,19
 364 714 364 714 412 694.5 c 128,-1,20
 460 675 460 675 494 638.5 c 128,-1,21
 528 602 528 602 546 548.5 c 128,-1,22
 564 495 564 495 564 428 c 2,23,-1
 564 272 l 2,24,25
 564 132 564 132 494 59 c 128,-1,26
 424 -14 424 -14 304 -14 c 0,27,28
 179 -14 179 -14 113.5 54 c 128,-1,29
 48 122 48 122 48 252 c 2,30,-1
 48 380 l 1,0,-1
304 106 m 0,31,32
 339 106 339 106 363.5 117 c 128,-1,33
 388 128 388 128 403 147.5 c 128,-1,34
 418 167 418 167 425 194 c 128,-1,35
 432 221 432 221 432 254 c 1,36,-1
 180 254 l 1,37,-1
 180 246 l 2,38,39
 180 219 180 219 185 193.5 c 128,-1,40
 190 168 190 168 203.5 148.5 c 128,-1,41
 217 129 217 129 241.5 117.5 c 128,-1,42
 266 106 266 106 304 106 c 0,31,32
EndSplineSet
EndChar

StartChar: Eng
Encoding: 330 330 283
Width: 612
Flags: W
LayerCount: 2
Fore
SplineSet
401 66 m 1,0,-1
 419 66 l 1,1,-1
 419 700 l 1,2,-1
 551 700 l 1,3,-1
 551 -98 l 2,4,5
 551 -150 551 -150 523 -175 c 128,-1,6
 495 -200 495 -200 450 -200 c 2,7,-1
 244 -200 l 1,8,-1
 244 -74 l 1,9,-1
 389 -74 l 2,10,11
 419 -74 419 -74 419 -41 c 2,12,-1
 419 0 l 1,13,-1
 295 0 l 1,14,-1
 211 634 l 1,15,-1
 193 634 l 1,16,-1
 193 0 l 1,17,-1
 61 0 l 1,18,-1
 61 700 l 1,19,-1
 317 700 l 1,20,-1
 401 66 l 1,0,-1
EndSplineSet
EndChar

StartChar: IJ
Encoding: 306 306 284
Width: 612
Flags: W
LayerCount: 2
Fore
SplineSet
190 700 m 1,0,-1
 190 342 l 1,1,-1
 58 342 l 1,2,-1
 58 700 l 1,3,-1
 190 700 l 1,0,-1
514 210 m 2,4,5
 514 101 514 101 455 43.5 c 128,-1,6
 396 -14 396 -14 293 -14 c 0,7,8
 240 -14 240 -14 197 0.5 c 128,-1,9
 154 15 154 15 123 43.5 c 128,-1,10
 92 72 92 72 75 113.5 c 128,-1,11
 58 155 58 155 58 210 c 2,12,-1
 58 276 l 1,13,-1
 190 276 l 1,14,-1
 190 210 l 2,15,16
 190 163 190 163 216 136.5 c 128,-1,17
 242 110 242 110 289 110 c 0,18,19
 333 110 333 110 357.5 136 c 128,-1,20
 382 162 382 162 382 210 c 2,21,-1
 382 576 l 1,22,-1
 310 576 l 1,23,-1
 310 700 l 1,24,-1
 574 700 l 1,25,-1
 574 576 l 1,26,-1
 514 576 l 1,27,-1
 514 210 l 2,4,5
EndSplineSet
Substitution2: "'ss01' Style Set 1 in Latin lookup 2 subtable" IJ.alt
Substitution2: "'aalt' Access All Alternates in Latin lookup 0 subtable" IJ.alt
EndChar

StartChar: IJacute
Encoding: 65538 -1 285
Width: 612
Flags: W
LayerCount: 2
Fore
SplineSet
190 700 m 1,0,-1
 190 342 l 1,1,-1
 58 342 l 1,2,-1
 58 700 l 1,3,-1
 190 700 l 1,0,-1
514 210 m 2,4,5
 514 101 514 101 455 43.5 c 128,-1,6
 396 -14 396 -14 293 -14 c 0,7,8
 240 -14 240 -14 197 0.5 c 128,-1,9
 154 15 154 15 123 43.5 c 128,-1,10
 92 72 92 72 75 113.5 c 128,-1,11
 58 155 58 155 58 210 c 2,12,-1
 58 276 l 1,13,-1
 190 276 l 1,14,-1
 190 210 l 2,15,16
 190 163 190 163 216 136.5 c 128,-1,17
 242 110 242 110 289 110 c 0,18,19
 333 110 333 110 357.5 136 c 128,-1,20
 382 162 382 162 382 210 c 2,21,-1
 382 576 l 1,22,-1
 310 576 l 1,23,-1
 310 700 l 1,24,-1
 574 700 l 1,25,-1
 574 576 l 1,26,-1
 514 576 l 1,27,-1
 514 210 l 2,4,5
125 910 m 1,28,-1
 259 910 l 1,29,-1
 175 774 l 1,30,-1
 73 774 l 1,31,-1
 125 910 l 1,28,-1
449 910 m 1,32,-1
 583 910 l 1,33,-1
 499 774 l 1,34,-1
 397 774 l 1,35,-1
 449 910 l 1,32,-1
EndSplineSet
Ligature2: "Ligature Substitution lookup 36 subtable" IJ acutecomb
Substitution2: "'ss01' Style Set 1 in Latin lookup 2 subtable" IJacute.alt
Substitution2: "'aalt' Access All Alternates in Latin lookup 0 subtable" IJacute.alt
EndChar

StartChar: aogonek
Encoding: 261 261 295
Width: 612
Flags: W
LayerCount: 2
Fore
SplineSet
399 72 m 1,0,1
 379 25 379 25 343 5.5 c 128,-1,2
 307 -14 307 -14 259 -14 c 0,3,4
 214 -14 214 -14 174.5 3 c 128,-1,5
 135 20 135 20 105 53 c 128,-1,6
 75 86 75 86 57.5 133 c 128,-1,7
 40 180 40 180 40 240 c 2,8,-1
 40 256 l 2,9,10
 40 315 40 315 57 362 c 128,-1,11
 74 409 74 409 103 442 c 128,-1,12
 132 475 132 475 170.5 492.5 c 128,-1,13
 209 510 209 510 253 510 c 0,14,15
 306 510 306 510 338.5 492 c 128,-1,16
 371 474 371 474 390 436 c 1,17,-1
 408 436 l 1,18,-1
 408 496 l 1,19,-1
 534 496 l 1,20,-1
 534 150 l 2,21,22
 534 120 534 120 561 120 c 2,23,-1
 580 120 l 1,24,-1
 580 0 l 1,25,-1
 525 0 l 1,26,-1
 512 -56 l 2,27,28
 511 -61 511 -61 511 -64 c 0,29,30
 511 -86 511 -86 534 -86 c 2,31,-1
 580 -86 l 1,32,-1
 580 -170 l 1,33,-1
 500 -170 l 2,34,35
 470 -170 470 -170 445 -151 c 128,-1,36
 420 -132 420 -132 420 -95 c 0,37,38
 420 -86 420 -86 423 -72 c 2,39,-1
 443 16 l 1,40,41
 417 37 417 37 417 72 c 1,42,-1
 399 72 l 1,0,1
287 106 m 256,43,44
 342 106 342 106 375 142.5 c 128,-1,45
 408 179 408 179 408 242 c 2,46,-1
 408 254 l 2,47,48
 408 317 408 317 375 353.5 c 128,-1,49
 342 390 342 390 287 390 c 256,50,51
 232 390 232 390 199 353.5 c 128,-1,52
 166 317 166 317 166 254 c 2,53,-1
 166 242 l 2,54,55
 166 179 166 179 199 142.5 c 128,-1,56
 232 106 232 106 287 106 c 256,43,44
EndSplineSet
Substitution2: "'ss02' Style Set 2 in Latin lookup 3 subtable" aogonek.alt
Substitution2: "'aalt' Access All Alternates in Latin lookup 0 subtable" aogonek.alt
EndChar

StartChar: ae
Encoding: 230 230 308
Width: 612
Flags: W
LayerCount: 2
Fore
SplineSet
182 147 m 256,0,1
 182 127 182 127 195 116.5 c 128,-1,2
 208 106 208 106 228 106 c 2,3,-1
 240 106 l 1,4,-1
 240 188 l 1,5,-1
 228 188 l 2,6,7
 208 188 208 188 195 177.5 c 128,-1,8
 182 167 182 167 182 147 c 256,0,1
432 308 m 1,9,10
 432 341 432 341 414 361 c 128,-1,11
 396 381 396 381 366 386 c 1,12,-1
 366 308 l 1,13,-1
 432 308 l 1,9,10
298 510 m 0,14,15
 360 510 360 510 408.5 492 c 128,-1,16
 457 474 457 474 490 442 c 128,-1,17
 523 410 523 410 540.5 366.5 c 128,-1,18
 558 323 558 323 558 272 c 2,19,-1
 558 188 l 1,20,-1
 366 188 l 1,21,-1
 366 110 l 1,22,23
 390 110 390 110 409.5 120.5 c 128,-1,24
 429 131 429 131 438 152 c 1,25,-1
 540 88 l 1,26,27
 510 34 510 34 454 10 c 128,-1,28
 398 -14 398 -14 313 -14 c 2,29,-1
 284 -14 l 2,30,31
 235 -14 235 -14 193.5 -5 c 128,-1,32
 152 4 152 4 121.5 23.5 c 128,-1,33
 91 43 91 43 73.5 73.5 c 128,-1,34
 56 104 56 104 56 146 c 2,35,-1
 56 158 l 2,36,37
 56 193 56 193 70 221 c 128,-1,38
 84 249 84 249 108 268.5 c 128,-1,39
 132 288 132 288 163.5 298 c 128,-1,40
 195 308 195 308 230 308 c 2,41,-1
 240 308 l 1,42,-1
 240 386 l 1,43,44
 220 386 220 386 200.5 372 c 128,-1,45
 181 358 181 358 170 338 c 1,46,-1
 88 424 l 1,47,48
 121 466 121 466 172 488 c 128,-1,49
 223 510 223 510 298 510 c 0,14,15
EndSplineSet
EndChar

StartChar: uni0180
Encoding: 384 384 309
Width: 612
Flags: W
LayerCount: 2
Fore
SplineSet
183 0 m 1,0,-1
 57 0 l 1,1,-1
 57 538 l 1,2,-1
 -3 538 l 1,3,-1
 -3 652 l 1,4,-1
 57 652 l 1,5,-1
 57 700 l 1,6,-1
 183 700 l 1,7,-1
 183 652 l 1,8,-1
 338 652 l 1,9,-1
 338 538 l 1,10,-1
 183 538 l 1,11,-1
 183 424 l 1,12,-1
 201 424 l 1,13,14
 221 465 221 465 259 487.5 c 128,-1,15
 297 510 297 510 356 510 c 0,16,17
 400 510 400 510 439.5 493 c 128,-1,18
 479 476 479 476 508.5 443.5 c 128,-1,19
 538 411 538 411 555.5 364 c 128,-1,20
 573 317 573 317 573 257 c 2,21,-1
 573 239 l 2,22,23
 573 178 573 178 556 131 c 128,-1,24
 539 84 539 84 510 51.5 c 128,-1,25
 481 19 481 19 441.5 2.5 c 128,-1,26
 402 -14 402 -14 356 -14 c 0,27,28
 322 -14 322 -14 297 -7 c 128,-1,29
 272 0 272 0 253.5 12 c 128,-1,30
 235 24 235 24 222.5 39.5 c 128,-1,31
 210 55 210 55 201 72 c 1,32,-1
 183 72 l 1,33,-1
 183 0 l 1,0,-1
315 106 m 256,34,35
 374 106 374 106 410.5 142.5 c 128,-1,36
 447 179 447 179 447 242 c 2,37,-1
 447 254 l 2,38,39
 447 317 447 317 410.5 353.5 c 128,-1,40
 374 390 374 390 315 390 c 256,41,42
 256 390 256 390 219.5 352.5 c 128,-1,43
 183 315 183 315 183 254 c 2,44,-1
 183 242 l 2,45,46
 183 181 183 181 219.5 143.5 c 128,-1,47
 256 106 256 106 315 106 c 256,34,35
EndSplineSet
EndChar

StartChar: ccedilla
Encoding: 231 231 310
Width: 612
Flags: W
LayerCount: 2
Fore
SplineSet
562 182 m 1,0,1
 546 100 546 100 490.5 48 c 128,-1,2
 435 -4 435 -4 341 -12 c 1,3,-1
 334 -46 l 1,4,-1
 346 -46 l 1,5,6
 351 -37 351 -37 362 -30.5 c 128,-1,7
 373 -24 373 -24 392 -24 c 0,8,9
 434 -24 434 -24 454.5 -50 c 128,-1,10
 475 -76 475 -76 475 -112 c 0,11,12
 475 -159 475 -159 443.5 -185.5 c 128,-1,13
 412 -212 412 -212 365 -212 c 0,14,15
 336 -212 336 -212 317 -206.5 c 128,-1,16
 298 -201 298 -201 281 -192 c 1,17,-1
 307 -124 l 1,18,19
 330 -138 330 -138 357 -138 c 0,20,21
 372 -138 372 -138 381.5 -131 c 128,-1,22
 391 -124 391 -124 391 -112 c 0,23,24
 391 -103 391 -103 386 -96.5 c 128,-1,25
 381 -90 381 -90 371 -90 c 0,26,27
 354 -90 354 -90 351 -104 c 1,28,-1
 254 -104 l 1,29,-1
 254 -92 l 1,30,-1
 271 -11 l 1,31,32
 224 -5 224 -5 183.5 14 c 128,-1,33
 143 33 143 33 114 64.5 c 128,-1,34
 85 96 85 96 68.5 140 c 128,-1,35
 52 184 52 184 52 238 c 2,36,-1
 52 250 l 2,37,38
 52 310 52 310 72 358 c 128,-1,39
 92 406 92 406 127.5 440 c 128,-1,40
 163 474 163 474 210.5 492 c 128,-1,41
 258 510 258 510 312 510 c 0,42,43
 416 510 416 510 480.5 456 c 128,-1,44
 545 402 545 402 562 314 c 1,45,-1
 438 282 l 1,46,47
 432 326 432 326 400 358 c 128,-1,48
 368 390 368 390 310 390 c 0,49,50
 283 390 283 390 259 380 c 128,-1,51
 235 370 235 370 217 351.5 c 128,-1,52
 199 333 199 333 188.5 306.5 c 128,-1,53
 178 280 178 280 178 247 c 2,54,-1
 178 241 l 2,55,56
 178 208 178 208 188.5 182.5 c 128,-1,57
 199 157 199 157 217 140 c 128,-1,58
 235 123 235 123 259 114.5 c 128,-1,59
 283 106 283 106 310 106 c 0,60,61
 368 106 368 106 398.5 135 c 128,-1,62
 429 164 429 164 438 213 c 1,63,-1
 562 182 l 1,0,1
EndSplineSet
EndChar

StartChar: eth
Encoding: 240 240 315
Width: 612
Flags: W
LayerCount: 2
Fore
SplineSet
358 723 m 1,0,-1
 345 681 l 1,1,2
 403 653 403 653 445 612.5 c 128,-1,3
 487 572 487 572 513.5 522 c 128,-1,4
 540 472 540 472 552.5 413.5 c 128,-1,5
 565 355 565 355 565 291 c 0,6,7
 565 215 565 215 545 158 c 128,-1,8
 525 101 525 101 490 62.5 c 128,-1,9
 455 24 455 24 406.5 5 c 128,-1,10
 358 -14 358 -14 301 -14 c 0,11,12
 249 -14 249 -14 203 3.5 c 128,-1,13
 157 21 157 21 122.5 54 c 128,-1,14
 88 87 88 87 67.5 134.5 c 128,-1,15
 47 182 47 182 47 242 c 2,16,-1
 47 254 l 2,17,18
 47 315 47 315 65 362.5 c 128,-1,19
 83 410 83 410 113.5 443 c 128,-1,20
 144 476 144 476 183.5 493 c 128,-1,21
 223 510 223 510 267 510 c 0,22,23
 314 510 314 510 342.5 499 c 128,-1,24
 371 488 371 488 391 464 c 1,25,-1
 409 464 l 1,26,27
 395 499 395 499 370 525 c 128,-1,28
 345 551 345 551 310 570 c 1,29,-1
 298 532 l 1,30,-1
 200 561 l 1,31,-1
 213 603 l 1,32,33
 197 607 197 607 180.5 609.5 c 128,-1,34
 164 612 164 612 147 614 c 1,35,-1
 167 728 l 1,36,37
 188 726 188 726 208 722.5 c 128,-1,38
 228 719 228 719 248 714 c 1,39,-1
 260 752 l 1,40,-1
 358 723 l 1,0,-1
302 106 m 256,41,42
 360 106 360 106 396 142.5 c 128,-1,43
 432 179 432 179 432 254 c 0,44,45
 432 317 432 317 396 353.5 c 128,-1,46
 360 390 360 390 302 390 c 256,47,48
 244 390 244 390 208.5 352 c 128,-1,49
 173 314 173 314 173 251 c 2,50,-1
 173 245 l 2,51,52
 173 179 173 179 208.5 142.5 c 128,-1,53
 244 106 244 106 302 106 c 256,41,42
EndSplineSet
EndChar

StartChar: dcaron
Encoding: 271 271 316
Width: 612
Flags: W
LayerCount: 2
Fore
SplineSet
270 40 m 1,0,-1
 252 40 l 1,1,2
 244 13 244 13 221.5 -0.5 c 128,-1,3
 199 -14 199 -14 164 -14 c 0,4,5
 89 -14 89 -14 53.5 48 c 128,-1,6
 18 110 18 110 18 235 c 2,7,-1
 18 269 l 2,8,9
 18 398 18 398 57 454 c 128,-1,10
 96 510 96 510 164 510 c 0,11,12
 197 510 197 510 221.5 494 c 128,-1,13
 246 478 246 478 252 454 c 1,14,-1
 270 454 l 1,15,-1
 270 700 l 1,16,-1
 396 700 l 1,17,-1
 396 0 l 1,18,-1
 270 0 l 1,19,-1
 270 40 l 1,0,-1
209 390 m 0,20,21
 174 390 174 390 159 359.5 c 128,-1,22
 144 329 144 329 144 263 c 2,23,-1
 144 233 l 2,24,25
 144 167 144 167 159 136.5 c 128,-1,26
 174 106 174 106 209 106 c 0,27,28
 241 106 241 106 255.5 129.5 c 128,-1,29
 270 153 270 153 270 194 c 2,30,-1
 270 302 l 2,31,32
 270 343 270 343 255.5 366.5 c 128,-1,33
 241 390 241 390 209 390 c 0,20,21
600 496 m 2,34,35
 600 458 600 458 574 432 c 128,-1,36
 548 406 548 406 510 406 c 2,37,-1
 450 406 l 1,38,-1
 450 484 l 1,39,-1
 495 484 l 2,40,41
 522 484 522 484 522 514 c 2,42,-1
 522 526 l 1,43,-1
 513 526 l 2,44,45
 495 526 495 526 479.5 533 c 128,-1,46
 464 540 464 540 452 552 c 128,-1,47
 440 564 440 564 433 579.5 c 128,-1,48
 426 595 426 595 426 613 c 256,49,50
 426 631 426 631 433 646.5 c 128,-1,51
 440 662 440 662 452 674 c 128,-1,52
 464 686 464 686 479.5 693 c 128,-1,53
 495 700 495 700 513 700 c 256,54,55
 531 700 531 700 546.5 693 c 128,-1,56
 562 686 562 686 574 674 c 128,-1,57
 586 662 586 662 593 646.5 c 128,-1,58
 600 631 600 631 600 613 c 2,59,-1
 600 496 l 2,34,35
EndSplineSet
EndChar

StartChar: dcroat
Encoding: 273 273 319
Width: 612
Flags: W
LayerCount: 2
Fore
SplineSet
426 72 m 1,0,-1
 408 72 l 1,1,2
 400 55 400 55 388.5 39.5 c 128,-1,3
 377 24 377 24 358.5 12 c 128,-1,4
 340 0 340 0 314.5 -7 c 128,-1,5
 289 -14 289 -14 253 -14 c 0,6,7
 207 -14 207 -14 167.5 2.5 c 128,-1,8
 128 19 128 19 98.5 51.5 c 128,-1,9
 69 84 69 84 52.5 131 c 128,-1,10
 36 178 36 178 36 239 c 2,11,-1
 36 257 l 2,12,13
 36 317 36 317 53.5 364 c 128,-1,14
 71 411 71 411 101.5 443.5 c 128,-1,15
 132 476 132 476 172.5 493 c 128,-1,16
 213 510 213 510 258 510 c 0,17,18
 318 510 318 510 353 487.5 c 128,-1,19
 388 465 388 465 408 424 c 1,20,-1
 426 424 l 1,21,-1
 426 538 l 1,22,-1
 270 538 l 1,23,-1
 270 652 l 1,24,-1
 426 652 l 1,25,-1
 426 700 l 1,26,-1
 552 700 l 1,27,-1
 552 652 l 1,28,-1
 612 652 l 1,29,-1
 612 538 l 1,30,-1
 552 538 l 1,31,-1
 552 0 l 1,32,-1
 426 0 l 1,33,-1
 426 72 l 1,0,-1
294 106 m 256,34,35
 353 106 353 106 389.5 143.5 c 128,-1,36
 426 181 426 181 426 242 c 2,37,-1
 426 254 l 2,38,39
 426 315 426 315 389.5 352.5 c 128,-1,40
 353 390 353 390 294 390 c 256,41,42
 235 390 235 390 198.5 353.5 c 128,-1,43
 162 317 162 317 162 254 c 2,44,-1
 162 242 l 2,45,46
 162 179 162 179 198.5 142.5 c 128,-1,47
 235 106 235 106 294 106 c 256,34,35
EndSplineSet
EndChar

StartChar: eogonek
Encoding: 281 281 327
Width: 612
Flags: W
LayerCount: 2
Fore
SplineSet
189 207 m 1,0,1
 190 185 190 185 199.5 166.5 c 128,-1,2
 209 148 209 148 225.5 134.5 c 128,-1,3
 242 121 242 121 263.5 113.5 c 128,-1,4
 285 106 285 106 309 106 c 0,5,6
 356 106 356 106 381 122.5 c 128,-1,7
 406 139 406 139 417 162 c 1,8,-1
 525 102 l 1,9,10
 517 85 517 85 503 66.5 c 128,-1,11
 489 48 489 48 467.5 31.5 c 128,-1,12
 446 15 446 15 416 3.5 c 128,-1,13
 386 -8 386 -8 346 -12 c 1,14,-1
 336 -56 l 2,15,16
 335 -61 335 -61 335 -64 c 0,17,18
 335 -86 335 -86 358 -86 c 2,19,-1
 404 -86 l 1,20,-1
 404 -170 l 1,21,-1
 324 -170 l 2,22,23
 294 -170 294 -170 269 -151 c 128,-1,24
 244 -132 244 -132 244 -95 c 0,25,26
 244 -86 244 -86 247 -72 c 2,27,-1
 261 -10 l 1,28,29
 170 5 170 5 114.5 72 c 128,-1,30
 59 139 59 139 59 250 c 2,31,-1
 59 256 l 2,32,33
 59 313 59 313 78.5 360 c 128,-1,34
 98 407 98 407 132 440 c 128,-1,35
 166 473 166 473 211.5 491.5 c 128,-1,36
 257 510 257 510 309 510 c 0,37,38
 373 510 373 510 419 487.5 c 128,-1,39
 465 465 465 465 495 430.5 c 128,-1,40
 525 396 525 396 539 354.5 c 128,-1,41
 553 313 553 313 553 274 c 2,42,-1
 553 207 l 1,43,-1
 189 207 l 1,0,1
308 396 m 256,44,45
 260 396 260 396 230 371.5 c 128,-1,46
 200 347 200 347 191 315 c 1,47,-1
 425 315 l 1,48,49
 419 350 419 350 387.5 373 c 128,-1,50
 356 396 356 396 308 396 c 256,44,45
EndSplineSet
EndChar

StartChar: uni0123
Encoding: 291 291 340
Width: 612
Flags: W
LayerCount: 2
Fore
SplineSet
177 778 m 2,0,1
 177 816 177 816 203 842 c 128,-1,2
 229 868 229 868 267 868 c 2,3,-1
 327 868 l 1,4,-1
 327 790 l 1,5,-1
 282 790 l 2,6,7
 255 790 255 790 255 760 c 2,8,-1
 255 748 l 1,9,-1
 264 748 l 2,10,11
 282 748 282 748 297.5 741 c 128,-1,12
 313 734 313 734 325 722 c 128,-1,13
 337 710 337 710 344 694.5 c 128,-1,14
 351 679 351 679 351 661 c 256,15,16
 351 643 351 643 344 627.5 c 128,-1,17
 337 612 337 612 325 600 c 128,-1,18
 313 588 313 588 297.5 581 c 128,-1,19
 282 574 282 574 264 574 c 256,20,21
 246 574 246 574 230.5 581 c 128,-1,22
 215 588 215 588 203 600 c 128,-1,23
 191 612 191 612 184 627.5 c 128,-1,24
 177 643 177 643 177 661 c 2,25,-1
 177 778 l 2,0,1
432 72 m 1,26,-1
 414 72 l 1,27,28
 406 55 406 55 394.5 39.5 c 128,-1,29
 383 24 383 24 364.5 12 c 128,-1,30
 346 0 346 0 320.5 -7 c 128,-1,31
 295 -14 295 -14 259 -14 c 0,32,33
 213 -14 213 -14 173.5 2.5 c 128,-1,34
 134 19 134 19 104.5 51.5 c 128,-1,35
 75 84 75 84 58.5 131 c 128,-1,36
 42 178 42 178 42 239 c 2,37,-1
 42 257 l 2,38,39
 42 317 42 317 59.5 364 c 128,-1,40
 77 411 77 411 107.5 443.5 c 128,-1,41
 138 476 138 476 178.5 493 c 128,-1,42
 219 510 219 510 264 510 c 0,43,44
 324 510 324 510 359 487.5 c 128,-1,45
 394 465 394 465 414 424 c 1,46,-1
 432 424 l 1,47,-1
 432 496 l 1,48,-1
 558 496 l 1,49,-1
 558 -122 l 2,50,51
 558 -156 558 -156 536.5 -178 c 128,-1,52
 515 -200 515 -200 481 -200 c 2,53,-1
 147 -200 l 1,54,-1
 147 -80 l 1,55,-1
 405 -80 l 2,56,57
 432 -80 432 -80 432 -50 c 2,58,-1
 432 72 l 1,26,-1
300 106 m 256,59,60
 359 106 359 106 395.5 143.5 c 128,-1,61
 432 181 432 181 432 242 c 2,62,-1
 432 254 l 2,63,64
 432 315 432 315 395.5 352.5 c 128,-1,65
 359 390 359 390 300 390 c 256,66,67
 241 390 241 390 204.5 353.5 c 128,-1,68
 168 317 168 317 168 254 c 2,69,-1
 168 242 l 2,70,71
 168 179 168 179 204.5 142.5 c 128,-1,72
 241 106 241 106 300 106 c 256,59,60
EndSplineSet
Substitution2: "'ss02' Style Set 2 in Latin lookup 3 subtable" uni0123.alt
Substitution2: "'aalt' Access All Alternates in Latin lookup 0 subtable" uni0123.alt
EndChar

StartChar: hbar
Encoding: 295 295 346
Width: 612
Flags: W
LayerCount: 2
Fore
SplineSet
206 0 m 1,0,-1
 80 0 l 1,1,-1
 80 538 l 1,2,-1
 20 538 l 1,3,-1
 20 652 l 1,4,-1
 80 652 l 1,5,-1
 80 700 l 1,6,-1
 206 700 l 1,7,-1
 206 652 l 1,8,-1
 362 652 l 1,9,-1
 362 538 l 1,10,-1
 206 538 l 1,11,-1
 206 416 l 1,12,-1
 224 416 l 1,13,14
 243 461 243 461 280 485.5 c 128,-1,15
 317 510 317 510 371 510 c 0,16,17
 408 510 408 510 439 498 c 128,-1,18
 470 486 470 486 493 462 c 128,-1,19
 516 438 516 438 529 400.5 c 128,-1,20
 542 363 542 363 542 312 c 2,21,-1
 542 0 l 1,22,-1
 416 0 l 1,23,-1
 416 282 l 2,24,25
 416 335 416 335 390.5 365.5 c 128,-1,26
 365 396 365 396 317 396 c 0,27,28
 261 396 261 396 233.5 358.5 c 128,-1,29
 206 321 206 321 206 258 c 2,30,-1
 206 0 l 1,0,-1
EndSplineSet
EndChar

StartChar: imacron
Encoding: 299 299 352
Width: 612
Flags: W
LayerCount: 2
Fore
SplineSet
381 570 m 1,0,-1
 99 570 l 1,1,-1
 99 672 l 1,2,-1
 381 672 l 1,3,-1
 381 570 l 1,0,-1
87 120 m 1,4,-1
 255 120 l 1,5,-1
 255 376 l 1,6,-1
 99 376 l 1,7,-1
 99 496 l 1,8,-1
 381 496 l 1,9,-1
 381 120 l 1,10,-1
 525 120 l 1,11,-1
 525 0 l 1,12,-1
 87 0 l 1,13,-1
 87 120 l 1,4,-1
EndSplineSet
Substitution2: "'ss02' Style Set 2 in Latin lookup 3 subtable" imacron.alt
Substitution2: "'aalt' Access All Alternates in Latin lookup 0 subtable" imacron.alt
EndChar

StartChar: iogonek
Encoding: 303 303 354
Width: 612
Flags: W
LayerCount: 2
Fore
SplineSet
87 120 m 1,0,-1
 255 120 l 1,1,-1
 255 376 l 1,2,-1
 99 376 l 1,3,-1
 99 496 l 1,4,-1
 381 496 l 1,5,-1
 381 120 l 1,6,-1
 525 120 l 1,7,-1
 525 0 l 1,8,-1
 512 -56 l 2,9,10
 511 -61 511 -61 511 -64 c 0,11,12
 511 -86 511 -86 534 -86 c 2,13,-1
 580 -86 l 1,14,-1
 580 -170 l 1,15,-1
 500 -170 l 2,16,17
 470 -170 470 -170 445 -151 c 128,-1,18
 420 -132 420 -132 420 -95 c 0,19,20
 420 -86 420 -86 423 -72 c 2,21,-1
 439 0 l 1,22,-1
 87 0 l 1,23,-1
 87 120 l 1,0,-1
412 643 m 256,24,25
 412 623 412 623 404.5 605.5 c 128,-1,26
 397 588 397 588 384 575.5 c 128,-1,27
 371 563 371 563 353.5 555.5 c 128,-1,28
 336 548 336 548 317 548 c 0,29,30
 297 548 297 548 280 555.5 c 128,-1,31
 263 563 263 563 250 575.5 c 128,-1,32
 237 588 237 588 229.5 605.5 c 128,-1,33
 222 623 222 623 222 643 c 256,34,35
 222 663 222 663 229.5 680.5 c 128,-1,36
 237 698 237 698 250 710.5 c 128,-1,37
 263 723 263 723 280 730.5 c 128,-1,38
 297 738 297 738 317 738 c 0,39,40
 336 738 336 738 353.5 730.5 c 128,-1,41
 371 723 371 723 384 710.5 c 128,-1,42
 397 698 397 698 404.5 680.5 c 128,-1,43
 412 663 412 663 412 643 c 256,24,25
EndSplineSet
Substitution2: "'ss02' Style Set 2 in Latin lookup 3 subtable" iogonek.alt
Substitution2: "'aalt' Access All Alternates in Latin lookup 0 subtable" iogonek.alt
EndChar

StartChar: dotlessi
Encoding: 305 305 358
Width: 612
Flags: W
LayerCount: 2
Fore
SplineSet
87 120 m 1,0,-1
 255 120 l 1,1,-1
 255 376 l 1,2,-1
 99 376 l 1,3,-1
 99 496 l 1,4,-1
 381 496 l 1,5,-1
 381 120 l 1,6,-1
 525 120 l 1,7,-1
 525 0 l 1,8,-1
 87 0 l 1,9,-1
 87 120 l 1,0,-1
EndSplineSet
Substitution2: "'ss02' Style Set 2 in Latin lookup 3 subtable" dotlessi.alt
Substitution2: "'aalt' Access All Alternates in Latin lookup 0 subtable" dotlessi.alt
EndChar

StartChar: jcircumflex
Encoding: 309 309 359
Width: 612
Flags: W
LayerCount: 2
Fore
SplineSet
138 496 m 1,0,-1
 456 496 l 1,1,-1
 456 -98 l 2,2,3
 456 -150 456 -150 428 -175 c 128,-1,4
 400 -200 400 -200 355 -200 c 2,5,-1
 120 -200 l 1,6,-1
 120 -80 l 1,7,-1
 300 -80 l 2,8,9
 330 -80 330 -80 330 -47 c 2,10,-1
 330 376 l 1,11,-1
 138 376 l 1,12,-1
 138 496 l 1,0,-1
346 570 m 1,13,-1
 303 658 l 1,14,-1
 291 658 l 1,15,-1
 248 570 l 1,16,-1
 127 570 l 1,17,-1
 211 706 l 1,18,-1
 383 706 l 1,19,-1
 467 570 l 1,20,-1
 346 570 l 1,13,-1
EndSplineSet
Substitution2: "'ss02' Style Set 2 in Latin lookup 3 subtable" jcircumflex.alt
Substitution2: "'aalt' Access All Alternates in Latin lookup 0 subtable" jcircumflex.alt
EndChar

StartChar: uni0137
Encoding: 311 311 360
Width: 612
Flags: W
LayerCount: 2
Fore
SplineSet
413 -248 m 2,0,1
 413 -286 413 -286 387 -312 c 128,-1,2
 361 -338 361 -338 323 -338 c 2,3,-1
 263 -338 l 1,4,-1
 263 -260 l 1,5,-1
 308 -260 l 2,6,7
 335 -260 335 -260 335 -230 c 2,8,-1
 335 -218 l 1,9,-1
 326 -218 l 2,10,11
 308 -218 308 -218 292.5 -211 c 128,-1,12
 277 -204 277 -204 265 -192 c 128,-1,13
 253 -180 253 -180 246 -164.5 c 128,-1,14
 239 -149 239 -149 239 -131 c 256,15,16
 239 -113 239 -113 246 -97.5 c 128,-1,17
 253 -82 253 -82 265 -70 c 128,-1,18
 277 -58 277 -58 292.5 -51 c 128,-1,19
 308 -44 308 -44 326 -44 c 256,20,21
 344 -44 344 -44 359.5 -51 c 128,-1,22
 375 -58 375 -58 387 -70 c 128,-1,23
 399 -82 399 -82 406 -97.5 c 128,-1,24
 413 -113 413 -113 413 -131 c 2,25,-1
 413 -248 l 2,0,1
244 314 m 1,26,-1
 268 314 l 1,27,-1
 400 496 l 1,28,-1
 538 496 l 1,29,-1
 538 490 l 1,30,-1
 378 263 l 1,31,-1
 378 245 l 1,32,-1
 554 6 l 1,33,-1
 554 0 l 1,34,-1
 410 0 l 1,35,-1
 268 194 l 1,36,-1
 244 194 l 1,37,-1
 244 0 l 1,38,-1
 118 0 l 1,39,-1
 118 700 l 1,40,-1
 244 700 l 1,41,-1
 244 314 l 1,26,-1
EndSplineSet
EndChar

StartChar: kgreenlandic
Encoding: 312 312 361
Width: 612
Flags: W
LayerCount: 2
Fore
SplineSet
244 496 m 1,0,-1
 244 314 l 1,1,-1
 268 314 l 1,2,-1
 400 496 l 1,3,-1
 538 496 l 1,4,-1
 538 490 l 1,5,-1
 378 263 l 1,6,-1
 378 245 l 1,7,-1
 554 6 l 1,8,-1
 554 0 l 1,9,-1
 410 0 l 1,10,-1
 268 194 l 1,11,-1
 244 194 l 1,12,-1
 244 0 l 1,13,-1
 118 0 l 1,14,-1
 118 496 l 1,15,-1
 244 496 l 1,0,-1
EndSplineSet
EndChar

StartChar: lcaron
Encoding: 318 318 363
Width: 612
Flags: W
LayerCount: 2
Fore
SplineSet
547 496 m 2,0,1
 547 458 547 458 521 432 c 128,-1,2
 495 406 495 406 457 406 c 2,3,-1
 397 406 l 1,4,-1
 397 484 l 1,5,-1
 442 484 l 2,6,7
 469 484 469 484 469 514 c 2,8,-1
 469 526 l 1,9,-1
 460 526 l 2,10,11
 442 526 442 526 426.5 533 c 128,-1,12
 411 540 411 540 399 552 c 128,-1,13
 387 564 387 564 380 579.5 c 128,-1,14
 373 595 373 595 373 613 c 256,15,16
 373 631 373 631 380 646.5 c 128,-1,17
 387 662 387 662 399 674 c 128,-1,18
 411 686 411 686 426.5 693 c 128,-1,19
 442 700 442 700 460 700 c 256,20,21
 478 700 478 700 493.5 693 c 128,-1,22
 509 686 509 686 521 674 c 128,-1,23
 533 662 533 662 540 646.5 c 128,-1,24
 547 631 547 631 547 613 c 2,25,-1
 547 496 l 2,0,1
43 120 m 1,26,-1
 217 120 l 1,27,-1
 217 580 l 1,28,-1
 49 580 l 1,29,-1
 49 700 l 1,30,-1
 343 700 l 1,31,-1
 343 120 l 1,32,-1
 505 120 l 1,33,-1
 505 0 l 1,34,-1
 43 0 l 1,35,-1
 43 120 l 1,26,-1
EndSplineSet
Substitution2: "'ss02' Style Set 2 in Latin lookup 3 subtable" lcaron.alt
Substitution2: "'aalt' Access All Alternates in Latin lookup 0 subtable" lcaron.alt
EndChar

StartChar: uni013C
Encoding: 316 316 364
Width: 612
Flags: W
LayerCount: 2
Fore
SplineSet
399 -248 m 2,0,1
 399 -286 399 -286 373 -312 c 128,-1,2
 347 -338 347 -338 309 -338 c 2,3,-1
 249 -338 l 1,4,-1
 249 -260 l 1,5,-1
 294 -260 l 2,6,7
 321 -260 321 -260 321 -230 c 2,8,-1
 321 -218 l 1,9,-1
 312 -218 l 2,10,11
 294 -218 294 -218 278.5 -211 c 128,-1,12
 263 -204 263 -204 251 -192 c 128,-1,13
 239 -180 239 -180 232 -164.5 c 128,-1,14
 225 -149 225 -149 225 -131 c 256,15,16
 225 -113 225 -113 232 -97.5 c 128,-1,17
 239 -82 239 -82 251 -70 c 128,-1,18
 263 -58 263 -58 278.5 -51 c 128,-1,19
 294 -44 294 -44 312 -44 c 256,20,21
 330 -44 330 -44 345.5 -51 c 128,-1,22
 361 -58 361 -58 373 -70 c 128,-1,23
 385 -82 385 -82 392 -97.5 c 128,-1,24
 399 -113 399 -113 399 -131 c 2,25,-1
 399 -248 l 2,0,1
75 120 m 1,26,-1
 249 120 l 1,27,-1
 249 580 l 1,28,-1
 81 580 l 1,29,-1
 81 700 l 1,30,-1
 375 700 l 1,31,-1
 375 120 l 1,32,-1
 537 120 l 1,33,-1
 537 0 l 1,34,-1
 75 0 l 1,35,-1
 75 120 l 1,26,-1
EndSplineSet
Substitution2: "'ss02' Style Set 2 in Latin lookup 3 subtable" uni013C.alt
Substitution2: "'aalt' Access All Alternates in Latin lookup 0 subtable" uni013C.alt
EndChar

StartChar: lslash
Encoding: 322 322 368
Width: 612
Flags: W
LayerCount: 2
Fore
SplineSet
75 120 m 1,0,-1
 249 120 l 1,1,-1
 249 235 l 1,2,-1
 208 215 l 1,3,-1
 154 322 l 1,4,-1
 249 370 l 1,5,-1
 249 580 l 1,6,-1
 81 580 l 1,7,-1
 81 700 l 1,8,-1
 375 700 l 1,9,-1
 375 433 l 1,10,-1
 431 462 l 1,11,-1
 485 355 l 1,12,-1
 375 299 l 1,13,-1
 375 120 l 1,14,-1
 537 120 l 1,15,-1
 537 0 l 1,16,-1
 75 0 l 1,17,-1
 75 120 l 1,0,-1
EndSplineSet
Substitution2: "'ss02' Style Set 2 in Latin lookup 3 subtable" lslash.alt
Substitution2: "'aalt' Access All Alternates in Latin lookup 0 subtable" lslash.alt
EndChar

StartChar: uni0146
Encoding: 326 326 374
Width: 612
Flags: W
LayerCount: 2
Fore
SplineSet
402 -248 m 2,0,1
 402 -286 402 -286 376 -312 c 128,-1,2
 350 -338 350 -338 312 -338 c 2,3,-1
 252 -338 l 1,4,-1
 252 -260 l 1,5,-1
 297 -260 l 2,6,7
 324 -260 324 -260 324 -230 c 2,8,-1
 324 -218 l 1,9,-1
 315 -218 l 2,10,11
 297 -218 297 -218 281.5 -211 c 128,-1,12
 266 -204 266 -204 254 -192 c 128,-1,13
 242 -180 242 -180 235 -164.5 c 128,-1,14
 228 -149 228 -149 228 -131 c 256,15,16
 228 -113 228 -113 235 -97.5 c 128,-1,17
 242 -82 242 -82 254 -70 c 128,-1,18
 266 -58 266 -58 281.5 -51 c 128,-1,19
 297 -44 297 -44 315 -44 c 256,20,21
 333 -44 333 -44 348.5 -51 c 128,-1,22
 364 -58 364 -58 376 -70 c 128,-1,23
 388 -82 388 -82 395 -97.5 c 128,-1,24
 402 -113 402 -113 402 -131 c 2,25,-1
 402 -248 l 2,0,1
204 0 m 1,26,-1
 78 0 l 1,27,-1
 78 496 l 1,28,-1
 204 496 l 1,29,-1
 204 422 l 1,30,-1
 222 422 l 1,31,32
 239 464 239 464 277 487 c 128,-1,33
 315 510 315 510 366 510 c 0,34,35
 402 510 402 510 433.5 498.5 c 128,-1,36
 465 487 465 487 489 463 c 128,-1,37
 513 439 513 439 526.5 402 c 128,-1,38
 540 365 540 365 540 314 c 2,39,-1
 540 0 l 1,40,-1
 414 0 l 1,41,-1
 414 282 l 2,42,43
 414 335 414 335 388.5 365.5 c 128,-1,44
 363 396 363 396 315 396 c 0,45,46
 259 396 259 396 231.5 358.5 c 128,-1,47
 204 321 204 321 204 258 c 2,48,-1
 204 0 l 1,26,-1
EndSplineSet
EndChar

StartChar: napostrophe
Encoding: 329 329 378
Width: 612
Flags: W
LayerCount: 2
Fore
SplineSet
228 628 m 2,0,1
 228 590 228 590 202 564 c 128,-1,2
 176 538 176 538 138 538 c 2,3,-1
 78 538 l 1,4,-1
 78 616 l 1,5,-1
 123 616 l 2,6,7
 150 616 150 616 150 646 c 2,8,-1
 150 652 l 1,9,-1
 141 652 l 2,10,11
 123 652 123 652 107.5 659 c 128,-1,12
 92 666 92 666 80 678 c 128,-1,13
 68 690 68 690 61 705.5 c 128,-1,14
 54 721 54 721 54 739 c 256,15,16
 54 757 54 757 61 772.5 c 128,-1,17
 68 788 68 788 80 800 c 128,-1,18
 92 812 92 812 107.5 819 c 128,-1,19
 123 826 123 826 141 826 c 256,20,21
 159 826 159 826 174.5 819 c 128,-1,22
 190 812 190 812 202 800 c 128,-1,23
 214 788 214 788 221 772.5 c 128,-1,24
 228 757 228 757 228 739 c 2,25,-1
 228 628 l 2,0,1
204 0 m 1,26,-1
 78 0 l 1,27,-1
 78 496 l 1,28,-1
 204 496 l 1,29,-1
 204 422 l 1,30,-1
 222 422 l 1,31,32
 239 464 239 464 277 487 c 128,-1,33
 315 510 315 510 366 510 c 0,34,35
 402 510 402 510 433.5 498.5 c 128,-1,36
 465 487 465 487 489 463 c 128,-1,37
 513 439 513 439 526.5 402 c 128,-1,38
 540 365 540 365 540 314 c 2,39,-1
 540 0 l 1,40,-1
 414 0 l 1,41,-1
 414 282 l 2,42,43
 414 335 414 335 388.5 365.5 c 128,-1,44
 363 396 363 396 315 396 c 0,45,46
 259 396 259 396 231.5 358.5 c 128,-1,47
 204 321 204 321 204 258 c 2,48,-1
 204 0 l 1,26,-1
EndSplineSet
EndChar

StartChar: uni01EB
Encoding: 491 491 387
Width: 612
Flags: W
LayerCount: 2
Fore
SplineSet
564 242 m 2,0,1
 564 187 564 187 547 143 c 128,-1,2
 530 99 530 99 500.5 67 c 128,-1,3
 471 35 471 35 431.5 15 c 128,-1,4
 392 -5 392 -5 348 -11 c 1,5,-1
 338 -56 l 2,6,7
 337 -61 337 -61 337 -64 c 0,8,9
 337 -86 337 -86 360 -86 c 2,10,-1
 406 -86 l 1,11,-1
 406 -170 l 1,12,-1
 326 -170 l 2,13,14
 296 -170 296 -170 271 -151 c 128,-1,15
 246 -132 246 -132 246 -95 c 0,16,17
 246 -86 246 -86 249 -72 c 2,18,-1
 263 -11 l 1,19,20
 219 -5 219 -5 179.5 15 c 128,-1,21
 140 35 140 35 111 67 c 128,-1,22
 82 99 82 99 65 143 c 128,-1,23
 48 187 48 187 48 242 c 2,24,-1
 48 254 l 2,25,26
 48 315 48 315 69 362.5 c 128,-1,27
 90 410 90 410 126 443 c 128,-1,28
 162 476 162 476 208.5 493 c 128,-1,29
 255 510 255 510 306 510 c 256,30,31
 357 510 357 510 403.5 493 c 128,-1,32
 450 476 450 476 486 443 c 128,-1,33
 522 410 522 410 543 362.5 c 128,-1,34
 564 315 564 315 564 254 c 2,35,-1
 564 242 l 2,0,1
306 106 m 256,36,37
 333 106 333 106 357 115 c 128,-1,38
 381 124 381 124 399 141 c 128,-1,39
 417 158 417 158 427.5 182.5 c 128,-1,40
 438 207 438 207 438 238 c 2,41,-1
 438 258 l 2,42,43
 438 289 438 289 427.5 313.5 c 128,-1,44
 417 338 417 338 399 355 c 128,-1,45
 381 372 381 372 357 381 c 128,-1,46
 333 390 333 390 306 390 c 256,47,48
 279 390 279 390 255 381 c 128,-1,49
 231 372 231 372 213 355 c 128,-1,50
 195 338 195 338 184.5 313.5 c 128,-1,51
 174 289 174 289 174 258 c 2,52,-1
 174 238 l 2,53,54
 174 207 174 207 184.5 182.5 c 128,-1,55
 195 158 195 158 213 141 c 128,-1,56
 231 124 231 124 255 115 c 128,-1,57
 279 106 279 106 306 106 c 256,36,37
EndSplineSet
EndChar

StartChar: uni01A1
Encoding: 417 417 396
Width: 612
Flags: W
LayerCount: 2
Fore
SplineSet
20 254 m 2,0,1
 20 375 20 375 72.5 442.5 c 128,-1,2
 125 510 125 510 221 510 c 0,3,4
 311 510 311 510 363 450 c 128,-1,5
 415 390 415 390 421 282 c 1,6,-1
 494 282 l 2,7,8
 521 282 521 282 521 312 c 2,9,-1
 521 322 l 1,10,-1
 512 322 l 2,11,12
 494 322 494 322 478.5 329 c 128,-1,13
 463 336 463 336 451 348 c 128,-1,14
 439 360 439 360 432 375.5 c 128,-1,15
 425 391 425 391 425 409 c 256,16,17
 425 427 425 427 432 442.5 c 128,-1,18
 439 458 439 458 451 470 c 128,-1,19
 463 482 463 482 478.5 489 c 128,-1,20
 494 496 494 496 512 496 c 256,21,22
 530 496 530 496 545.5 489 c 128,-1,23
 561 482 561 482 573 470 c 128,-1,24
 585 458 585 458 592 442.5 c 128,-1,25
 599 427 599 427 599 409 c 2,26,-1
 599 294 l 2,27,28
 599 256 599 256 573 230 c 128,-1,29
 547 204 547 204 509 204 c 2,30,-1
 421 204 l 1,31,32
 413 99 413 99 361 42.5 c 128,-1,33
 309 -14 309 -14 221 -14 c 0,34,35
 124 -14 124 -14 72 53 c 128,-1,36
 20 120 20 120 20 242 c 2,37,-1
 20 254 l 2,0,1
221 106 m 256,38,39
 255 106 255 106 275.5 135 c 128,-1,40
 296 164 296 164 296 230 c 2,41,-1
 296 266 l 2,42,43
 296 332 296 332 275.5 361 c 128,-1,44
 255 390 255 390 221 390 c 256,45,46
 187 390 187 390 166.5 361 c 128,-1,47
 146 332 146 332 146 266 c 2,48,-1
 146 230 l 2,49,50
 146 164 146 164 166.5 135 c 128,-1,51
 187 106 187 106 221 106 c 256,38,39
EndSplineSet
EndChar

StartChar: oslash
Encoding: 248 248 402
Width: 612
Flags: W
LayerCount: 2
Fore
SplineSet
564 242 m 2,0,1
 564 180 564 180 543 132.5 c 128,-1,2
 522 85 522 85 486 52.5 c 128,-1,3
 450 20 450 20 403.5 3 c 128,-1,4
 357 -14 357 -14 306 -14 c 0,5,6
 300 -14 300 -14 293.5 -13.5 c 128,-1,7
 287 -13 287 -13 281 -13 c 1,8,-1
 262 -73 l 1,9,-1
 152 -39 l 1,10,-1
 171 20 l 1,11,12
 117 50 117 50 82.5 106 c 128,-1,13
 48 162 48 162 48 242 c 2,14,-1
 48 254 l 2,15,16
 48 315 48 315 69 362.5 c 128,-1,17
 90 410 90 410 126 443 c 128,-1,18
 162 476 162 476 208.5 493 c 128,-1,19
 255 510 255 510 306 510 c 0,20,21
 313 510 313 510 319.5 510 c 128,-1,22
 326 510 326 510 332 509 c 1,23,-1
 351 565 l 1,24,-1
 460 531 l 1,25,-1
 441 475 l 1,26,27
 495 444 495 444 529.5 388 c 128,-1,28
 564 332 564 332 564 254 c 2,29,-1
 564 242 l 2,0,1
174 238 m 2,30,31
 174 207 174 207 184.5 183 c 128,-1,32
 195 159 195 159 212 142 c 1,33,-1
 293 389 l 1,34,35
 242 385 242 385 208 350.5 c 128,-1,36
 174 316 174 316 174 258 c 2,37,-1
 174 238 l 2,30,31
438 258 m 2,38,39
 438 316 438 316 402 352 c 1,40,-1
 321 107 l 1,41,42
 371 112 371 112 404.5 146 c 128,-1,43
 438 180 438 180 438 238 c 2,44,-1
 438 258 l 2,38,39
EndSplineSet
EndChar

StartChar: oe
Encoding: 339 339 403
Width: 612
Flags: W
LayerCount: 2
Fore
SplineSet
44 254 m 2,0,1
 44 313 44 313 66 360.5 c 128,-1,2
 88 408 88 408 124.5 441 c 128,-1,3
 161 474 161 474 209 492 c 128,-1,4
 257 510 257 510 310 510 c 2,5,-1
 316 510 l 2,6,7
 375 510 375 510 422 492 c 128,-1,8
 469 474 469 474 501.5 442 c 128,-1,9
 534 410 534 410 551 366.5 c 128,-1,10
 568 323 568 323 568 272 c 2,11,-1
 568 188 l 1,12,-1
 376 188 l 1,13,-1
 376 110 l 1,14,15
 400 110 400 110 419.5 120.5 c 128,-1,16
 439 131 439 131 448 152 c 1,17,-1
 550 88 l 1,18,19
 520 34 520 34 461.5 10 c 128,-1,20
 403 -14 403 -14 318 -14 c 2,21,-1
 312 -14 l 2,22,23
 261 -14 261 -14 212.5 3 c 128,-1,24
 164 20 164 20 126.5 52.5 c 128,-1,25
 89 85 89 85 66.5 132.5 c 128,-1,26
 44 180 44 180 44 242 c 2,27,-1
 44 254 l 2,0,1
170 248 m 256,28,29
 170 198 170 198 191 164.5 c 128,-1,30
 212 131 212 131 250 116 c 1,31,-1
 250 382 l 1,32,33
 212 367 212 367 191 332.5 c 128,-1,34
 170 298 170 298 170 248 c 256,28,29
442 308 m 1,35,36
 442 341 442 341 424 361 c 128,-1,37
 406 381 406 381 376 386 c 1,38,-1
 376 308 l 1,39,-1
 442 308 l 1,35,36
EndSplineSet
EndChar

StartChar: uni0157
Encoding: 343 343 405
Width: 612
Flags: W
LayerCount: 2
Fore
SplineSet
294 -248 m 2,0,1
 294 -286 294 -286 268 -312 c 128,-1,2
 242 -338 242 -338 204 -338 c 2,3,-1
 144 -338 l 1,4,-1
 144 -260 l 1,5,-1
 189 -260 l 2,6,7
 216 -260 216 -260 216 -230 c 2,8,-1
 216 -218 l 1,9,-1
 207 -218 l 2,10,11
 189 -218 189 -218 173.5 -211 c 128,-1,12
 158 -204 158 -204 146 -192 c 128,-1,13
 134 -180 134 -180 127 -164.5 c 128,-1,14
 120 -149 120 -149 120 -131 c 256,15,16
 120 -113 120 -113 127 -97.5 c 128,-1,17
 134 -82 134 -82 146 -70 c 128,-1,18
 158 -58 158 -58 173.5 -51 c 128,-1,19
 189 -44 189 -44 207 -44 c 256,20,21
 225 -44 225 -44 240.5 -51 c 128,-1,22
 256 -58 256 -58 268 -70 c 128,-1,23
 280 -82 280 -82 287 -97.5 c 128,-1,24
 294 -113 294 -113 294 -131 c 2,25,-1
 294 -248 l 2,0,1
54 496 m 1,26,-1
 264 496 l 1,27,-1
 264 424 l 1,28,-1
 282 424 l 1,29,30
 296 465 296 465 329.5 487.5 c 128,-1,31
 363 510 363 510 410 510 c 0,32,33
 484 510 484 510 529 463.5 c 128,-1,34
 574 417 574 417 574 322 c 2,35,-1
 574 300 l 1,36,-1
 444 288 l 1,37,-1
 444 302 l 2,38,39
 444 343 444 343 423 367.5 c 128,-1,40
 402 392 402 392 360 392 c 256,41,42
 318 392 318 392 294 363 c 128,-1,43
 270 334 270 334 270 280 c 2,44,-1
 270 120 l 1,45,-1
 384 120 l 1,46,-1
 384 0 l 1,47,-1
 42 0 l 1,48,-1
 42 120 l 1,49,-1
 144 120 l 1,50,-1
 144 376 l 1,51,-1
 54 376 l 1,52,-1
 54 496 l 1,26,-1
EndSplineSet
Substitution2: "'ss02' Style Set 2 in Latin lookup 3 subtable" uni0157.alt
Substitution2: "'aalt' Access All Alternates in Latin lookup 0 subtable" uni0157.alt
EndChar

StartChar: uni1E5F
Encoding: 7775 7775 409
Width: 612
Flags: W
LayerCount: 2
Fore
SplineSet
384 -166 m 1,0,-1
 42 -166 l 1,1,-1
 42 -64 l 1,2,-1
 384 -64 l 1,3,-1
 384 -166 l 1,0,-1
54 496 m 1,4,-1
 264 496 l 1,5,-1
 264 424 l 1,6,-1
 282 424 l 1,7,8
 296 465 296 465 329.5 487.5 c 128,-1,9
 363 510 363 510 410 510 c 0,10,11
 484 510 484 510 529 463.5 c 128,-1,12
 574 417 574 417 574 322 c 2,13,-1
 574 300 l 1,14,-1
 444 288 l 1,15,-1
 444 302 l 2,16,17
 444 343 444 343 423 367.5 c 128,-1,18
 402 392 402 392 360 392 c 256,19,20
 318 392 318 392 294 363 c 128,-1,21
 270 334 270 334 270 280 c 2,22,-1
 270 120 l 1,23,-1
 384 120 l 1,24,-1
 384 0 l 1,25,-1
 42 0 l 1,26,-1
 42 120 l 1,27,-1
 144 120 l 1,28,-1
 144 376 l 1,29,-1
 54 376 l 1,30,-1
 54 496 l 1,4,-1
EndSplineSet
Substitution2: "'ss02' Style Set 2 in Latin lookup 3 subtable" uni1E5F.alt
Substitution2: "'aalt' Access All Alternates in Latin lookup 0 subtable" uni1E5F.alt
EndChar

StartChar: uni0219
Encoding: 537 537 413
Width: 612
Flags: W
LayerCount: 2
Fore
SplineSet
405 -248 m 2,0,1
 405 -286 405 -286 379 -312 c 128,-1,2
 353 -338 353 -338 315 -338 c 2,3,-1
 255 -338 l 1,4,-1
 255 -260 l 1,5,-1
 300 -260 l 2,6,7
 327 -260 327 -260 327 -230 c 2,8,-1
 327 -218 l 1,9,-1
 318 -218 l 2,10,11
 300 -218 300 -218 284.5 -211 c 128,-1,12
 269 -204 269 -204 257 -192 c 128,-1,13
 245 -180 245 -180 238 -164.5 c 128,-1,14
 231 -149 231 -149 231 -131 c 256,15,16
 231 -113 231 -113 238 -97.5 c 128,-1,17
 245 -82 245 -82 257 -70 c 128,-1,18
 269 -58 269 -58 284.5 -51 c 128,-1,19
 300 -44 300 -44 318 -44 c 256,20,21
 336 -44 336 -44 351.5 -51 c 128,-1,22
 367 -58 367 -58 379 -70 c 128,-1,23
 391 -82 391 -82 398 -97.5 c 128,-1,24
 405 -113 405 -113 405 -131 c 2,25,-1
 405 -248 l 2,0,1
236 356 m 0,26,27
 236 332 236 332 261 321.5 c 128,-1,28
 286 311 286 311 352 304 c 0,29,30
 428 296 428 296 476 258.5 c 128,-1,31
 524 221 524 221 524 154 c 2,32,-1
 524 148 l 2,33,34
 524 74 524 74 470 30 c 128,-1,35
 416 -14 416 -14 318 -14 c 0,36,37
 260 -14 260 -14 219 1 c 128,-1,38
 178 16 178 16 151 38.5 c 128,-1,39
 124 61 124 61 109.5 88.5 c 128,-1,40
 95 116 95 116 90 142 c 1,41,-1
 206 180 l 1,42,43
 214 148 214 148 239.5 124 c 128,-1,44
 265 100 265 100 318 100 c 0,45,46
 365 100 365 100 382.5 114.5 c 128,-1,47
 400 129 400 129 400 146 c 0,48,49
 400 156 400 156 395.5 164.5 c 128,-1,50
 391 173 391 173 379 180.5 c 128,-1,51
 367 188 367 188 346.5 193 c 128,-1,52
 326 198 326 198 295 201 c 0,53,54
 211 208 211 208 161.5 244.5 c 128,-1,55
 112 281 112 281 112 352 c 2,56,-1
 112 358 l 2,57,58
 112 395 112 395 128 423 c 128,-1,59
 144 451 144 451 170 470.5 c 128,-1,60
 196 490 196 490 230 500 c 128,-1,61
 264 510 264 510 300 510 c 0,62,63
 347 510 347 510 381.5 498.5 c 128,-1,64
 416 487 416 487 440 468.5 c 128,-1,65
 464 450 464 450 479 427.5 c 128,-1,66
 494 405 494 405 502 384 c 1,67,-1
 388 338 l 1,68,69
 379 365 379 365 357 380.5 c 128,-1,70
 335 396 335 396 300 396 c 0,71,72
 268 396 268 396 252 384.5 c 128,-1,73
 236 373 236 373 236 356 c 0,26,27
EndSplineSet
EndChar

StartChar: scedilla
Encoding: 351 351 414
Width: 612
Flags: W
LayerCount: 2
Fore
SplineSet
236 356 m 0,0,1
 236 332 236 332 261 321.5 c 128,-1,2
 286 311 286 311 352 304 c 0,3,4
 428 296 428 296 476 258.5 c 128,-1,5
 524 221 524 221 524 154 c 2,6,-1
 524 148 l 2,7,8
 524 74 524 74 470 30 c 128,-1,9
 416 -14 416 -14 318 -14 c 2,10,-1
 308 -14 l 1,11,-1
 301 -46 l 1,12,-1
 313 -46 l 1,13,14
 318 -37 318 -37 329 -30.5 c 128,-1,15
 340 -24 340 -24 359 -24 c 0,16,17
 401 -24 401 -24 421.5 -50 c 128,-1,18
 442 -76 442 -76 442 -112 c 0,19,20
 442 -159 442 -159 410.5 -185.5 c 128,-1,21
 379 -212 379 -212 332 -212 c 0,22,23
 303 -212 303 -212 284 -206.5 c 128,-1,24
 265 -201 265 -201 248 -192 c 1,25,-1
 274 -124 l 1,26,27
 297 -138 297 -138 324 -138 c 0,28,29
 339 -138 339 -138 348.5 -131 c 128,-1,30
 358 -124 358 -124 358 -112 c 0,31,32
 358 -103 358 -103 353 -96.5 c 128,-1,33
 348 -90 348 -90 338 -90 c 0,34,35
 321 -90 321 -90 318 -104 c 1,36,-1
 221 -104 l 1,37,-1
 221 -92 l 1,38,-1
 240 -5 l 1,39,40
 204 4 204 4 177.5 20.5 c 128,-1,41
 151 37 151 37 133 57 c 128,-1,42
 115 77 115 77 104.5 99 c 128,-1,43
 94 121 94 121 90 142 c 1,44,-1
 206 180 l 1,45,46
 214 148 214 148 239.5 124 c 128,-1,47
 265 100 265 100 318 100 c 0,48,49
 365 100 365 100 382.5 114.5 c 128,-1,50
 400 129 400 129 400 146 c 0,51,52
 400 156 400 156 395.5 164.5 c 128,-1,53
 391 173 391 173 379 180.5 c 128,-1,54
 367 188 367 188 346.5 193 c 128,-1,55
 326 198 326 198 295 201 c 0,56,57
 211 208 211 208 161.5 244.5 c 128,-1,58
 112 281 112 281 112 352 c 2,59,-1
 112 358 l 2,60,61
 112 395 112 395 128 423 c 128,-1,62
 144 451 144 451 170 470.5 c 128,-1,63
 196 490 196 490 230 500 c 128,-1,64
 264 510 264 510 300 510 c 0,65,66
 347 510 347 510 381.5 498.5 c 128,-1,67
 416 487 416 487 440 468.5 c 128,-1,68
 464 450 464 450 479 427.5 c 128,-1,69
 494 405 494 405 502 384 c 1,70,-1
 388 338 l 1,71,72
 379 365 379 365 357 380.5 c 128,-1,73
 335 396 335 396 300 396 c 0,74,75
 268 396 268 396 252 384.5 c 128,-1,76
 236 373 236 373 236 356 c 0,0,1
EndSplineSet
Substitution2: "'locl' Localized Forms in Latin lookup 12 subtable" uni0219
Substitution2: "'locl' Localized Forms in Latin lookup 11 subtable" uni0219
Substitution2: "'aalt' Access All Alternates in Latin lookup 0 subtable" uni0219
EndChar

StartChar: germandbls
Encoding: 223 223 417
Width: 612
Flags: W
LayerCount: 2
Fore
SplineSet
350 346 m 1,0,-1
 394 346 l 2,1,2
 429 346 429 346 463 336 c 128,-1,3
 497 326 497 326 523.5 304 c 128,-1,4
 550 282 550 282 566 248 c 128,-1,5
 582 214 582 214 582 166 c 2,6,-1
 582 160 l 2,7,8
 582 122 582 122 570 90.5 c 128,-1,9
 558 59 558 59 535 35.5 c 128,-1,10
 512 12 512 12 478 -1 c 128,-1,11
 444 -14 444 -14 400 -14 c 0,12,13
 360 -14 360 -14 329.5 -2 c 128,-1,14
 299 10 299 10 278 30.5 c 128,-1,15
 257 51 257 51 245 77 c 128,-1,16
 233 103 233 103 230 132 c 1,17,-1
 352 156 l 1,18,19
 354 135 354 135 366 120.5 c 128,-1,20
 378 106 378 106 404 106 c 256,21,22
 430 106 430 106 443 122 c 128,-1,23
 456 138 456 138 456 164 c 0,24,25
 456 203 456 203 430.5 220.5 c 128,-1,26
 405 238 405 238 360 238 c 2,27,-1
 266 238 l 1,28,-1
 266 466 l 1,29,-1
 304 466 l 2,30,31
 334 466 334 466 354 481 c 128,-1,32
 374 496 374 496 374 528 c 0,33,34
 374 557 374 557 352 575.5 c 128,-1,35
 330 594 330 594 294 594 c 0,36,37
 252 594 252 594 226 569 c 128,-1,38
 200 544 200 544 200 496 c 2,39,-1
 200 0 l 1,40,-1
 74 0 l 1,41,-1
 74 376 l 1,42,-1
 14 376 l 1,43,-1
 14 496 l 1,44,-1
 74 496 l 1,45,-1
 74 514 l 2,46,47
 74 563 74 563 91.5 600.5 c 128,-1,48
 109 638 109 638 138.5 663.5 c 128,-1,49
 168 689 168 689 207 701.5 c 128,-1,50
 246 714 246 714 290 714 c 0,51,52
 333 714 333 714 371.5 701.5 c 128,-1,53
 410 689 410 689 438.5 665 c 128,-1,54
 467 641 467 641 483.5 607.5 c 128,-1,55
 500 574 500 574 500 532 c 2,56,-1
 500 526 l 2,57,58
 500 487 500 487 488.5 457.5 c 128,-1,59
 477 428 477 428 456.5 408 c 128,-1,60
 436 388 436 388 408.5 376.5 c 128,-1,61
 381 365 381 365 350 364 c 1,62,-1
 350 346 l 1,0,-1
EndSplineSet
EndChar

StartChar: longs
Encoding: 383 383 418
Width: 612
Flags: W
LayerCount: 2
Fore
SplineSet
170 496 m 1,0,-1
 230 496 l 1,1,-1
 230 598 l 2,2,3
 230 641 230 641 259 670.5 c 128,-1,4
 288 700 288 700 331 700 c 2,5,-1
 533 700 l 1,6,-1
 533 580 l 1,7,-1
 383 580 l 2,8,9
 356 580 356 580 356 550 c 2,10,-1
 356 0 l 1,11,-1
 230 0 l 1,12,-1
 230 376 l 1,13,-1
 170 376 l 1,14,-1
 170 496 l 1,0,-1
EndSplineSet
EndChar

StartChar: tcaron
Encoding: 357 357 419
Width: 612
Flags: W
LayerCount: 2
Fore
SplineSet
45 496 m 1,0,-1
 190 496 l 1,1,-1
 190 700 l 1,2,-1
 318 700 l 1,3,-1
 318 496 l 1,4,-1
 356 496 l 1,5,-1
 356 376 l 1,6,-1
 318 376 l 1,7,-1
 318 150 l 2,8,9
 318 120 318 120 345 120 c 2,10,-1
 542 120 l 1,11,-1
 542 0 l 1,12,-1
 267 0 l 2,13,14
 233 0 233 0 211.5 22 c 128,-1,15
 190 44 190 44 190 78 c 2,16,-1
 190 376 l 1,17,-1
 45 376 l 1,18,-1
 45 496 l 1,0,-1
542 466 m 2,19,20
 542 428 542 428 516 402 c 128,-1,21
 490 376 490 376 452 376 c 2,22,-1
 392 376 l 1,23,-1
 392 454 l 1,24,-1
 437 454 l 2,25,26
 464 454 464 454 464 484 c 2,27,-1
 464 526 l 1,28,-1
 455 526 l 2,29,30
 437 526 437 526 421.5 533 c 128,-1,31
 406 540 406 540 394 552 c 128,-1,32
 382 564 382 564 375 579.5 c 128,-1,33
 368 595 368 595 368 613 c 256,34,35
 368 631 368 631 375 646.5 c 128,-1,36
 382 662 382 662 394 674 c 128,-1,37
 406 686 406 686 421.5 693 c 128,-1,38
 437 700 437 700 455 700 c 256,39,40
 473 700 473 700 488.5 693 c 128,-1,41
 504 686 504 686 516 674 c 128,-1,42
 528 662 528 662 535 646.5 c 128,-1,43
 542 631 542 631 542 613 c 2,44,-1
 542 466 l 2,19,20
EndSplineSet
EndChar

StartChar: uni0163
Encoding: 355 355 420
Width: 612
Flags: W
LayerCount: 2
Fore
SplineSet
288 0 m 1,0,1
 254 0 254 0 232.5 22 c 128,-1,2
 211 44 211 44 211 78 c 2,3,-1
 211 376 l 1,4,-1
 64 376 l 1,5,-1
 64 496 l 1,6,-1
 211 496 l 1,7,-1
 211 700 l 1,8,-1
 337 700 l 1,9,-1
 337 496 l 1,10,-1
 516 496 l 1,11,-1
 516 376 l 1,12,-1
 337 376 l 1,13,-1
 337 150 l 2,14,15
 337 120 337 120 364 120 c 2,16,-1
 498 120 l 1,17,-1
 498 0 l 1,18,-1
 358 0 l 1,19,-1
 348 -46 l 1,20,-1
 360 -46 l 1,21,22
 365 -37 365 -37 376 -30.5 c 128,-1,23
 387 -24 387 -24 406 -24 c 0,24,25
 448 -24 448 -24 468.5 -50 c 128,-1,26
 489 -76 489 -76 489 -112 c 0,27,28
 489 -159 489 -159 457.5 -185.5 c 128,-1,29
 426 -212 426 -212 379 -212 c 0,30,31
 350 -212 350 -212 331 -206.5 c 128,-1,32
 312 -201 312 -201 295 -192 c 1,33,-1
 321 -124 l 1,34,35
 344 -138 344 -138 371 -138 c 0,36,37
 386 -138 386 -138 395.5 -131 c 128,-1,38
 405 -124 405 -124 405 -112 c 0,39,40
 405 -103 405 -103 400 -96.5 c 128,-1,41
 395 -90 395 -90 385 -90 c 0,42,43
 368 -90 368 -90 365 -104 c 1,44,-1
 268 -104 l 1,45,-1
 268 -92 l 1,46,-1
 288 0 l 1,47,-1
 288 0 l 1,0,1
EndSplineSet
Substitution2: "'locl' Localized Forms in Latin lookup 12 subtable" uni021B
Substitution2: "'locl' Localized Forms in Latin lookup 11 subtable" uni021B
Substitution2: "'aalt' Access All Alternates in Latin lookup 0 subtable" uni021B
EndChar

StartChar: uni021B
Encoding: 539 539 421
Width: 612
Flags: W
LayerCount: 2
Fore
SplineSet
385 -248 m 2,0,1
 385 -286 385 -286 359 -312 c 128,-1,2
 333 -338 333 -338 295 -338 c 2,3,-1
 235 -338 l 1,4,-1
 235 -260 l 1,5,-1
 280 -260 l 2,6,7
 307 -260 307 -260 307 -230 c 2,8,-1
 307 -218 l 1,9,-1
 298 -218 l 2,10,11
 280 -218 280 -218 264.5 -211 c 128,-1,12
 249 -204 249 -204 237 -192 c 128,-1,13
 225 -180 225 -180 218 -164.5 c 128,-1,14
 211 -149 211 -149 211 -131 c 256,15,16
 211 -113 211 -113 218 -97.5 c 128,-1,17
 225 -82 225 -82 237 -70 c 128,-1,18
 249 -58 249 -58 264.5 -51 c 128,-1,19
 280 -44 280 -44 298 -44 c 256,20,21
 316 -44 316 -44 331.5 -51 c 128,-1,22
 347 -58 347 -58 359 -70 c 128,-1,23
 371 -82 371 -82 378 -97.5 c 128,-1,24
 385 -113 385 -113 385 -131 c 2,25,-1
 385 -248 l 2,0,1
64 496 m 1,26,-1
 211 496 l 1,27,-1
 211 700 l 1,28,-1
 337 700 l 1,29,-1
 337 496 l 1,30,-1
 516 496 l 1,31,-1
 516 376 l 1,32,-1
 337 376 l 1,33,-1
 337 150 l 2,34,35
 337 120 337 120 364 120 c 2,36,-1
 498 120 l 1,37,-1
 498 0 l 1,38,-1
 288 0 l 2,39,40
 254 0 254 0 232.5 22 c 128,-1,41
 211 44 211 44 211 78 c 2,42,-1
 211 376 l 1,43,-1
 64 376 l 1,44,-1
 64 496 l 1,26,-1
EndSplineSet
EndChar

StartChar: uni1E6F
Encoding: 7791 7791 423
Width: 612
Flags: W
LayerCount: 2
Fore
SplineSet
498 -166 m 1,0,-1
 211 -166 l 1,1,-1
 211 -64 l 1,2,-1
 498 -64 l 1,3,-1
 498 -166 l 1,0,-1
64 496 m 1,4,-1
 211 496 l 1,5,-1
 211 700 l 1,6,-1
 337 700 l 1,7,-1
 337 496 l 1,8,-1
 516 496 l 1,9,-1
 516 376 l 1,10,-1
 337 376 l 1,11,-1
 337 150 l 2,12,13
 337 120 337 120 364 120 c 2,14,-1
 498 120 l 1,15,-1
 498 0 l 1,16,-1
 288 0 l 2,17,18
 254 0 254 0 232.5 22 c 128,-1,19
 211 44 211 44 211 78 c 2,20,-1
 211 376 l 1,21,-1
 64 376 l 1,22,-1
 64 496 l 1,4,-1
EndSplineSet
EndChar

StartChar: tbar
Encoding: 359 359 425
Width: 612
Flags: W
LayerCount: 2
Fore
SplineSet
64 496 m 1,0,-1
 211 496 l 1,1,-1
 211 700 l 1,2,-1
 337 700 l 1,3,-1
 337 496 l 1,4,-1
 516 496 l 1,5,-1
 516 376 l 1,6,-1
 337 376 l 1,7,-1
 337 316 l 1,8,-1
 481 316 l 1,9,-1
 481 202 l 1,10,-1
 337 202 l 1,11,-1
 337 150 l 2,12,13
 337 120 337 120 364 120 c 2,14,-1
 498 120 l 1,15,-1
 498 0 l 1,16,-1
 288 0 l 2,17,18
 254 0 254 0 232.5 22 c 128,-1,19
 211 44 211 44 211 78 c 2,20,-1
 211 202 l 1,21,-1
 103 202 l 1,22,-1
 103 316 l 1,23,-1
 211 316 l 1,24,-1
 211 376 l 1,25,-1
 64 376 l 1,26,-1
 64 496 l 1,0,-1
EndSplineSet
EndChar

StartChar: utilde
Encoding: 361 361 429
Width: 612
Flags: W
LayerCount: 2
Fore
SplineSet
414 496 m 1,0,-1
 540 496 l 1,1,-1
 540 0 l 1,2,-1
 414 0 l 1,3,-1
 414 72 l 1,4,-1
 396 72 l 1,5,6
 363 -14 363 -14 254 -14 c 0,7,8
 217 -14 217 -14 185 -2 c 128,-1,9
 153 10 153 10 129 35 c 128,-1,10
 105 60 105 60 91.5 97.5 c 128,-1,11
 78 135 78 135 78 186 c 2,12,-1
 78 496 l 1,13,-1
 204 496 l 1,14,-1
 204 212 l 2,15,16
 204 159 204 159 229 129.5 c 128,-1,17
 254 100 254 100 304 100 c 0,18,19
 361 100 361 100 387.5 136.5 c 128,-1,20
 414 173 414 173 414 236 c 2,21,-1
 414 496 l 1,0,-1
320 689 m 0,22,23
 328 680 328 680 336 672.5 c 128,-1,24
 344 665 344 665 358 665 c 256,25,26
 372 665 372 665 380.5 671.5 c 128,-1,27
 389 678 389 678 397 689 c 2,28,-1
 427 727 l 1,29,-1
 504 666 l 1,30,-1
 448 594 l 2,31,32
 430 571 430 571 409 560.5 c 128,-1,33
 388 550 388 550 362 550 c 0,34,35
 342 550 342 550 323.5 559 c 128,-1,36
 305 568 305 568 288 588 c 0,37,38
 280 597 280 597 272 604.5 c 128,-1,39
 264 612 264 612 250 612 c 256,40,41
 236 612 236 612 227.5 605.5 c 128,-1,42
 219 599 219 599 211 588 c 2,43,-1
 181 550 l 1,44,-1
 104 611 l 1,45,-1
 160 683 l 2,46,47
 179 707 179 707 200 717 c 128,-1,48
 221 727 221 727 246 727 c 0,49,50
 266 727 266 727 284.5 718 c 128,-1,51
 303 709 303 709 320 689 c 0,22,23
EndSplineSet
EndChar

StartChar: uogonek
Encoding: 371 371 436
Width: 612
Flags: W
LayerCount: 2
Fore
SplineSet
414 496 m 1,0,-1
 540 496 l 1,1,-1
 540 0 l 1,2,-1
 483 0 l 1,3,-1
 470 -56 l 2,4,5
 469 -61 469 -61 469 -64 c 0,6,7
 469 -86 469 -86 492 -86 c 2,8,-1
 540 -86 l 1,9,-1
 540 -170 l 1,10,-1
 458 -170 l 2,11,12
 428 -170 428 -170 403 -151 c 128,-1,13
 378 -132 378 -132 378 -95 c 0,14,15
 378 -86 378 -86 381 -72 c 2,16,-1
 414 72 l 1,17,-1
 396 72 l 1,18,19
 363 -14 363 -14 254 -14 c 0,20,21
 217 -14 217 -14 185 -2 c 128,-1,22
 153 10 153 10 129 35 c 128,-1,23
 105 60 105 60 91.5 97.5 c 128,-1,24
 78 135 78 135 78 186 c 2,25,-1
 78 496 l 1,26,-1
 204 496 l 1,27,-1
 204 212 l 2,28,29
 204 159 204 159 229 129.5 c 128,-1,30
 254 100 254 100 304 100 c 0,31,32
 361 100 361 100 387.5 136.5 c 128,-1,33
 414 173 414 173 414 236 c 2,34,-1
 414 496 l 1,0,-1
EndSplineSet
EndChar

StartChar: uni01D6
Encoding: 470 470 437
Width: 612
Flags: W
LayerCount: 2
Fore
SplineSet
511 752 m 1,0,-1
 107 752 l 1,1,-1
 107 854 l 1,2,-1
 511 854 l 1,3,-1
 511 752 l 1,0,-1
414 496 m 1,4,-1
 540 496 l 1,5,-1
 540 0 l 1,6,-1
 414 0 l 1,7,-1
 414 72 l 1,8,-1
 396 72 l 1,9,10
 363 -14 363 -14 254 -14 c 0,11,12
 217 -14 217 -14 185 -2 c 128,-1,13
 153 10 153 10 129 35 c 128,-1,14
 105 60 105 60 91.5 97.5 c 128,-1,15
 78 135 78 135 78 186 c 2,16,-1
 78 496 l 1,17,-1
 204 496 l 1,18,-1
 204 212 l 2,19,20
 204 159 204 159 229 129.5 c 128,-1,21
 254 100 254 100 304 100 c 0,22,23
 361 100 361 100 387.5 136.5 c 128,-1,24
 414 173 414 173 414 236 c 2,25,-1
 414 496 l 1,4,-1
285 627 m 256,26,27
 285 607 285 607 277.5 589.5 c 128,-1,28
 270 572 270 572 257 559.5 c 128,-1,29
 244 547 244 547 226.5 539.5 c 128,-1,30
 209 532 209 532 190 532 c 0,31,32
 170 532 170 532 153 539.5 c 128,-1,33
 136 547 136 547 123 559.5 c 128,-1,34
 110 572 110 572 102.5 589.5 c 128,-1,35
 95 607 95 607 95 627 c 256,36,37
 95 647 95 647 102.5 664.5 c 128,-1,38
 110 682 110 682 123 694.5 c 128,-1,39
 136 707 136 707 153 714.5 c 128,-1,40
 170 722 170 722 190 722 c 0,41,42
 209 722 209 722 226.5 714.5 c 128,-1,43
 244 707 244 707 257 694.5 c 128,-1,44
 270 682 270 682 277.5 664.5 c 128,-1,45
 285 647 285 647 285 627 c 256,26,27
523 627 m 256,46,47
 523 607 523 607 515.5 589.5 c 128,-1,48
 508 572 508 572 495 559.5 c 128,-1,49
 482 547 482 547 464.5 539.5 c 128,-1,50
 447 532 447 532 428 532 c 0,51,52
 408 532 408 532 391 539.5 c 128,-1,53
 374 547 374 547 361 559.5 c 128,-1,54
 348 572 348 572 340.5 589.5 c 128,-1,55
 333 607 333 607 333 627 c 256,56,57
 333 647 333 647 340.5 664.5 c 128,-1,58
 348 682 348 682 361 694.5 c 128,-1,59
 374 707 374 707 391 714.5 c 128,-1,60
 408 722 408 722 428 722 c 0,61,62
 447 722 447 722 464.5 714.5 c 128,-1,63
 482 707 482 707 495 694.5 c 128,-1,64
 508 682 508 682 515.5 664.5 c 128,-1,65
 523 647 523 647 523 627 c 256,46,47
EndSplineSet
EndChar

StartChar: uni01B0
Encoding: 432 432 443
Width: 612
Flags: W
LayerCount: 2
Fore
SplineSet
276 496 m 1,0,-1
 402 496 l 1,1,-1
 402 282 l 1,2,-1
 501 282 l 2,3,4
 528 282 528 282 528 312 c 2,5,-1
 528 322 l 1,6,-1
 519 322 l 2,7,8
 501 322 501 322 485.5 329 c 128,-1,9
 470 336 470 336 458 348 c 128,-1,10
 446 360 446 360 439 375.5 c 128,-1,11
 432 391 432 391 432 409 c 256,12,13
 432 427 432 427 439 442.5 c 128,-1,14
 446 458 446 458 458 470 c 128,-1,15
 470 482 470 482 485.5 489 c 128,-1,16
 501 496 501 496 519 496 c 256,17,18
 537 496 537 496 552.5 489 c 128,-1,19
 568 482 568 482 580 470 c 128,-1,20
 592 458 592 458 599 442.5 c 128,-1,21
 606 427 606 427 606 409 c 2,22,-1
 606 294 l 2,23,24
 606 256 606 256 580 230 c 128,-1,25
 554 204 554 204 516 204 c 2,26,-1
 402 204 l 1,27,-1
 402 0 l 1,28,-1
 276 0 l 1,29,-1
 276 48 l 1,30,-1
 258 48 l 1,31,32
 249 21 249 21 223 3.5 c 128,-1,33
 197 -14 197 -14 149 -14 c 0,34,35
 89 -14 89 -14 53.5 23.5 c 128,-1,36
 18 61 18 61 18 138 c 2,37,-1
 18 496 l 1,38,-1
 144 496 l 1,39,-1
 144 174 l 2,40,41
 144 139 144 139 159.5 119.5 c 128,-1,42
 175 100 175 100 207 100 c 0,43,44
 246 100 246 100 261 122 c 128,-1,45
 276 144 276 144 276 180 c 2,46,-1
 276 496 l 1,0,-1
EndSplineSet
EndChar

StartChar: uni1EF5
Encoding: 7925 7925 458
Width: 612
Flags: W
LayerCount: 2
Fore
SplineSet
414 496 m 1,0,-1
 540 496 l 1,1,-1
 540 -122 l 2,2,3
 540 -156 540 -156 518.5 -178 c 128,-1,4
 497 -200 497 -200 463 -200 c 2,5,-1
 286 -200 l 1,6,-1
 286 -80 l 1,7,-1
 387 -80 l 2,8,9
 414 -80 414 -80 414 -50 c 2,10,-1
 414 72 l 1,11,-1
 396 72 l 1,12,13
 363 -14 363 -14 254 -14 c 0,14,15
 217 -14 217 -14 185 -2 c 128,-1,16
 153 10 153 10 129 35 c 128,-1,17
 105 60 105 60 91.5 97.5 c 128,-1,18
 78 135 78 135 78 186 c 2,19,-1
 78 496 l 1,20,-1
 204 496 l 1,21,-1
 204 212 l 2,22,23
 204 159 204 159 229 129.5 c 128,-1,24
 254 100 254 100 304 100 c 0,25,26
 361 100 361 100 387.5 136.5 c 128,-1,27
 414 173 414 173 414 236 c 2,28,-1
 414 496 l 1,0,-1
252 -140 m 256,29,30
 252 -160 252 -160 244.5 -177.5 c 128,-1,31
 237 -195 237 -195 224 -207.5 c 128,-1,32
 211 -220 211 -220 193.5 -227.5 c 128,-1,33
 176 -235 176 -235 157 -235 c 0,34,35
 137 -235 137 -235 120 -227.5 c 128,-1,36
 103 -220 103 -220 90 -207.5 c 128,-1,37
 77 -195 77 -195 69.5 -177.5 c 128,-1,38
 62 -160 62 -160 62 -140 c 256,39,40
 62 -120 62 -120 69.5 -102.5 c 128,-1,41
 77 -85 77 -85 90 -72.5 c 128,-1,42
 103 -60 103 -60 120 -52.5 c 128,-1,43
 137 -45 137 -45 157 -45 c 0,44,45
 176 -45 176 -45 193.5 -52.5 c 128,-1,46
 211 -60 211 -60 224 -72.5 c 128,-1,47
 237 -85 237 -85 244.5 -102.5 c 128,-1,48
 252 -120 252 -120 252 -140 c 256,29,30
EndSplineSet
Substitution2: "'ss02' Style Set 2 in Latin lookup 3 subtable" uni1EF5.alt
Substitution2: "'aalt' Access All Alternates in Latin lookup 0 subtable" uni1EF5.alt
EndChar

StartChar: thorn
Encoding: 254 254 465
Width: 612
Flags: W
LayerCount: 2
Fore
SplineSet
306 106 m 256,0,1
 365 106 365 106 401.5 142.5 c 128,-1,2
 438 179 438 179 438 242 c 2,3,-1
 438 254 l 2,4,5
 438 317 438 317 401.5 353.5 c 128,-1,6
 365 390 365 390 306 390 c 256,7,8
 247 390 247 390 210.5 352.5 c 128,-1,9
 174 315 174 315 174 254 c 2,10,-1
 174 242 l 2,11,12
 174 181 174 181 210.5 143.5 c 128,-1,13
 247 106 247 106 306 106 c 256,0,1
174 -212 m 1,14,-1
 48 -212 l 1,15,-1
 48 700 l 1,16,-1
 174 700 l 1,17,-1
 174 424 l 1,18,-1
 192 424 l 1,19,20
 212 465 212 465 250 487.5 c 128,-1,21
 288 510 288 510 347 510 c 0,22,23
 391 510 391 510 430.5 493 c 128,-1,24
 470 476 470 476 499.5 443.5 c 128,-1,25
 529 411 529 411 546.5 364 c 128,-1,26
 564 317 564 317 564 257 c 2,27,-1
 564 239 l 2,28,29
 564 178 564 178 547 131 c 128,-1,30
 530 84 530 84 501 51.5 c 128,-1,31
 472 19 472 19 432.5 2.5 c 128,-1,32
 393 -14 393 -14 347 -14 c 0,33,34
 313 -14 313 -14 288 -7 c 128,-1,35
 263 0 263 0 244.5 12 c 128,-1,36
 226 24 226 24 213.5 39.5 c 128,-1,37
 201 55 201 55 192 72 c 1,38,-1
 174 72 l 1,39,-1
 174 -212 l 1,14,-1
EndSplineSet
EndChar

StartChar: eng
Encoding: 331 331 466
Width: 612
Flags: W
LayerCount: 2
Fore
SplineSet
201 0 m 1,0,-1
 75 0 l 1,1,-1
 75 496 l 1,2,-1
 201 496 l 1,3,-1
 201 422 l 1,4,-1
 219 422 l 1,5,6
 236 464 236 464 274 487 c 128,-1,7
 312 510 312 510 363 510 c 0,8,9
 399 510 399 510 430.5 498.5 c 128,-1,10
 462 487 462 487 486 463 c 128,-1,11
 510 439 510 439 523.5 402 c 128,-1,12
 537 365 537 365 537 314 c 2,13,-1
 537 -98 l 2,14,15
 537 -150 537 -150 509 -175 c 128,-1,16
 481 -200 481 -200 436 -200 c 2,17,-1
 312 -200 l 1,18,-1
 312 -80 l 1,19,-1
 381 -80 l 2,20,21
 411 -80 411 -80 411 -47 c 2,22,-1
 411 282 l 2,23,24
 411 335 411 335 385.5 365.5 c 128,-1,25
 360 396 360 396 312 396 c 0,26,27
 256 396 256 396 228.5 358.5 c 128,-1,28
 201 321 201 321 201 258 c 2,29,-1
 201 0 l 1,0,-1
EndSplineSet
EndChar

StartChar: uni0237
Encoding: 567 567 467
Width: 612
Flags: W
LayerCount: 2
Fore
SplineSet
132 496 m 1,0,-1
 450 496 l 1,1,-1
 450 -98 l 2,2,3
 450 -150 450 -150 422 -175 c 128,-1,4
 394 -200 394 -200 349 -200 c 2,5,-1
 114 -200 l 1,6,-1
 114 -80 l 1,7,-1
 294 -80 l 2,8,9
 324 -80 324 -80 324 -47 c 2,10,-1
 324 376 l 1,11,-1
 132 376 l 1,12,-1
 132 496 l 1,0,-1
EndSplineSet
EndChar

StartChar: ij
Encoding: 307 307 468
Width: 612
Flags: W
LayerCount: 2
Fore
SplineSet
411 496 m 1,0,-1
 537 496 l 1,1,-1
 537 -122 l 2,2,3
 537 -156 537 -156 515.5 -178 c 128,-1,4
 494 -200 494 -200 460 -200 c 2,5,-1
 201 -200 l 1,6,-1
 201 -80 l 1,7,-1
 384 -80 l 2,8,9
 411 -80 411 -80 411 -50 c 2,10,-1
 411 72 l 1,11,-1
 393 72 l 1,12,13
 360 -14 360 -14 251 -14 c 0,14,15
 214 -14 214 -14 182 -2 c 128,-1,16
 150 10 150 10 126 35 c 128,-1,17
 102 60 102 60 88.5 97.5 c 128,-1,18
 75 135 75 135 75 186 c 2,19,-1
 75 496 l 1,20,-1
 201 496 l 1,21,-1
 201 212 l 2,22,23
 201 159 201 159 226 129.5 c 128,-1,24
 251 100 251 100 301 100 c 0,25,26
 358 100 358 100 384.5 136.5 c 128,-1,27
 411 173 411 173 411 236 c 2,28,-1
 411 496 l 1,0,-1
569 643 m 256,29,30
 569 623 569 623 561.5 605.5 c 128,-1,31
 554 588 554 588 541 575.5 c 128,-1,32
 528 563 528 563 510.5 555.5 c 128,-1,33
 493 548 493 548 474 548 c 0,34,35
 454 548 454 548 437 555.5 c 128,-1,36
 420 563 420 563 407 575.5 c 128,-1,37
 394 588 394 588 386.5 605.5 c 128,-1,38
 379 623 379 623 379 643 c 256,39,40
 379 663 379 663 386.5 680.5 c 128,-1,41
 394 698 394 698 407 710.5 c 128,-1,42
 420 723 420 723 437 730.5 c 128,-1,43
 454 738 454 738 474 738 c 0,44,45
 493 738 493 738 510.5 730.5 c 128,-1,46
 528 723 528 723 541 710.5 c 128,-1,47
 554 698 554 698 561.5 680.5 c 128,-1,48
 569 663 569 663 569 643 c 256,29,30
233 643 m 256,49,50
 233 623 233 623 225.5 605.5 c 128,-1,51
 218 588 218 588 205 575.5 c 128,-1,52
 192 563 192 563 174.5 555.5 c 128,-1,53
 157 548 157 548 138 548 c 0,54,55
 118 548 118 548 101 555.5 c 128,-1,56
 84 563 84 563 71 575.5 c 128,-1,57
 58 588 58 588 50.5 605.5 c 128,-1,58
 43 623 43 623 43 643 c 256,59,60
 43 663 43 663 50.5 680.5 c 128,-1,61
 58 698 58 698 71 710.5 c 128,-1,62
 84 723 84 723 101 730.5 c 128,-1,63
 118 738 118 738 138 738 c 0,64,65
 157 738 157 738 174.5 730.5 c 128,-1,66
 192 723 192 723 205 710.5 c 128,-1,67
 218 698 218 698 225.5 680.5 c 128,-1,68
 233 663 233 663 233 643 c 256,49,50
EndSplineSet
EndChar

StartChar: ijacute
Encoding: 65539 -1 469
Width: 612
Flags: W
LayerCount: 2
Fore
SplineSet
411 496 m 1,0,-1
 537 496 l 1,1,-1
 537 -122 l 2,2,3
 537 -156 537 -156 515.5 -178 c 128,-1,4
 494 -200 494 -200 460 -200 c 2,5,-1
 201 -200 l 1,6,-1
 201 -80 l 1,7,-1
 384 -80 l 2,8,9
 411 -80 411 -80 411 -50 c 2,10,-1
 411 72 l 1,11,-1
 393 72 l 1,12,13
 360 -14 360 -14 251 -14 c 0,14,15
 214 -14 214 -14 182 -2 c 128,-1,16
 150 10 150 10 126 35 c 128,-1,17
 102 60 102 60 88.5 97.5 c 128,-1,18
 75 135 75 135 75 186 c 2,19,-1
 75 496 l 1,20,-1
 201 496 l 1,21,-1
 201 212 l 2,22,23
 201 159 201 159 226 129.5 c 128,-1,24
 251 100 251 100 301 100 c 0,25,26
 358 100 358 100 384.5 136.5 c 128,-1,27
 411 173 411 173 411 236 c 2,28,-1
 411 496 l 1,0,-1
139 706 m 1,29,-1
 273 706 l 1,30,-1
 189 570 l 1,31,-1
 87 570 l 1,32,-1
 139 706 l 1,29,-1
475 706 m 1,33,-1
 609 706 l 1,34,-1
 525 570 l 1,35,-1
 423 570 l 1,36,-1
 475 706 l 1,33,-1
EndSplineSet
Ligature2: "Ligature Substitution lookup 36 subtable" ij acutecomb
EndChar

StartChar: uni0254
Encoding: 596 596 472
Width: 612
Flags: W
LayerCount: 2
Fore
SplineSet
52 314 m 1,0,1
 69 402 69 402 132.5 456 c 128,-1,2
 196 510 196 510 302 510 c 0,3,4
 357 510 357 510 404.5 493 c 128,-1,5
 452 476 452 476 487 444 c 128,-1,6
 522 412 522 412 542 365 c 128,-1,7
 562 318 562 318 562 258 c 2,8,-1
 562 246 l 2,9,10
 562 186 562 186 542 138 c 128,-1,11
 522 90 522 90 486.5 56 c 128,-1,12
 451 22 451 22 403.5 4 c 128,-1,13
 356 -14 356 -14 302 -14 c 0,14,15
 198 -14 198 -14 133.5 40 c 128,-1,16
 69 94 69 94 52 182 c 1,17,-1
 176 214 l 1,18,19
 182 170 182 170 214 138 c 128,-1,20
 246 106 246 106 304 106 c 0,21,22
 331 106 331 106 355 116 c 128,-1,23
 379 126 379 126 397 144.5 c 128,-1,24
 415 163 415 163 425.5 189.5 c 128,-1,25
 436 216 436 216 436 249 c 2,26,-1
 436 255 l 2,27,28
 436 288 436 288 425.5 313.5 c 128,-1,29
 415 339 415 339 397 356 c 128,-1,30
 379 373 379 373 355 381.5 c 128,-1,31
 331 390 331 390 304 390 c 0,32,33
 246 390 246 390 215.5 361 c 128,-1,34
 185 332 185 332 176 283 c 1,35,-1
 52 314 l 1,0,1
EndSplineSet
EndChar

StartChar: uni0258
Encoding: 600 600 473
Width: 612
Flags: W
LayerCount: 2
Fore
SplineSet
62 207 m 1,0,-1
 62 274 l 2,1,2
 62 313 62 313 76 354.5 c 128,-1,3
 90 396 90 396 120 430.5 c 128,-1,4
 150 465 150 465 196 487.5 c 128,-1,5
 242 510 242 510 306 510 c 0,6,7
 358 510 358 510 403.5 491.5 c 128,-1,8
 449 473 449 473 483 440 c 128,-1,9
 517 407 517 407 536.5 360 c 128,-1,10
 556 313 556 313 556 256 c 2,11,-1
 556 250 l 2,12,13
 556 188 556 188 537.5 139 c 128,-1,14
 519 90 519 90 485.5 56 c 128,-1,15
 452 22 452 22 405.5 4 c 128,-1,16
 359 -14 359 -14 304 -14 c 0,17,18
 254 -14 254 -14 218 -3 c 128,-1,19
 182 8 182 8 156.5 25 c 128,-1,20
 131 42 131 42 115 62.5 c 128,-1,21
 99 83 99 83 90 102 c 1,22,-1
 198 162 l 1,23,24
 209 139 209 139 234 122.5 c 128,-1,25
 259 106 259 106 306 106 c 0,26,27
 330 106 330 106 351.5 113.5 c 128,-1,28
 373 121 373 121 389.5 134.5 c 128,-1,29
 406 148 406 148 415.5 166.5 c 128,-1,30
 425 185 425 185 426 207 c 1,31,-1
 62 207 l 1,0,-1
307 396 m 256,32,33
 259 396 259 396 227.5 373 c 128,-1,34
 196 350 196 350 190 315 c 1,35,-1
 424 315 l 1,36,37
 415 347 415 347 385 371.5 c 128,-1,38
 355 396 355 396 307 396 c 256,32,33
EndSplineSet
EndChar

StartChar: uni0259
Encoding: 601 601 475
Width: 612
Flags: W
LayerCount: 2
Fore
SplineSet
424 289 m 1,0,1
 423 311 423 311 413.5 329.5 c 128,-1,2
 404 348 404 348 387.5 361.5 c 128,-1,3
 371 375 371 375 349.5 382.5 c 128,-1,4
 328 390 328 390 304 390 c 0,5,6
 260 390 260 390 233 372 c 128,-1,7
 206 354 206 354 192 330 c 1,8,-1
 98 402 l 1,9,10
 111 423 111 423 130 442.5 c 128,-1,11
 149 462 149 462 174.5 477 c 128,-1,12
 200 492 200 492 232 501 c 128,-1,13
 264 510 264 510 302 510 c 0,14,15
 356 510 356 510 402 492.5 c 128,-1,16
 448 475 448 475 482 441 c 128,-1,17
 516 407 516 407 535 358 c 128,-1,18
 554 309 554 309 554 246 c 2,19,-1
 554 240 l 2,20,21
 554 183 554 183 534.5 136 c 128,-1,22
 515 89 515 89 481 56 c 128,-1,23
 447 23 447 23 401.5 4.5 c 128,-1,24
 356 -14 356 -14 304 -14 c 0,25,26
 240 -14 240 -14 194 8 c 128,-1,27
 148 30 148 30 118 64.5 c 128,-1,28
 88 99 88 99 74 141 c 128,-1,29
 60 183 60 183 60 222 c 2,30,-1
 60 289 l 1,31,-1
 424 289 l 1,0,1
305 100 m 256,32,33
 353 100 353 100 383 124.5 c 128,-1,34
 413 149 413 149 422 181 c 1,35,-1
 188 181 l 1,36,37
 194 146 194 146 225.5 123 c 128,-1,38
 257 100 257 100 305 100 c 256,32,33
EndSplineSet
EndChar

StartChar: uni0265
Encoding: 613 613 477
Width: 612
Flags: W
LayerCount: 2
Fore
SplineSet
416 496 m 1,0,-1
 542 496 l 1,1,-1
 542 -200 l 1,2,-1
 416 -200 l 1,3,-1
 416 80 l 1,4,-1
 398 80 l 1,5,6
 379 35 379 35 342 10.5 c 128,-1,7
 305 -14 305 -14 251 -14 c 0,8,9
 214 -14 214 -14 183 -2 c 128,-1,10
 152 10 152 10 129 34 c 128,-1,11
 106 58 106 58 93 95.5 c 128,-1,12
 80 133 80 133 80 184 c 2,13,-1
 80 496 l 1,14,-1
 206 496 l 1,15,-1
 206 214 l 2,16,17
 206 161 206 161 231.5 130.5 c 128,-1,18
 257 100 257 100 305 100 c 0,19,20
 361 100 361 100 388.5 137.5 c 128,-1,21
 416 175 416 175 416 238 c 2,22,-1
 416 496 l 1,0,-1
EndSplineSet
EndChar

StartChar: uni029E
Encoding: 670 670 478
Width: 612
Flags: W
LayerCount: 2
Fore
SplineSet
379 182 m 1,0,-1
 355 182 l 1,1,-1
 229 0 l 1,2,-1
 91 0 l 1,3,-1
 91 6 l 1,4,-1
 243 230 l 1,5,-1
 243 254 l 1,6,-1
 76 490 l 1,7,-1
 76 496 l 1,8,-1
 220 496 l 1,9,-1
 353 302 l 1,10,-1
 379 302 l 1,11,-1
 379 496 l 1,12,-1
 505 496 l 1,13,-1
 505 -200 l 1,14,-1
 379 -200 l 1,15,-1
 379 182 l 1,0,-1
EndSplineSet
EndChar

StartChar: uni0287
Encoding: 647 647 481
Width: 612
Flags: W
LayerCount: 2
Fore
SplineSet
536 0 m 1,0,-1
 389 0 l 1,1,-1
 389 -200 l 1,2,-1
 263 -200 l 1,3,-1
 263 0 l 1,4,-1
 84 0 l 1,5,-1
 84 120 l 1,6,-1
 263 120 l 1,7,-1
 263 346 l 2,8,9
 263 376 263 376 236 376 c 2,10,-1
 102 376 l 1,11,-1
 102 496 l 1,12,-1
 312 496 l 2,13,14
 346 496 346 496 367.5 474 c 128,-1,15
 389 452 389 452 389 418 c 2,16,-1
 389 120 l 1,17,-1
 536 120 l 1,18,-1
 536 0 l 1,0,-1
EndSplineSet
EndChar

StartChar: uni028E
Encoding: 654 654 484
Width: 612
Flags: W
LayerCount: 2
Fore
SplineSet
575 0 m 1,0,-1
 439 0 l 1,1,-1
 315 400 l 1,2,-1
 297 400 l 1,3,-1
 173 0 l 1,4,-1
 37 0 l 1,5,-1
 201 496 l 1,6,-1
 243 496 l 1,7,-1
 243 610 l 2,8,9
 243 651 243 651 267.5 675.5 c 128,-1,10
 292 700 292 700 333 700 c 2,11,-1
 537 700 l 1,12,-1
 537 580 l 1,13,-1
 396 580 l 2,14,15
 369 580 369 580 369 550 c 2,16,-1
 369 496 l 1,17,-1
 411 496 l 1,18,-1
 575 0 l 1,0,-1
EndSplineSet
EndChar

StartChar: pi
Encoding: 960 960 485
Width: 612
Flags: W
LayerCount: 2
Fore
SplineSet
128 0 m 1,0,-1
 128 376 l 1,1,-1
 50 376 l 1,2,-1
 50 496 l 1,3,-1
 564 496 l 1,4,-1
 564 376 l 1,5,-1
 486 376 l 1,6,-1
 486 150 l 2,7,8
 486 120 486 120 513 120 c 2,9,-1
 564 120 l 1,10,-1
 564 0 l 1,11,-1
 456 0 l 2,12,13
 414 0 414 0 387 27 c 128,-1,14
 360 54 360 54 360 96 c 2,15,-1
 360 376 l 1,16,-1
 254 376 l 1,17,-1
 254 0 l 1,18,-1
 128 0 l 1,0,-1
EndSplineSet
EndChar

StartChar: ordfeminine
Encoding: 170 170 486
Width: 612
Flags: W
LayerCount: 2
Fore
SplineSet
347 446 m 1,0,1
 337 428 337 428 318 417 c 128,-1,2
 299 406 299 406 270 406 c 0,3,4
 243 406 243 406 219 416 c 128,-1,5
 195 426 195 426 177 445 c 128,-1,6
 159 464 159 464 148.5 492 c 128,-1,7
 138 520 138 520 138 556 c 256,8,9
 138 592 138 592 148.5 619.5 c 128,-1,10
 159 647 159 647 177 666.5 c 128,-1,11
 195 686 195 686 219.5 696 c 128,-1,12
 244 706 244 706 272 706 c 0,13,14
 302 706 302 706 319 696.5 c 128,-1,15
 336 687 336 687 347 672 c 1,16,-1
 356 672 l 1,17,-1
 356 700 l 1,18,-1
 436 700 l 1,19,-1
 436 507 l 2,20,21
 436 490 436 490 452 490 c 2,22,-1
 472 490 l 1,23,-1
 472 412 l 1,24,-1
 396 412 l 2,25,26
 378 412 378 412 368 421.5 c 128,-1,27
 358 431 358 431 356 446 c 1,28,-1
 347 446 l 1,0,1
287 484 m 256,29,30
 317 484 317 484 334.5 503.5 c 128,-1,31
 352 523 352 523 352 556 c 256,32,33
 352 589 352 589 334.5 608.5 c 128,-1,34
 317 628 317 628 287 628 c 256,35,36
 257 628 257 628 239.5 608.5 c 128,-1,37
 222 589 222 589 222 556 c 256,38,39
 222 523 222 523 239.5 503.5 c 128,-1,40
 257 484 257 484 287 484 c 256,29,30
EndSplineSet
EndChar

StartChar: ordmasculine
Encoding: 186 186 487
Width: 612
Flags: W
LayerCount: 2
Fore
SplineSet
157 556 m 256,0,1
 157 593 157 593 169 621 c 128,-1,2
 181 649 181 649 201.5 668 c 128,-1,3
 222 687 222 687 249 696.5 c 128,-1,4
 276 706 276 706 306 706 c 256,5,6
 336 706 336 706 363 696.5 c 128,-1,7
 390 687 390 687 410.5 668 c 128,-1,8
 431 649 431 649 443 621 c 128,-1,9
 455 593 455 593 455 556 c 256,10,11
 455 519 455 519 443 491 c 128,-1,12
 431 463 431 463 410.5 444 c 128,-1,13
 390 425 390 425 363 415.5 c 128,-1,14
 336 406 336 406 306 406 c 256,15,16
 276 406 276 406 249 415.5 c 128,-1,17
 222 425 222 425 201.5 444 c 128,-1,18
 181 463 181 463 169 491 c 128,-1,19
 157 519 157 519 157 556 c 256,0,1
306 484 m 256,20,21
 337 484 337 484 354 503.5 c 128,-1,22
 371 523 371 523 371 556 c 256,23,24
 371 589 371 589 354 608.5 c 128,-1,25
 337 628 337 628 306 628 c 256,26,27
 275 628 275 628 258 608.5 c 128,-1,28
 241 589 241 589 241 556 c 256,29,30
 241 523 241 523 258 503.5 c 128,-1,31
 275 484 275 484 306 484 c 256,20,21
EndSplineSet
EndChar

StartChar: dagger
Encoding: 8224 8224 488
Width: 612
Flags: W
LayerCount: 2
Fore
SplineSet
144 604 m 1,0,-1
 252 604 l 1,1,-1
 252 714 l 1,2,-1
 360 714 l 1,3,-1
 360 604 l 1,4,-1
 468 604 l 1,5,-1
 468 498 l 1,6,-1
 360 498 l 1,7,-1
 360 218 l 1,8,-1
 252 218 l 1,9,-1
 252 498 l 1,10,-1
 144 498 l 1,11,-1
 144 604 l 1,0,-1
EndSplineSet
Substitution2: "'case' Case-Sensitive Forms in Latin lookup 31 subtable" dagger.cap
Substitution2: "'case' Case-Sensitive Forms in Latin lookup 30 subtable" dagger.cap
Substitution2: "'aalt' Access All Alternates in Latin lookup 0 subtable" dagger.cap
EndChar

StartChar: daggerdbl
Encoding: 8225 8225 489
Width: 612
Flags: W
LayerCount: 2
Fore
SplineSet
144 434 m 1,0,-1
 252 434 l 1,1,-1
 252 498 l 1,2,-1
 144 498 l 1,3,-1
 144 604 l 1,4,-1
 252 604 l 1,5,-1
 252 714 l 1,6,-1
 360 714 l 1,7,-1
 360 604 l 1,8,-1
 468 604 l 1,9,-1
 468 498 l 1,10,-1
 360 498 l 1,11,-1
 360 434 l 1,12,-1
 468 434 l 1,13,-1
 468 328 l 1,14,-1
 360 328 l 1,15,-1
 360 218 l 1,16,-1
 252 218 l 1,17,-1
 252 328 l 1,18,-1
 144 328 l 1,19,-1
 144 434 l 1,0,-1
EndSplineSet
Substitution2: "'case' Case-Sensitive Forms in Latin lookup 31 subtable" daggerdbl.cap
Substitution2: "'case' Case-Sensitive Forms in Latin lookup 30 subtable" daggerdbl.cap
Substitution2: "'aalt' Access All Alternates in Latin lookup 0 subtable" daggerdbl.cap
EndChar

